<svg xmlns="http://www.w3.org/2000/svg" viewBox="0 0 300.45 168.36"><defs><style>.cls-1{fill:#1b1b1b;}.cls-2{fill:none;stroke:#ececec;stroke-miterlimit:10;stroke-width:0.5px;}.cls-3{fill:#39bddf;}</style></defs><g id="Layer_2" data-name="Layer 2"><g id="Layer_2-2" data-name="Layer 2"><path class="cls-1" d="M290.1,12.18a1.38,1.38,0,0,0-1.38,1.26,14.82,14.82,0,0,1-29.52.11,1.49,1.49,0,0,0-1.49-1.37H9.62A9.65,9.65,0,0,0,0,21.8v137a9.64,9.64,0,0,0,9.62,9.61H290.11A10.34,10.34,0,0,0,300.45,158V22.53A10.35,10.35,0,0,0,290.1,12.18Z"/><path class="cls-2" d="M9.62,166.34A7.6,7.6,0,0,1,2,158.75V21.8a7.61,7.61,0,0,1,7.6-7.6H257.24a16.84,16.84,0,0,0,33.44,0,8.34,8.34,0,0,1,7.75,8.31V158a8.34,8.34,0,0,1-8.32,8.31Z"/><path class="cls-1" d="M286.14,12.18A12.18,12.18,0,1,1,274,0,12.18,12.18,0,0,1,286.14,12.18Z"/><path class="cls-3" d="M266,14.18A6.58,6.58,0,0,0,278.93,16a.89.89,0,0,0-.64-1.08,1.24,1.24,0,0,0-1.44.84,4.53,4.53,0,1,1-7.37-4.84,1.24,1.24,0,0,0,.22-1.62.91.91,0,0,0-1.28-.19A6.58,6.58,0,0,0,266,14.18Z"/><path class="cls-3" d="M281.63,8.88,272.8,3.7a1.06,1.06,0,0,0-1.59.92V15.14a1.06,1.06,0,0,0,1.61.91l8.83-5.35A1.06,1.06,0,0,0,281.63,8.88Z"/><path d="M273.49,5a.53.53,0,0,0-.53.92l6.44,3.71L273,13.35a.52.52,0,0,0-.19.72.53.53,0,0,0,.72.2l7.22-4.17.12-.09a.57.57,0,0,0,.11-.16.54.54,0,0,0,.05-.22.54.54,0,0,0-.05-.21.57.57,0,0,0-.11-.16.34.34,0,0,0-.12-.09Z"/></g></g></svg>