<svg width="40" height="40" viewBox="0 0 40 40" fill="none" xmlns="http://www.w3.org/2000/svg">
<rect width="40" height="40" rx="4" fill="#00C9EA"/>
<path d="M37 30.04L35.12 29.17C35.18 28.92 35.23 28.67 35.27 28.41C35.35 27.91 35.4001 27.41 35.4301 26.9C35.4401 26.71 35.45 26.52 35.45 26.32C35.46 26.21 35.46 26.09 35.46 25.98C35.46 25.22 35.41 24.48 35.29 23.75C35.26 23.54 35.2299 23.34 35.1899 23.14C35.1799 23.04 35.16 22.96 35.14 22.87C35.07 22.51 34.98 22.15 34.88 21.8C34.79 21.49 34.7 21.18 34.59 20.88C33.09 16.72 29.84 13.31 25.74 11.61C25.44 11.49 25.14 11.38 24.84 11.28C24.51 11.17 24.18 11.08 23.85 10.99C22.89 10.74 21.9 10.58 20.88 10.53C20.58 10.51 20.28 10.5 19.98 10.5C11.44 10.5 4.5 17.45 4.5 25.98C4.5 27.07 4.60996 28.13 4.82996 29.15L3.32996 29.58C3.05996 28.39 2.92004 27.18 2.92004 25.98C2.92004 16.58 10.58 8.91998 19.98 8.91998C20.1 8.91998 20.2099 8.91999 20.3199 8.92999C28.7899 9.08999 36.1987 15.32 37.2087 23.75C37.4287 25.63 37.41 28.19 37 30.04Z" fill="url(#paint0_linear_371_468)"/>
<path d="M35.46 25.98C35.46 26.09 35.46 26.21 35.45 26.32C35.45 26.52 35.4401 26.71 35.4301 26.9C35.4001 27.41 35.35 27.91 35.27 28.41C35.23 28.67 35.18 28.92 35.12 29.17L33.09 28.59C33.26 27.75 33.35 26.88 33.35 25.98C33.35 18.61 27.36 12.61 19.98 12.61C12.61 12.61 6.60999 18.61 6.60999 25.98C6.60999 26.87 6.7 27.73 6.87 28.57L4.82996 29.15C4.60996 28.13 4.5 27.07 4.5 25.98C4.5 17.45 11.44 10.5 19.98 10.5C20.28 10.5 20.58 10.51 20.88 10.53C21.9 10.58 22.89 10.74 23.85 10.99C24.18 11.08 24.51 11.17 24.84 11.28C25.14 11.38 25.44 11.49 25.74 11.61C29.87 13.27 33.12 16.66 34.59 20.88C34.7 21.18 34.79 21.49 34.88 21.8C34.98 22.15 35.07 22.51 35.14 22.87C35.16 22.96 35.1799 23.04 35.1899 23.14C35.2299 23.34 35.26 23.54 35.29 23.75C35.41 24.48 35.46 25.22 35.46 25.98Z" fill="url(#paint1_linear_371_468)"/>
<path d="M33.35 25.98C33.35 26.88 33.26 27.75 33.09 28.59L31.0601 28.0099C31.1901 27.3499 31.25 26.67 31.25 25.98C31.25 19.78 26.2 14.72 19.98 14.72C13.77 14.72 8.71997 19.78 8.71997 25.98C8.71997 26.67 8.78003 27.34 8.91003 27.99L6.87 28.57C6.7 27.73 6.60999 26.87 6.60999 25.98C6.60999 18.61 12.61 12.61 19.98 12.61C27.36 12.61 33.35 18.61 33.35 25.98Z" fill="url(#paint2_linear_371_468)"/>
<path d="M31.25 25.98C31.25 26.67 31.1901 27.3499 31.0601 28.0099L29.03 27.43C29.06 27.24 29.08 27.05 29.1 26.86C29.1 26.79 29.11 26.72 29.11 26.64C29.13 26.42 29.14 26.2 29.14 25.98C29.14 20.94 25.04 16.83 19.98 16.83C17.46 16.83 15.17 17.86 13.52 19.52C11.85 21.16 10.8199 23.46 10.8199 25.98C10.8199 26.23 10.83 26.49 10.86 26.74C10.88 26.96 10.9099 27.19 10.9399 27.41L8.91003 27.99C8.78003 27.34 8.71997 26.67 8.71997 25.98C8.71997 19.78 13.77 14.72 19.98 14.72C26.2 14.72 31.25 19.78 31.25 25.98Z" fill="url(#paint3_linear_371_468)"/>
<path d="M37.85 23.89C36.79 15 29.26 8.17 20.34 8H19.98C10.06 8 2 16.06 2 25.98C2 27.07 2 28.5 2.48999 30.1C2.57999 30.49 2.97999 30.72 3.35999 30.61L11.34 28.33C11.69 28.23 11.9 27.89 11.84 27.54C11.77 27.15 11.6899 26.6 11.6899 25.97C11.6499 21.42 15.3899 17.72 19.9399 17.72C21.6399 17.72 23.23 18.24 24.55 19.13C25.11 19.51 25.6101 19.95 26.0601 20.45C26.2301 20.63 26.4 20.83 26.55 21.04C26.71 21.25 26.86 21.47 27.01 21.71C27.14 21.94 27.27 22.17 27.38 22.4C27.55 22.76 27.6999 23.13 27.8199 23.52C28.0699 24.3 28.2 25.13 28.2 25.98C28.2 26.12 28.2001 26.25 28.1801 26.39C28.1801 26.59 28.14 27.05 28.05 27.54C27.98 27.89 28.2 28.24 28.55 28.33L36.55 30.61C36.94 30.72 37.3401 30.48 37.4301 30.09C38 28 38.05 25.61 37.85 23.89ZM29.36 27.53C29.18 27.48 29.0499 27.3 29.0699 27.11C29.0999 26.72 29.15 26.14 29.15 25.98C29.15 20.94 25.05 16.83 19.99 16.83C17.47 16.83 15.18 17.86 13.53 19.52C11.87 21.17 10.84 23.46 10.84 25.98C10.84 26.17 10.88 26.71 10.92 27.08C10.94 27.27 10.82 27.45 10.63 27.5L3.76001 29.46C3.54001 29.52 3.3 29.38 3.25 29.15C3.04 28.1 2.93005 27.03 2.93005 25.97C2.93005 16.57 10.59 8.90997 19.99 8.90997C20.11 8.90997 20.22 8.90998 20.33 8.91998C28.8 9.07998 35.9299 15.56 36.9399 23.99C37.1399 25.72 37.08 27.45 36.75 29.16C36.7 29.39 36.46 29.54 36.24 29.47L29.36 27.53Z" fill="black"/>
<path d="M24.7499 23.45C24.7499 23.45 19.6699 26.55 18.9899 27.23C18.4999 27.72 18.4999 28.5099 18.9899 29.0099C19.4799 29.4999 20.27 29.4999 20.77 29.0099C21.44 28.3299 24.7499 23.45 24.7499 23.45Z" fill="black"/>
<defs>
<linearGradient id="paint0_linear_371_468" x1="2.92384" y1="19.2633" x2="37.0507" y2="19.2633" gradientUnits="userSpaceOnUse">
<stop stop-color="#E63B2D"/>
<stop offset="0.039" stop-color="#DA392C"/>
<stop offset="0.2859" stop-color="#962E25"/>
<stop offset="0.5089" stop-color="#60251F"/>
<stop offset="0.7002" stop-color="#391E1B"/>
<stop offset="0.8523" stop-color="#211A19"/>
<stop offset="0.9462" stop-color="#181918"/>
</linearGradient>
<linearGradient id="paint1_linear_371_468" x1="4.5039" y1="19.8383" x2="35.4639" y2="19.8383" gradientUnits="userSpaceOnUse">
<stop stop-color="#F0852B"/>
<stop offset="1" stop-color="#575756"/>
</linearGradient>
<linearGradient id="paint2_linear_371_468" x1="6.61429" y1="20.6034" x2="33.354" y2="20.6034" gradientUnits="userSpaceOnUse">
<stop offset="0.0192" stop-color="#196B8C"/>
<stop offset="0.2027" stop-color="#3D7890"/>
<stop offset="0.4483" stop-color="#668795"/>
<stop offset="0.6717" stop-color="#839298"/>
<stop offset="0.863" stop-color="#96999A"/>
<stop offset="1" stop-color="#9C9B9B"/>
</linearGradient>
<linearGradient id="paint3_linear_371_468" x1="8.72407" y1="21.3682" x2="31.2539" y2="21.3682" gradientUnits="userSpaceOnUse">
<stop offset="0.1763" stop-color="#009245"/>
<stop offset="0.7994" stop-color="#D9D9D9"/>
</linearGradient>
</defs>
</svg>
