<svg width="11" height="13" viewBox="0 0 11 13" fill="none" xmlns="http://www.w3.org/2000/svg">
<path d="M10.2975 7.71997C10.0775 7.27997 9.71751 6.87002 9.26751 6.52002C10.3275 5.68002 10.7975 4.47997 10.3175 3.65997C10.0175 3.12997 9.39753 2.85999 8.65753 2.85999C8.21753 2.85999 7.74751 2.96002 7.26751 3.15002C7.07751 1.79002 6.26748 0.76001 5.29748 0.76001C4.32748 0.76001 3.50751 1.78 3.32751 3.19C2.00751 2.61 0.687497 2.78997 0.187497 3.65997C-0.0125033 4.00997 -0.0524985 4.43 0.0675015 4.88C0.227502 5.49001 0.677533 6.09 1.28753 6.56C0.697533 7.02 0.277489 7.61001 0.117489 8.20001C-0.00251066 8.65001 0.0374845 9.06998 0.237484 9.41998C0.437484 9.76998 0.777536 10.02 1.22754 10.14C1.42754 10.19 1.65751 10.22 1.88751 10.22C2.32751 10.22 2.80752 10.12 3.27752 9.92999C3.46752 11.29 4.27749 12.32 5.24749 12.32C6.22749 12.32 7.03753 11.27 7.21753 9.89001C7.71753 10.11 8.22752 10.22 8.70752 10.22C8.75752 10.22 8.80754 10.22 8.85754 10.22C9.55754 10.19 10.0875 9.89998 10.3675 9.41998C10.6375 8.94998 10.6175 8.33997 10.2975 7.71997ZM6.92749 3.73999C7.04749 3.66999 7.17749 3.59999 7.30749 3.54999C7.77749 3.33999 8.24754 3.23999 8.66754 3.23999C9.25754 3.23999 9.74748 3.43998 9.98748 3.84998C10.3775 4.52998 9.9175 5.56998 8.9375 6.28998C8.8875 6.25998 8.83753 6.22 8.78753 6.19C8.14753 5.82 7.47749 5.64001 6.86749 5.63C6.70749 5.63 6.54753 5.63998 6.40753 5.66998C5.98753 5.73998 5.62749 5.91 5.36749 6.19C5.34749 6.1 5.33752 6.00002 5.33752 5.90002C5.32752 5.18002 5.93749 4.30999 6.92749 3.73999C6.91749 3.74999 6.91749 3.73999 6.92749 3.73999ZM3.6875 3.48999C3.7675 2.17999 4.47748 1.15002 5.29748 1.15002C6.09748 1.15002 6.76752 2.09001 6.89752 3.32001C6.83752 3.35001 6.77753 3.37998 6.71753 3.41998C5.44753 4.14998 4.74748 5.37 4.98748 6.31C4.94748 6.3 4.9175 6.29002 4.8775 6.27002C4.8375 6.25002 4.79751 6.24002 4.76751 6.21002C4.76751 6.21002 4.7575 6.21001 4.7575 6.20001C4.7275 6.18001 4.68753 6.16001 4.65753 6.14001C4.64753 6.14001 4.63751 6.13 4.63751 6.12C4.62751 6.12 4.61754 6.10998 4.60754 6.09998C4.56754 6.06998 4.52748 6.02999 4.48748 5.98999C4.48748 5.98999 4.47753 5.98998 4.46753 5.97998C4.42753 5.94998 4.39754 5.90999 4.35754 5.85999C4.35754 5.85999 4.35754 5.85998 4.35754 5.84998C4.34754 5.83998 4.33751 5.83001 4.32751 5.82001C4.29751 5.79001 4.2775 5.76999 4.2575 5.73999L4.24749 5.71997C4.23749 5.70997 4.22754 5.7 4.22754 5.69C4.19754 5.64 4.1575 5.58998 4.1275 5.53998C4.0575 5.41998 3.9875 5.29997 3.9375 5.15997C3.9075 5.08997 3.87754 5.02001 3.85754 4.95001C3.83754 4.89001 3.81749 4.83001 3.80749 4.76001C3.79749 4.74001 3.78753 4.71 3.78753 4.69C3.76753 4.63 3.75749 4.57 3.74749 4.5C3.71749 4.35 3.6975 4.18998 3.6875 4.03998C3.6775 3.94998 3.67749 3.85001 3.67749 3.76001C3.68749 3.66001 3.6875 3.56999 3.6875 3.48999ZM0.437497 4.77002C0.337497 4.42002 0.367514 4.10003 0.517514 3.84003C0.747514 3.44003 1.23751 3.22998 1.82751 3.22998C2.27751 3.22998 2.78753 3.35003 3.28753 3.59003V3.73999C3.28753 3.92999 3.2975 4.11999 3.3175 4.29999C3.3175 4.33999 3.32752 4.37998 3.33752 4.41998C3.34752 4.48998 3.35749 4.56 3.36749 4.62C3.42749 4.92 3.5175 5.19 3.6275 5.44C3.6575 5.5 3.68753 5.56 3.71753 5.63C3.74753 5.69 3.7875 5.75 3.8175 5.81C3.8975 5.93 3.9775 6.04001 4.0675 6.14001C4.0675 6.14001 4.07751 6.14997 4.07751 6.15997C4.10751 6.18997 4.13754 6.23001 4.16754 6.26001C4.20754 6.29001 4.23752 6.32999 4.27752 6.35999C4.30752 6.38999 4.3475 6.41 4.3775 6.44C4.4175 6.47 4.45749 6.50002 4.49749 6.52002C4.49749 6.52002 4.5075 6.52003 4.5075 6.53003C4.6075 6.59003 4.7075 6.63998 4.8175 6.66998C4.6675 6.81998 4.46754 6.91999 4.22754 6.98999C4.12754 7.01999 4.01753 7.03999 3.90753 7.04999C3.30753 7.10999 2.58749 6.94 1.92749 6.56C1.80749 6.49 1.68751 6.41002 1.57751 6.33002C1.01751 5.89002 0.587497 5.33002 0.437497 4.77002ZM3.63751 9.33002C3.51751 9.40002 3.3875 9.47002 3.2575 9.52002C2.5875 9.82002 1.88752 9.91001 1.33752 9.76001C0.987521 9.67001 0.727511 9.47997 0.577511 9.21997C0.427511 8.95997 0.397484 8.63998 0.487484 8.28998C0.637484 7.74998 1.04749 7.20003 1.61749 6.78003C1.66749 6.81003 1.71751 6.83999 1.76751 6.87C2.39751 7.23 3.0775 7.42999 3.6875 7.42999H3.70752C3.85752 7.42999 4.00752 7.42002 4.14752 7.40002C4.21752 7.39002 4.29749 7.36998 4.36749 7.34998C4.60749 7.27998 4.82749 7.17998 4.99749 7.03998C5.06749 6.98998 5.12749 6.94 5.17749 6.87C5.20749 6.96 5.21753 7.06002 5.21753 7.15002C5.21753 7.34002 5.17753 7.53999 5.09753 7.73999C4.87753 8.32999 4.35751 8.91002 3.63751 9.33002ZM6.8775 9.32001C6.8775 9.45001 6.86754 9.58001 6.85754 9.70001C6.74754 10.96 6.0675 11.92 5.2575 11.92C4.4575 11.92 3.78753 10.98 3.65753 9.75C3.71753 9.72 3.77752 9.69002 3.83752 9.65002C4.50752 9.26002 5.0075 8.74997 5.3175 8.21997C5.3975 8.06997 5.46751 7.92002 5.51751 7.77002C5.58751 7.55002 5.62749 7.33 5.61749 7.12C5.61749 7 5.5975 6.88001 5.5675 6.76001C5.8675 6.85001 6.13753 7.07001 6.34753 7.39001C6.66753 7.85001 6.8675 8.52001 6.8775 9.26001V9.32001ZM10.0275 9.22998C9.81752 9.58998 9.39752 9.81003 8.83752 9.84003C8.33752 9.86003 7.77749 9.73998 7.24749 9.47998C7.25749 9.42998 7.2575 9.38002 7.2575 9.33002C7.2575 8.62002 7.08749 7.96 6.80749 7.44C6.72749 7.3 6.64748 7.16999 6.54748 7.04999C6.38748 6.83999 6.19748 6.66999 5.98748 6.54999C5.88748 6.48999 5.78749 6.43997 5.67749 6.40997C5.89749 6.18997 6.21753 6.06002 6.59753 6.02002C7.17753 5.97002 7.8975 6.13002 8.5675 6.52002C8.6875 6.59002 8.80749 6.67 8.92749 6.75C9.37749 7.07 9.72751 7.47001 9.94751 7.89001C10.2075 8.39001 10.2375 8.86998 10.0275 9.22998Z" fill="#1D1D1B"/>
<path d="M8.9375 6.28998C8.8875 6.25998 8.83754 6.22 8.78754 6.19C8.14754 5.82 7.47749 5.64 6.86749 5.63C6.70749 5.63 6.54753 5.63998 6.40753 5.66998C5.98753 5.73998 5.62749 5.91 5.36749 6.19C5.34749 6.1 5.33752 6.00002 5.33752 5.90002C5.33752 5.18002 5.94749 4.30999 6.92749 3.73999C6.92749 3.73999 6.9275 3.73999 6.9375 3.73999C7.0575 3.66999 7.1875 3.59999 7.3175 3.54999C7.7875 3.33999 8.25749 3.23999 8.67749 3.23999C9.26749 3.23999 9.7575 3.43998 9.9975 3.84998C10.3775 4.52998 9.9075 5.55998 8.9375 6.28998Z" fill="#F9E315"/>
<path d="M10.0275 9.22996C9.81753 9.58996 9.39752 9.81001 8.83752 9.84001C8.33752 9.86001 7.7775 9.73996 7.2475 9.47996C7.2575 9.42996 7.25751 9.38 7.25751 9.33C7.25751 8.62 7.0875 7.95999 6.8075 7.43999C6.7275 7.29999 6.64749 7.16997 6.54749 7.04997C6.38749 6.83997 6.19749 6.66997 5.98749 6.54997C5.88749 6.48997 5.78749 6.43996 5.67749 6.40996C5.89749 6.18996 6.21753 6.06 6.59753 6.02C7.17753 5.97 7.8975 6.13 8.5675 6.52C8.6875 6.59 8.80749 6.66998 8.92749 6.74998C9.37749 7.06998 9.72751 7.47 9.94751 7.89C10.2075 8.39 10.2375 8.86996 10.0275 9.22996Z" fill="#00B000"/>
<path d="M6.8775 9.27002V9.32001C6.8775 9.45001 6.86754 9.58001 6.85754 9.70001C6.74754 10.96 6.06751 11.92 5.25751 11.92C4.45751 11.92 3.78753 10.98 3.65753 9.75C3.71753 9.72 3.77752 9.69002 3.83752 9.65002C4.50752 9.26002 5.0075 8.74997 5.3175 8.21997C5.3975 8.06997 5.46752 7.92002 5.51752 7.77002C5.58752 7.55002 5.62749 7.33 5.61749 7.12C5.61749 7 5.5975 6.88001 5.5675 6.76001C5.8675 6.85001 6.13753 7.07001 6.34753 7.39001C6.65753 7.86001 6.8675 8.53002 6.8775 9.27002Z" fill="#17BAFC"/>
<path d="M5.22756 7.16998C5.22756 7.35998 5.18756 7.56001 5.10756 7.76001C4.88756 8.32001 4.35754 8.90001 3.64754 9.32001C3.64754 9.32001 3.64753 9.32001 3.63753 9.32001C3.51753 9.39001 3.38753 9.46001 3.25753 9.51001C2.58753 9.81001 1.88754 9.9 1.33754 9.75C0.987543 9.66 0.727533 9.47002 0.577533 9.21002C0.427533 8.95002 0.397506 8.63003 0.487506 8.28003C0.637506 7.74003 1.04751 7.19002 1.61751 6.77002C1.66751 6.80002 1.71754 6.82999 1.76754 6.85999C2.39754 7.21999 3.07752 7.41998 3.68752 7.41998H3.70754C3.85754 7.41998 4.00754 7.41001 4.14754 7.39001C4.21754 7.38001 4.29751 7.36003 4.36751 7.34003C4.60751 7.27003 4.82752 7.17003 4.99752 7.03003C5.06752 6.98003 5.12751 6.92999 5.17751 6.85999C5.21751 6.97999 5.22756 7.07998 5.22756 7.16998Z" fill="#0000FF"/>
<path d="M4.86747 6.66998C4.71747 6.81998 4.51751 6.91999 4.27751 6.98999C4.17751 7.01999 4.0675 7.03999 3.9575 7.04999C3.3575 7.10999 2.63752 6.94 1.97752 6.56C1.85752 6.49 1.73748 6.41002 1.62748 6.33002C1.02748 5.91002 0.59749 5.34003 0.44749 4.78003C0.34749 4.43003 0.377507 4.10998 0.527507 3.84998C0.757507 3.44998 1.2475 3.23999 1.8375 3.23999C2.2875 3.23999 2.79747 3.35998 3.29747 3.59998V3.75C3.29747 3.94 3.30749 4.13 3.32749 4.31C3.32749 4.35 3.33751 4.38999 3.34751 4.42999C3.35751 4.49999 3.36748 4.57 3.37748 4.63C3.43748 4.93 3.52749 5.20001 3.63749 5.45001C3.66749 5.51001 3.69752 5.57001 3.72752 5.64001C3.75752 5.70001 3.79749 5.76001 3.82749 5.82001C3.90749 5.94001 3.98749 6.05002 4.07749 6.15002C4.07749 6.15002 4.0875 6.15998 4.0875 6.16998C4.1175 6.19998 4.14747 6.24002 4.17747 6.27002C4.21747 6.30002 4.24752 6.34 4.28752 6.37C4.31752 6.4 4.35749 6.42001 4.38749 6.45001C4.42749 6.48001 4.46749 6.51003 4.50749 6.53003C4.50749 6.53003 4.5175 6.52998 4.5175 6.53998C4.6575 6.57998 4.75747 6.62998 4.86747 6.66998Z" fill="#8624DB"/>
<path d="M6.89752 3.32003C6.83752 3.35003 6.77753 3.38 6.71753 3.42C5.44753 4.15 4.74749 5.37002 4.98749 6.31002C4.94749 6.30002 4.9175 6.29004 4.8775 6.27004C4.8375 6.25004 4.79752 6.24004 4.76752 6.21004C4.76752 6.21004 4.75751 6.21003 4.75751 6.20003C4.72751 6.18003 4.68753 6.16003 4.65753 6.14003C4.64753 6.14003 4.63751 6.13001 4.63751 6.12001C4.62751 6.12001 4.61754 6.10999 4.60754 6.09999C4.56754 6.06999 4.52749 6.03001 4.48749 5.99001C4.48749 5.99001 4.47753 5.99 4.46753 5.98C4.42753 5.95 4.39754 5.91 4.35754 5.86C4.35754 5.86 4.35754 5.85999 4.35754 5.84999C4.34754 5.83999 4.33751 5.83003 4.32751 5.82003C4.29751 5.79003 4.27751 5.77001 4.25751 5.74001L4.2475 5.71999C4.2375 5.70999 4.22754 5.70002 4.22754 5.69002C4.19754 5.64002 4.1575 5.59 4.1275 5.54C4.0575 5.42 3.9875 5.29999 3.9375 5.15999C3.9075 5.08999 3.87754 5.02003 3.85754 4.95003C3.83754 4.89003 3.8175 4.83003 3.8075 4.76003C3.7975 4.74003 3.78754 4.71002 3.78754 4.69002C3.76754 4.63002 3.7575 4.57002 3.7475 4.50002C3.7175 4.35002 3.6975 4.19 3.6875 4.04C3.6775 3.95 3.67749 3.85003 3.67749 3.76003C3.67749 3.67003 3.67749 3.58002 3.67749 3.50002C3.75749 2.19002 4.46754 1.15999 5.28754 1.15999C6.10754 1.14999 6.77752 2.08003 6.89752 3.32003Z" fill="#FF0000"/>
</svg>
