<svg width="40" height="40" viewBox="0 0 40 40" fill="none" xmlns="http://www.w3.org/2000/svg">
<rect width="40" height="40" rx="4" fill="#00C9EA"/>
<path d="M36.05 29.98L28.9801 22.9L29.0701 22.8C29.3201 22.52 29.4701 22.16 29.4701 21.79C29.4701 21.39 29.31 21.02 29.03 20.74L26.99 18.7C26.71 18.42 26.3401 18.26 25.9401 18.26C25.5601 18.26 25.2001 18.4 24.9301 18.66L24.8301 18.75L23.49 17.41L23.52 17.33C24 15.84 23.61 14.16 22.51 13.07L19.0701 9.62L19.0901 9.54999C19.2601 8.91999 19.08 8.23999 18.62 7.76999L18.28 7.42999C17.93 7.07999 17.4701 6.88998 16.9801 6.88998C16.4901 6.88998 16.0301 7.07999 15.6801 7.42999L7.3501 15.77C7.0001 16.11 6.81006 16.57 6.81006 17.06C6.81006 17.56 7.0001 18.01 7.3501 18.36L7.69006 18.7C8.03006 19.05 8.4901 19.24 8.9801 19.24C9.1501 19.24 9.31008 19.22 9.46008 19.18L9.54004 19.15L12.99 22.6C13.77 23.38 14.8101 23.81 15.9301 23.81C16.3701 23.81 16.82 23.74 17.25 23.6L17.3201 23.58L29.89 36.14C30.24 36.5 30.7201 36.69 31.2201 36.69C31.7301 36.69 32.2001 36.5 32.5601 36.14L36.05 32.64C36.79 31.91 36.79 30.71 36.05 29.98ZM25.62 19.97L25.89 19.69C25.9 19.68 25.9201 19.67 25.9401 19.67C25.9601 19.67 25.98 19.68 25.99 19.69L28.04 21.74C28.06 21.76 28.06 21.81 28.04 21.84L27.76 22.11C27.73 22.14 27.69 22.14 27.66 22.11L25.62 20.07V19.97ZM9.28003 17.71C9.12003 17.87 8.84005 17.87 8.68005 17.71L8.34009 17.36C8.26009 17.28 8.22009 17.18 8.22009 17.06C8.22009 16.95 8.26009 16.84 8.34009 16.76L16.6801 8.42999C16.7601 8.33999 16.8701 8.29999 16.9801 8.29999C17.0901 8.29999 17.2 8.33999 17.28 8.42999L17.62 8.76999C17.79 8.92999 17.79 9.2 17.62 9.37L9.28003 17.71ZM17.61 21.86C17.47 21.97 17.31 22.06 17.15 22.13C16.98 22.22 16.8 22.29 16.61 22.33C16.4 22.38 16.1701 22.41 15.9401 22.41C15.2001 22.41 14.5001 22.12 13.9801 21.6L10.41 18.03L17.9501 10.5L21.52 14.07C22.04 14.59 22.3301 15.28 22.3301 16.03C22.3301 16.26 22.3 16.48 22.25 16.7C22.2 16.89 22.14 17.07 22.05 17.24C21.98 17.4 21.89 17.55 21.78 17.69C21.7 17.8 21.61 17.9 21.52 18L17.91 21.6C17.82 21.7 17.72 21.79 17.61 21.86ZM18.3401 22.6C18.4401 22.52 18.54 22.43 18.64 22.33L22.25 18.73C22.34 18.63 22.43 18.53 22.51 18.43L24.89 20.8L26.9301 22.84L33.2101 29.13L29.04 33.3L18.3401 22.6ZM35.0601 31.64L31.5601 35.14C31.3701 35.33 31.07 35.33 30.89 35.14L29.77 34.03L33.9401 29.86L35.0601 30.97C35.1501 31.06 35.2001 31.18 35.2001 31.31C35.2001 31.43 35.1501 31.55 35.0601 31.64Z" fill="#1D1D1B"/>
<path d="M28.04 21.74C28.06 21.76 28.06 21.81 28.04 21.84L27.76 22.11C27.73 22.14 27.69 22.14 27.66 22.11L25.62 20.07V19.97L25.89 19.69C25.9 19.68 25.9201 19.67 25.9401 19.67C25.9601 19.67 25.98 19.68 25.99 19.69L28.04 21.74Z" fill="#F29E38"/>
<path d="M35.2001 31.31C35.2001 31.43 35.1501 31.55 35.0601 31.64L31.5601 35.14C31.3701 35.33 31.07 35.33 30.89 35.14L29.77 34.03L33.9401 29.86L35.0601 30.97C35.1501 31.06 35.2001 31.18 35.2001 31.31Z" fill="#F29E38"/>
<path d="M26.9301 22.84L24.89 20.8L22.51 18.43C22.43 18.53 22.34 18.63 22.25 18.73L18.64 22.33C18.54 22.43 18.4401 22.52 18.3401 22.6L29.04 33.3L33.2101 29.13L26.9301 22.84ZM31.36 29.58C31.23 29.58 31.09 29.53 30.99 29.43L22.41 20.85C22.21 20.64 22.21 20.32 22.41 20.12C22.61 19.91 22.94 19.91 23.14 20.12L31.7201 28.7C31.9201 28.9 31.9201 29.23 31.7201 29.43C31.6201 29.53 31.49 29.58 31.36 29.58Z" fill="#E63B2D"/>
<path d="M17.62 9.37L9.28003 17.71C9.12003 17.87 8.84005 17.87 8.68005 17.71L8.34009 17.36C8.26009 17.28 8.22009 17.18 8.22009 17.06C8.22009 16.95 8.26009 16.84 8.34009 16.76L16.6801 8.42999C16.7601 8.33999 16.8701 8.29999 16.9801 8.29999C17.0901 8.29999 17.2 8.33999 17.28 8.42999L17.62 8.76999C17.79 8.92999 17.79 9.2 17.62 9.37Z" fill="#F29E38"/>
<path d="M21.52 14.07L17.9501 10.5L10.41 18.03L13.9801 21.6C14.5001 22.12 15.2001 22.41 15.9401 22.41C16.1701 22.41 16.4 22.38 16.61 22.33C16.8 22.29 16.98 22.22 17.15 22.13C17.31 22.06 17.47 21.97 17.61 21.86C17.72 21.79 17.82 21.7 17.91 21.6L21.52 18C21.61 17.9 21.7 17.8 21.78 17.69C21.89 17.55 21.98 17.4 22.05 17.24C22.14 17.07 22.2 16.89 22.25 16.7C22.3 16.48 22.3301 16.26 22.3301 16.03C22.3301 15.28 22.04 14.59 21.52 14.07ZM21.1001 15.5C21.0001 15.6 20.87 15.66 20.74 15.66C20.61 15.66 20.48 15.6 20.38 15.5L17.74 12.87C17.54 12.67 17.54 12.34 17.74 12.14C17.94 11.94 18.2701 11.94 18.4701 12.14L21.1001 14.78C21.3101 14.98 21.3101 15.3 21.1001 15.5Z" fill="#E63B2D"/>
<path d="M31.7201 29.43C31.6201 29.53 31.49 29.58 31.36 29.58C31.23 29.58 31.09 29.53 30.99 29.43L22.41 20.85C22.21 20.64 22.21 20.32 22.41 20.12C22.61 19.91 22.94 19.91 23.14 20.12L31.7201 28.7C31.9201 28.9 31.9201 29.23 31.7201 29.43Z" fill="#1D1D1B"/>
<path d="M21.1001 15.5C21.0001 15.6 20.87 15.66 20.74 15.66C20.61 15.66 20.48 15.6 20.38 15.5L17.74 12.87C17.54 12.67 17.54 12.34 17.74 12.14C17.94 11.94 18.2701 11.94 18.4701 12.14L21.1001 14.78C21.3101 14.98 21.3101 15.3 21.1001 15.5Z" fill="#1D1D1B"/>
<path d="M9.79001 10.39C9.66001 10.39 9.53003 10.34 9.43003 10.24L5.04001 5.84998C4.84001 5.64998 4.84001 5.32 5.04001 5.12C5.24001 4.92 5.57 4.92 5.77 5.12L10.16 9.50999C10.36 9.70999 10.36 10.04 10.16 10.24C10.06 10.34 9.92001 10.39 9.79001 10.39Z" fill="#F9E315"/>
<path d="M12.01 8.92999C11.73 8.92999 11.49 8.69997 11.49 8.40997V3.51999C11.49 3.23999 11.72 3 12.01 3C12.29 3 12.53 3.22999 12.53 3.51999V8.40997C12.53 8.68997 12.3 8.92999 12.01 8.92999Z" fill="#F9E315"/>
<path d="M8.41003 12.7H3.52002C3.24002 12.7 3 12.47 3 12.18C3 11.89 3.23002 11.66 3.52002 11.66H8.41003C8.69003 11.66 8.93005 11.89 8.93005 12.18C8.93005 12.47 8.70003 12.7 8.41003 12.7Z" fill="#F9E315"/>
</svg>
