<svg width="24" height="26" viewBox="0 0 24 26" fill="none" xmlns="http://www.w3.org/2000/svg">
<path d="M23.2781 15.5473C22.7952 14.5908 22.0187 13.7007 21.0433 12.9526C23.335 11.1344 24.3388 8.54916 23.3066 6.75939C22.6532 5.62303 21.3084 5.0359 19.7175 5.0359C18.7706 5.0359 17.7478 5.24426 16.7157 5.66093C16.3179 2.71586 14.5566 0.499939 12.4638 0.499939C10.3615 0.499939 8.60014 2.71583 8.20241 5.74613C5.34257 4.48666 2.49221 4.88439 1.41266 6.75939C0.977057 7.50749 0.882332 8.42609 1.14748 9.40147C1.49786 10.7178 2.46375 12.0151 3.78951 13.0473C2.5111 14.0511 1.60202 15.32 1.26112 16.5984C1.00543 17.5738 1.09069 18.4829 1.52629 19.2404C1.9619 19.9885 2.7005 20.5378 3.67587 20.7935C4.12095 20.9071 4.60391 20.9734 5.10581 20.9734C6.06224 20.9734 7.10391 20.7556 8.12664 20.3389C8.52437 23.284 10.2857 25.4999 12.3785 25.4999C14.4903 25.4999 16.2516 23.2366 16.6304 20.2537C17.7099 20.7272 18.8085 20.9734 19.8501 20.9734C19.9543 20.9734 20.0679 20.9734 20.1721 20.9639C21.6778 20.8882 22.8331 20.2821 23.4297 19.2404C24.0073 18.2082 23.96 16.892 23.2781 15.5473ZM15.977 6.94879C16.2422 6.78781 16.5168 6.65523 16.7914 6.53213C17.8047 6.07758 18.8274 5.85981 19.7365 5.85981C21.0149 5.85981 22.0755 6.30485 22.5869 7.17606C23.4391 8.65333 22.4259 10.8882 20.3141 12.4602C20.21 12.3844 20.0963 12.3181 19.9827 12.2519C18.6001 11.4469 17.1418 11.0587 15.835 11.0492C15.4846 11.0492 15.1532 11.0776 14.8312 11.1344C13.9221 11.2859 13.1361 11.6647 12.5964 12.2519C12.549 12.053 12.5206 11.8446 12.5206 11.6268C12.5206 10.0643 13.8369 8.17987 15.9581 6.96775C15.9676 6.95828 15.9676 6.94879 15.977 6.94879ZM8.97893 6.39954C9.15886 3.55863 10.6929 1.33328 12.4638 1.33328C14.2062 1.33328 15.6456 3.35981 15.9202 6.03026C15.7971 6.09655 15.6645 6.16281 15.5319 6.23857C12.7952 7.82001 11.2706 10.4621 11.8009 12.4791C11.7157 12.4602 11.6399 12.4317 11.5547 12.3939C11.4694 12.356 11.3842 12.3181 11.3084 12.2708C11.299 12.2708 11.2895 12.2613 11.2801 12.2519C11.2043 12.214 11.138 12.1666 11.0717 12.1193C11.0528 12.1098 11.0433 12.1003 11.0244 12.0813C11.0054 12.0719 10.9865 12.053 10.9675 12.0435C10.8728 11.9772 10.7877 11.9014 10.7024 11.8067C10.693 11.8067 10.6834 11.7973 10.6645 11.7784C10.5793 11.7026 10.5035 11.6174 10.4278 11.5321C10.4278 11.5321 10.4183 11.5227 10.4183 11.5132C10.3993 11.4848 10.3804 11.4753 10.3615 11.4469C10.3047 11.3901 10.2573 11.3333 10.2005 11.267V11.2575L10.1721 11.2196C10.1532 11.2007 10.1342 11.1817 10.1342 11.1533C10.0679 11.0492 9.99219 10.9356 9.9259 10.8219C9.76492 10.5757 9.6323 10.2916 9.52813 10.0075C9.46185 9.85597 9.40504 9.70446 9.35769 9.54348C9.31034 9.4109 9.26299 9.28781 9.24406 9.14577C9.22512 9.09842 9.2062 9.04162 9.2062 8.9848C9.16832 8.85222 9.13993 8.71966 9.11152 8.57761C9.05471 8.25564 9.00735 7.91473 8.98841 7.57383C8.96947 7.37496 8.95998 7.17609 8.95998 6.96775C8.96945 6.77836 8.97893 6.58893 8.97893 6.39954ZM1.95238 9.18363C1.74405 8.43552 1.81034 7.73477 2.13231 7.17606C2.6342 6.30485 3.69481 5.85981 4.97322 5.85981C5.94859 5.85981 7.04709 6.10602 8.12664 6.62686V6.95827C8.12664 7.37494 8.15506 7.77264 8.20241 8.17036C8.21188 8.25559 8.2308 8.34083 8.24027 8.41658C8.25921 8.55863 8.27817 8.71017 8.31604 8.85221C8.43915 9.49615 8.63799 10.0927 8.8842 10.623C8.95049 10.7556 9.0168 10.8882 9.08309 11.0207V11.0302H9.09257C9.15885 11.1628 9.24407 11.2954 9.31983 11.4185C9.49028 11.6742 9.67021 11.9204 9.85961 12.1287C9.86908 12.1382 9.87852 12.1571 9.88799 12.1666C9.95427 12.2424 10.0206 12.3086 10.0869 12.3749C10.1721 12.4507 10.2479 12.517 10.3331 12.5927C10.4088 12.6496 10.4846 12.7064 10.5604 12.7632C10.6456 12.8295 10.7308 12.8863 10.8066 12.9431C10.816 12.9431 10.8255 12.9526 10.835 12.9621C10.8444 12.9621 10.8444 12.9621 10.8444 12.9621C11.0622 13.0947 11.2895 13.1988 11.5168 13.2745C11.1948 13.5965 10.7592 13.8238 10.2384 13.9659C10.0111 14.0227 9.77436 14.07 9.53761 14.0889C8.2308 14.2215 6.68727 13.8427 5.24787 13.0283C5.24787 13.0188 5.2384 13.0189 5.2384 13.0189C4.98271 12.8674 4.72705 12.6969 4.49031 12.517C3.20243 11.6079 2.27435 10.3863 1.95238 9.18363ZM8.85582 19.0416C8.59067 19.2026 8.31606 19.3352 8.04144 19.4583C6.59258 20.1022 5.0869 20.3011 3.89372 19.9791C3.14561 19.7802 2.57739 19.3731 2.25542 18.8143C1.93345 18.2556 1.86721 17.5643 2.06607 16.8068C2.38804 15.6325 3.26868 14.4488 4.50921 13.5397C4.61338 13.606 4.72705 13.6723 4.84068 13.7385C6.20432 14.5245 7.67213 14.9412 8.98841 14.9507H9.03575C9.36719 14.9507 9.68917 14.9223 9.9922 14.8749C10.1532 14.8465 10.3142 14.8181 10.4562 14.7708C10.9865 14.6287 11.4411 14.4014 11.8198 14.1079C11.9619 14.0037 12.0944 13.8806 12.2081 13.748C12.2649 13.9374 12.2933 14.1458 12.2933 14.3541C12.2933 14.7708 12.1986 15.1969 12.0281 15.642C11.5452 16.8636 10.4183 18.1135 8.8653 19.0132C8.8653 19.0321 8.86529 19.0416 8.85582 19.0416ZM15.8634 19.0226C15.8634 19.3067 15.8444 19.5814 15.8255 19.8465C15.5793 22.5643 14.1209 24.6476 12.369 24.6476C10.6266 24.6476 9.18726 22.6211 8.91264 19.9507C9.03575 19.8844 9.1683 19.8181 9.30087 19.7424C10.7497 18.909 11.8387 17.8011 12.4922 16.6552C12.6721 16.3333 12.8141 16.0018 12.9278 15.6799C13.0888 15.2064 13.1645 14.7329 13.1456 14.2783C13.1456 14.0132 13.1077 13.748 13.0414 13.5018C13.6853 13.6912 14.2725 14.1742 14.727 14.8654C15.4183 15.8692 15.8539 17.3086 15.8823 18.909V19.0226H15.8634ZM22.691 18.8143C22.2365 19.6003 21.3274 20.0548 20.1153 20.1306C19.0263 20.1779 17.8236 19.9128 16.6778 19.3635C16.6967 19.2594 16.6967 19.1363 16.6967 19.0321C16.6967 17.4886 16.3274 16.0681 15.7308 14.9507C15.5604 14.6477 15.3804 14.3636 15.1816 14.1174C14.8312 13.6628 14.424 13.2935 13.9789 13.0283C13.7611 12.8957 13.5433 12.7916 13.3066 12.7159C13.7706 12.2424 14.4713 11.9677 15.2857 11.8825C16.5452 11.7689 18.0888 12.1287 19.5566 12.9715H19.566C19.8312 13.1325 20.0963 13.2935 20.3331 13.4734C21.299 14.1647 22.066 15.0264 22.5301 15.9355C23.0888 17.0151 23.1456 18.0378 22.691 18.8143Z" fill="#1D1D1B" stroke="black" stroke-width="0.2"/>
<path d="M20.3142 12.4602C20.21 12.3844 20.0964 12.3181 19.9827 12.2519C18.6002 11.4469 17.1418 11.0587 15.835 11.0492C15.4846 11.0492 15.1532 11.0776 14.8312 11.1344C13.9221 11.2859 13.1362 11.6647 12.5964 12.2519C12.5491 12.053 12.5206 11.8446 12.5206 11.6268C12.5206 10.0643 13.8369 8.17987 15.9581 6.96775C15.9676 6.96775 15.9676 6.95827 15.9771 6.95827C16.2422 6.79728 16.5168 6.66471 16.7915 6.5416C17.8047 6.08706 18.8274 5.86923 19.7365 5.86923C21.0149 5.86923 22.0755 6.31432 22.5869 7.18553C23.4392 8.65333 22.4354 10.8882 20.3142 12.4602Z" fill="#F9E315" stroke="black" stroke-width="0.2"/>
<path d="M22.691 18.8143C22.2365 19.6003 21.3274 20.0548 20.1153 20.1306C19.0263 20.1779 17.8236 19.9128 16.6778 19.3635C16.6967 19.2594 16.6967 19.1363 16.6967 19.0321C16.6967 17.4885 16.3274 16.0681 15.7308 14.9507C15.5604 14.6476 15.3804 14.3635 15.1816 14.1173C14.8312 13.6628 14.424 13.2934 13.9789 13.0283C13.7611 12.8957 13.5433 12.7916 13.3066 12.7158C13.7706 12.2424 14.4713 11.9677 15.2857 11.8825C16.5452 11.7689 18.0887 12.1287 19.5566 12.9715H19.566C19.8312 13.1325 20.0963 13.2935 20.3331 13.4734C21.299 14.1647 22.066 15.0264 22.53 15.9355C23.0888 17.015 23.1456 18.0378 22.691 18.8143Z" fill="#00B000" stroke="black" stroke-width="0.2"/>
<path d="M15.8634 18.909V19.0226C15.8634 19.3067 15.8445 19.5814 15.8255 19.8465C15.5793 22.5643 14.121 24.6476 12.3691 24.6476C10.6266 24.6476 9.18728 22.6211 8.91266 19.9507C9.03576 19.8844 9.16831 19.8181 9.30089 19.7424C10.7498 18.909 11.8388 17.8011 12.4922 16.6552C12.6721 16.3333 12.8142 16.0018 12.9278 15.6799C13.0888 15.2064 13.1645 14.7329 13.1456 14.2783C13.1456 14.0132 13.1077 13.748 13.0414 13.5018C13.6854 13.6912 14.2725 14.1742 14.7271 14.8654C15.4089 15.8692 15.8444 17.3086 15.8634 18.909Z" fill="#FF0000" stroke="black" stroke-width="0.2"/>
<path d="M12.3028 14.3731C12.3028 14.7897 12.2081 15.2158 12.0377 15.6609C11.5547 16.8825 10.4279 18.1325 8.87482 19.0321C8.86535 19.0321 8.86534 19.0416 8.85587 19.0416C8.59071 19.2026 8.31611 19.3352 8.04149 19.4583C6.59262 20.1022 5.08694 20.3011 3.89376 19.9791C3.14565 19.7802 2.57743 19.3731 2.25546 18.8143C1.93349 18.2556 1.86725 17.5643 2.06612 16.8068C2.38808 15.6325 3.26872 14.4488 4.50925 13.5397C4.61342 13.606 4.72709 13.6723 4.84073 13.7385C6.20436 14.5245 7.67217 14.9412 8.98845 14.9507H9.03579C9.36723 14.9507 9.68921 14.9223 9.99224 14.8749C10.1532 14.8465 10.3142 14.8181 10.4562 14.7708C10.9865 14.6287 11.4411 14.4014 11.8199 14.1079C11.9619 14.0037 12.0945 13.8806 12.2081 13.748C12.2839 13.9564 12.3028 14.1647 12.3028 14.3731Z" fill="#F9E315" stroke="black" stroke-width="0.2"/>
<path d="M11.5263 13.2745C11.2043 13.5965 10.7687 13.8238 10.2479 13.9659C10.0206 14.0227 9.78386 14.07 9.54712 14.0889C8.2403 14.2215 6.69677 13.8427 5.25738 13.0283C5.25738 13.0189 5.2479 13.0189 5.2479 13.0189C4.99222 12.8674 4.7365 12.6969 4.49976 12.517C3.19294 11.5984 2.26491 10.3769 1.95241 9.17421C1.74408 8.42611 1.81037 7.7253 2.13234 7.16658C2.63423 6.29537 3.69484 5.85034 4.97325 5.85034C5.94862 5.85034 7.04712 6.09655 8.12667 6.61738V6.9488C8.12667 7.36547 8.15509 7.76322 8.20244 8.16095C8.21191 8.24618 8.23083 8.33135 8.2403 8.40711C8.25924 8.54916 8.27819 8.70069 8.31607 8.84274C8.43918 9.48668 8.63802 10.0833 8.88423 10.6136C8.95052 10.7461 9.01683 10.8787 9.08312 11.0113V11.0208H9.09259C9.15888 11.1533 9.2441 11.2859 9.31986 11.409C9.49031 11.6647 9.67024 11.9109 9.85964 12.1193C9.86911 12.1287 9.87855 12.1477 9.88802 12.1571C9.9543 12.2329 10.0206 12.2992 10.0869 12.3655C10.1721 12.4412 10.2479 12.5075 10.3331 12.5833C10.4089 12.6401 10.4846 12.6969 10.5604 12.7537C10.6456 12.82 10.7308 12.8768 10.8066 12.9336C10.8161 12.9336 10.8255 12.9431 10.835 12.9526C10.8445 12.9526 10.8445 12.9526 10.8445 12.9526C11.0717 13.1041 11.299 13.1988 11.5263 13.2745Z" fill="#00B000" stroke="black" stroke-width="0.2"/>
<path d="M15.9202 6.03027C15.7971 6.09656 15.6646 6.16282 15.532 6.23857C12.7952 7.82001 11.2706 10.4621 11.8009 12.4791C11.7157 12.4602 11.6399 12.4318 11.5547 12.3939C11.4695 12.356 11.3842 12.3181 11.3085 12.2708C11.299 12.2708 11.2896 12.2613 11.2801 12.2519C11.2043 12.214 11.138 12.1666 11.0717 12.1193C11.0528 12.1098 11.0433 12.1003 11.0244 12.0814C11.0055 12.0719 10.9865 12.053 10.9676 12.0435C10.8729 11.9772 10.7877 11.9015 10.7025 11.8068C10.693 11.8068 10.6835 11.7973 10.6646 11.7784C10.5793 11.7026 10.5036 11.6174 10.4278 11.5322C10.4278 11.5322 10.4183 11.5227 10.4183 11.5132C10.3994 11.4848 10.3805 11.4753 10.3615 11.4469C10.3047 11.3901 10.2574 11.3333 10.2005 11.267V11.2575L10.1722 11.2196C10.1532 11.2007 10.1343 11.1818 10.1343 11.1533C10.068 11.0492 9.99224 10.9356 9.92595 10.8219C9.76496 10.5757 9.63235 10.2916 9.52818 10.0075C9.46189 9.85598 9.40508 9.70447 9.35773 9.54349C9.31038 9.41091 9.26304 9.28782 9.2441 9.14578C9.22516 9.09843 9.20624 9.04163 9.20624 8.98481C9.16836 8.85223 9.13998 8.71966 9.11157 8.57762C9.05475 8.25565 9.0074 7.91474 8.98846 7.57383C8.96952 7.37497 8.96002 7.17609 8.96002 6.96776C8.96002 6.77836 8.9695 6.57947 8.9695 6.39954C9.14942 3.55864 10.6835 1.33328 12.4543 1.33328C14.2062 1.34275 15.6456 3.36929 15.9202 6.03027Z" fill="#FF0000" stroke="black" stroke-width="0.2"/>
</svg>
