<svg width="24" height="26" viewBox="0 0 24 26" fill="none" xmlns="http://www.w3.org/2000/svg">
<path d="M23.0781 15.5473C22.5952 14.5908 21.8187 13.7007 20.8433 12.9526C23.135 11.1344 24.1388 8.54916 23.1066 6.75939C22.4532 5.62303 21.1084 5.0359 19.5175 5.0359C18.5705 5.0359 17.5478 5.24426 16.5156 5.66093C16.1179 2.71586 14.3566 0.499939 12.2638 0.499939C10.1615 0.499939 8.40013 2.71583 8.0024 5.74613C5.14255 4.48666 2.29219 4.88439 1.21265 6.75939C0.777045 7.50749 0.68232 8.42609 0.947471 9.40147C1.29785 10.7178 2.26374 12.0151 3.58949 13.0473C2.31109 14.0511 1.40201 15.32 1.0611 16.5984C0.805421 17.5738 0.890676 18.4829 1.32628 19.2404C1.76189 19.9885 2.50048 20.5378 3.47586 20.7935C3.92094 20.9071 4.4039 20.9734 4.90579 20.9734C5.8717 20.9734 6.9039 20.7556 7.92663 20.3389C8.32435 23.284 10.0857 25.4999 12.1785 25.4999C14.2902 25.4999 16.0516 23.2366 16.4304 20.2537C17.5099 20.7272 18.6084 20.9734 19.6501 20.9734C19.7543 20.9734 19.8679 20.9734 19.9721 20.9639C21.4778 20.8882 22.6331 20.2821 23.2297 19.2404C23.8168 18.2082 23.7599 16.892 23.0781 15.5473ZM15.777 6.94879C16.0422 6.78781 16.3168 6.65523 16.5914 6.53213C17.6047 6.07758 18.6274 5.85981 19.5365 5.85981C20.8149 5.85981 21.8755 6.30485 22.3869 7.17606C23.2391 8.65333 22.2259 10.8882 20.1141 12.4602C20.0099 12.3844 19.8963 12.3181 19.7827 12.2519C18.4001 11.4469 16.9418 11.0587 15.635 11.0492C15.2846 11.0492 14.9532 11.0776 14.6312 11.1344C13.7221 11.2859 12.9361 11.6647 12.3963 12.2519C12.349 12.053 12.3206 11.8446 12.3206 11.6268C12.3206 10.0643 13.6369 8.17987 15.7581 6.96775C15.7675 6.95828 15.7676 6.94879 15.777 6.94879ZM8.77892 6.39954C8.95885 3.55863 10.4929 1.33328 12.2638 1.33328C14.0062 1.33328 15.4455 3.35981 15.7202 6.03026C15.5971 6.09655 15.4645 6.16281 15.3319 6.23857C12.5952 7.82001 11.0706 10.4621 11.6009 12.4791C11.5156 12.4602 11.4399 12.4317 11.3546 12.3939C11.2694 12.356 11.1842 12.3181 11.1084 12.2708C11.099 12.2708 11.0895 12.2613 11.08 12.2519C11.0043 12.214 10.938 12.1666 10.8717 12.1193C10.8527 12.1098 10.8433 12.1003 10.8243 12.0813C10.8054 12.0719 10.7865 12.053 10.7675 12.0435C10.6728 11.9772 10.5876 11.9014 10.5024 11.8067C10.4929 11.8067 10.4834 11.7973 10.4645 11.7784C10.3793 11.7026 10.3035 11.6174 10.2278 11.5321C10.2278 11.5321 10.2183 11.5227 10.2183 11.5132C10.1993 11.4848 10.1804 11.4753 10.1615 11.4469C10.1046 11.3901 10.0573 11.3333 10.0005 11.267V11.2575L9.97211 11.2196C9.95317 11.2007 9.9342 11.1817 9.9342 11.1533C9.86791 11.0492 9.79218 10.9356 9.72589 10.8219C9.56491 10.5757 9.43229 10.2916 9.32812 10.0075C9.26183 9.85597 9.20502 9.70446 9.15767 9.54348C9.11033 9.4109 9.06298 9.28781 9.04404 9.14577C9.0251 9.09842 9.00618 9.04162 9.00618 8.9848C8.96831 8.85222 8.93992 8.71966 8.91151 8.57761C8.85469 8.25564 8.80734 7.91473 8.7884 7.57383C8.76946 7.37496 8.75996 7.17609 8.75996 6.96775C8.7789 6.77836 8.77892 6.58893 8.77892 6.39954ZM1.75237 9.18363C1.54404 8.43552 1.61033 7.73477 1.9323 7.17606C2.43419 6.30485 3.4948 5.85981 4.7732 5.85981C5.74858 5.85981 6.84708 6.10602 7.92663 6.62686V6.95827C7.92663 7.37494 7.95505 7.77264 8.0024 8.17036C8.01187 8.25559 8.03079 8.34083 8.04026 8.41658C8.0592 8.55863 8.07815 8.71017 8.11603 8.85221C8.23914 9.49615 8.43798 10.0927 8.68419 10.623C8.75048 10.7556 8.81679 10.8882 8.88307 11.0207V11.0302H8.89255C8.95884 11.1628 9.04406 11.2954 9.11982 11.4185C9.29027 11.6742 9.4702 11.9204 9.6596 12.1287C9.66907 12.1382 9.67851 12.1571 9.68797 12.1666C9.75426 12.2424 9.82057 12.3086 9.88686 12.3749C9.97209 12.4507 10.0479 12.517 10.1331 12.5927C10.2088 12.6496 10.2846 12.7064 10.3603 12.7632C10.4456 12.8295 10.5308 12.8863 10.6066 12.9431C10.616 12.9431 10.6255 12.9526 10.6349 12.9621C10.6444 12.9621 10.6444 12.9621 10.6444 12.9621C10.8622 13.0947 11.0895 13.1988 11.3168 13.2745C10.9948 13.5965 10.5592 13.8238 10.0383 13.9659C9.81108 14.0227 9.57434 14.07 9.3376 14.0889C8.03078 14.2215 6.48725 13.8427 5.04786 13.0283C5.04786 13.0188 5.03838 13.0189 5.03838 13.0189C4.7827 12.8674 4.52704 12.6969 4.2903 12.517C3.00242 11.6079 2.07434 10.3863 1.75237 9.18363ZM8.65581 19.0416C8.39066 19.2026 8.11605 19.3352 7.84143 19.4583C6.39257 20.1022 4.88688 20.3011 3.6937 19.9791C2.9456 19.7802 2.37738 19.3731 2.05541 18.8143C1.73344 18.2556 1.6672 17.5643 1.86606 16.8068C2.18803 15.6325 3.06867 14.4488 4.3092 13.5397C4.41337 13.606 4.52704 13.6723 4.64067 13.7385C6.00431 14.5245 7.47211 14.9412 8.7884 14.9507H8.83574C9.16718 14.9507 9.48916 14.9223 9.79219 14.8749C9.95317 14.8465 10.1141 14.8181 10.2562 14.7708C10.7865 14.6287 11.241 14.4014 11.6198 14.1079C11.7619 14.0037 11.8944 13.8806 12.0081 13.748C12.0649 13.9374 12.0933 14.1458 12.0933 14.3541C12.0933 14.7708 11.9986 15.1969 11.8281 15.642C11.3452 16.8636 10.2183 18.1135 8.66529 19.0132C8.66529 19.0321 8.66528 19.0416 8.65581 19.0416ZM15.6633 19.0226C15.6633 19.3067 15.6444 19.5814 15.6255 19.8465C15.3793 22.5643 13.9209 24.6476 12.169 24.6476C10.4266 24.6476 8.98725 22.6211 8.71263 19.9507C8.83573 19.8844 8.96828 19.8181 9.10086 19.7424C10.5497 18.909 11.6387 17.8011 12.2921 16.6552C12.4721 16.3333 12.6141 16.0018 12.7278 15.6799C12.8888 15.2064 12.9645 14.7329 12.9455 14.2783C12.9455 14.0132 12.9077 13.748 12.8414 13.5018C13.4853 13.6912 14.0725 14.1742 14.527 14.8654C15.2183 15.8692 15.6539 17.3086 15.6823 18.909V19.0226H15.6633ZM22.491 18.8143C22.0365 19.6003 21.1274 20.0548 19.9153 20.1306C18.8263 20.1779 17.6236 19.9128 16.4778 19.3635C16.4967 19.2594 16.4967 19.1363 16.4967 19.0321C16.4967 17.4886 16.1274 16.0681 15.5308 14.9507C15.3604 14.6477 15.1804 14.3636 14.9816 14.1174C14.6312 13.6628 14.224 13.2935 13.7789 13.0283C13.5611 12.8957 13.3433 12.7916 13.1066 12.7159C13.5706 12.2424 14.2713 11.9677 15.0857 11.8825C16.3452 11.7689 17.8887 12.1287 19.3565 12.9715H19.366C19.6312 13.1325 19.8963 13.2935 20.1331 13.4734C21.099 14.1647 21.866 15.0264 22.33 15.9355C22.8888 17.0151 22.9456 18.0378 22.491 18.8143Z" fill="#292F2F" stroke="black" stroke-width="0.2"/>
<path d="M20.1236 12.4602C20.0194 12.3844 19.9058 12.3181 19.7922 12.2519C18.4096 11.4469 16.9513 11.0587 15.6445 11.0492C15.2941 11.0492 14.9627 11.0776 14.6407 11.1344C13.7316 11.2859 12.9456 11.6647 12.4058 12.2519C12.3584 12.053 12.3301 11.8446 12.3301 11.6268C12.3301 10.0643 13.6464 8.17987 15.7676 6.96775C15.777 6.96775 15.777 6.95827 15.7865 6.95827C16.0516 6.79728 16.3263 6.66471 16.6009 6.5416C17.6142 6.08706 18.6369 5.86923 19.546 5.86923C20.8244 5.86923 21.885 6.31432 22.3964 7.18553C23.2486 8.65333 22.2354 10.8882 20.1236 12.4602Z" fill="#0000FF" stroke="black" stroke-width="0.2"/>
<path d="M22.491 18.8143C22.0365 19.6003 21.1274 20.0548 19.9153 20.1306C18.8263 20.1779 17.6236 19.9128 16.4778 19.3635C16.4967 19.2594 16.4967 19.1363 16.4967 19.0321C16.4967 17.4885 16.1274 16.0681 15.5308 14.9507C15.3604 14.6476 15.1804 14.3635 14.9815 14.1173C14.6312 13.6628 14.224 13.2934 13.7789 13.0283C13.5611 12.8957 13.3433 12.7916 13.1066 12.7158C13.5706 12.2424 14.2713 11.9677 15.0857 11.8825C16.3452 11.7689 17.8887 12.1287 19.3565 12.9715H19.366C19.6312 13.1325 19.8963 13.2935 20.1331 13.4734C21.099 14.1647 21.866 15.0264 22.33 15.9355C22.8887 17.015 22.9455 18.0378 22.491 18.8143Z" fill="#8624DB" stroke="black" stroke-width="0.2"/>
<path d="M15.6634 18.909V19.0226C15.6634 19.3067 15.6444 19.5814 15.6255 19.8465C15.3793 22.5643 13.9209 24.6476 12.169 24.6476C10.4266 24.6476 8.98727 22.6211 8.71265 19.9507C8.83575 19.8844 8.9683 19.8181 9.10088 19.7424C10.5497 18.909 11.6388 17.8011 12.2922 16.6552C12.4721 16.3333 12.6141 16.0018 12.7278 15.6799C12.8888 15.2064 12.9645 14.7329 12.9456 14.2783C12.9456 14.0132 12.9077 13.748 12.8414 13.5018C13.4854 13.6912 14.0725 14.1742 14.527 14.8654C15.2089 15.8692 15.6444 17.3086 15.6634 18.909Z" fill="#FF0000" stroke="black" stroke-width="0.2"/>
<path d="M12.1122 14.3731C12.1122 14.7897 12.0175 15.2158 11.8471 15.6609C11.3641 16.8825 10.2372 18.1325 8.68419 19.0321C8.67472 19.0321 8.67476 19.0416 8.66529 19.0416C8.40014 19.2026 8.12548 19.3352 7.85085 19.4583C6.40199 20.1022 4.89637 20.3011 3.70318 19.9791C2.95508 19.7802 2.38686 19.3731 2.06489 18.8143C1.74292 18.2556 1.67662 17.5643 1.87548 16.8068C2.19745 15.6325 3.07815 14.4488 4.31868 13.5397C4.42285 13.606 4.53652 13.6723 4.65015 13.7385C6.01379 14.5245 7.48154 14.9412 8.79782 14.9507H8.84522C9.17666 14.9507 9.49858 14.9223 9.80161 14.8749C9.96259 14.8465 10.1236 14.8181 10.2657 14.7708C10.796 14.6287 11.2505 14.4014 11.6293 14.1079C11.7714 14.0037 11.9039 13.8806 12.0175 13.748C12.0838 13.9564 12.1122 14.1647 12.1122 14.3731Z" fill="#0000FF" stroke="black" stroke-width="0.2"/>
<path d="M11.3358 13.2745C11.0138 13.5965 10.5782 13.8238 10.0573 13.9659C9.83004 14.0227 9.59331 14.07 9.35657 14.0889C8.04975 14.2215 6.50617 13.8427 5.06677 13.0283C5.06677 13.0189 5.05735 13.0189 5.05735 13.0189C4.80167 12.8674 4.54595 12.6969 4.30921 12.517C3.00239 11.5984 2.07436 10.3769 1.76186 9.17421C1.55353 8.42611 1.61982 7.7253 1.94179 7.16658C2.44368 6.29537 3.50429 5.85034 4.78269 5.85034C5.75807 5.85034 6.85657 6.09655 7.93612 6.61738V6.9488C7.93612 7.36547 7.96454 7.76322 8.01189 8.16095C8.02136 8.24618 8.04028 8.33135 8.04975 8.40711C8.06869 8.54916 8.08764 8.70069 8.12552 8.84274C8.24863 9.48668 8.44747 10.0833 8.69368 10.6136C8.75997 10.7461 8.82628 10.8787 8.89256 11.0113V11.0208H8.90204C8.96833 11.1533 9.05355 11.2859 9.12931 11.409C9.29976 11.6647 9.47969 11.9109 9.66909 12.1193C9.67856 12.1287 9.68799 12.1477 9.69746 12.1571C9.76375 12.2329 9.83006 12.2992 9.89635 12.3655C9.98158 12.4412 10.0573 12.5075 10.1426 12.5833C10.2183 12.6401 10.2941 12.6969 10.3698 12.7537C10.4551 12.82 10.5403 12.8768 10.6161 12.9336C10.6255 12.9336 10.635 12.9431 10.6444 12.9526C10.6539 12.9526 10.6539 12.9526 10.6539 12.9526C10.8717 13.1041 11.099 13.1988 11.3358 13.2745Z" fill="#8624DB" stroke="black" stroke-width="0.2"/>
<path d="M15.7297 6.03027C15.6066 6.09656 15.474 6.16282 15.3414 6.23857C12.6047 7.82001 11.0801 10.4621 11.6104 12.4791C11.5251 12.4602 11.4494 12.4318 11.3642 12.3939C11.2789 12.356 11.1937 12.3181 11.1179 12.2708C11.1085 12.2708 11.099 12.2613 11.0896 12.2519C11.0138 12.214 10.9475 12.1666 10.8812 12.1193C10.8623 12.1098 10.8528 12.1003 10.8339 12.0814C10.8149 12.0719 10.796 12.053 10.777 12.0435C10.6823 11.9772 10.5971 11.9015 10.5119 11.8068C10.5024 11.8068 10.4929 11.7973 10.474 11.7784C10.3888 11.7026 10.313 11.6174 10.2373 11.5322C10.2373 11.5322 10.2278 11.5227 10.2278 11.5132C10.2088 11.4848 10.1899 11.4753 10.171 11.4469C10.1141 11.3901 10.0668 11.3333 10.01 11.267V11.2575L9.98156 11.2196C9.96262 11.2007 9.9437 11.1818 9.9437 11.1533C9.87741 11.0492 9.80168 10.9356 9.7354 10.8219C9.57441 10.5757 9.44179 10.2916 9.33763 10.0075C9.27134 9.85598 9.21453 9.70447 9.16718 9.54349C9.11983 9.41091 9.07249 9.28782 9.05355 9.14578C9.03461 9.09843 9.01569 9.04163 9.01569 8.98481C8.97781 8.85223 8.94937 8.71966 8.92096 8.57762C8.86414 8.25565 8.81679 7.91474 8.79785 7.57383C8.77891 7.37497 8.76947 7.17609 8.76947 6.96776C8.76947 6.77836 8.77895 6.57947 8.77895 6.39954C8.95887 3.55864 10.493 1.33328 12.2638 1.33328C14.0062 1.34275 15.4456 3.36929 15.7297 6.03027Z" fill="#FF0000" stroke="black" stroke-width="0.2"/>
</svg>
