<svg width="6" height="9" viewBox="0 0 6 9" fill="none" xmlns="http://www.w3.org/2000/svg">
<path d="M2.62 2.48999C3.11 2.48999 3.51001 2.09001 3.51001 1.60001C3.51001 1.11001 3.11 0.709991 2.62 0.709991C2.13 0.709991 1.72998 1.11001 1.72998 1.60001C1.72998 2.09001 2.13 2.48999 2.62 2.48999Z" fill="black"/>
<path d="M4.85996 4.04998C4.44996 4.02998 4.06998 3.91998 3.74998 3.70998C3.42998 3.49998 3.17998 3.17999 2.99998 2.80999C2.95998 2.71999 2.84995 2.67 2.71995 2.67C2.66995 2.66 2.61999 2.66999 2.56999 2.68999C2.11999 2.90999 1.7 3.24999 1.4 3.68999C1.11 4.13999 0.96999 4.67 0.94999 5.17C0.93999 5.35 1.10998 5.49 1.30998 5.48C1.50998 5.47 1.66996 5.34998 1.66996 5.20998C1.67996 4.79998 1.78998 4.41999 1.99998 4.09999C2.10998 3.92999 2.24995 3.78999 2.40995 3.65999C2.44995 3.92999 2.47996 4.21 2.47996 4.48C2.47996 4.87 2.43995 5.25999 2.34995 5.62999C2.15995 6.36999 1.72995 7.01998 1.09995 7.42998C1.03995 7.46998 1 7.50998 0.96 7.54998C0.92 7.58998 0.879964 7.63999 0.859964 7.68999C0.809964 7.78999 0.800005 7.89998 0.840005 7.98998C0.880005 8.07998 0.969954 8.13 1.09995 8.14C1.15995 8.15 1.22997 8.13998 1.29997 8.11998C1.36997 8.09998 1.43999 8.06998 1.50999 8.01998C1.89999 7.76998 2.23998 7.42998 2.49998 7.04998C2.68998 6.77998 2.82998 6.48 2.93998 6.17C3.06998 6.34 3.17999 6.51999 3.25999 6.71999C3.38999 7.07999 3.4 7.47999 3.33 7.87999C3.31 8.01999 3.42998 8.17 3.62998 8.23C3.81998 8.28 4.01997 8.19 4.04997 8.01C4.13997 7.52 4.12999 6.97999 3.94999 6.46999C3.78999 6.01999 3.49995 5.62997 3.15995 5.32997C3.19995 5.03997 3.21995 4.74 3.21995 4.45C3.21995 4.36 3.22 4.26998 3.21 4.17998C3.26 4.21998 3.30996 4.26 3.35996 4.29C3.79996 4.59 4.33 4.72999 4.83 4.74999C5.00999 4.75999 5.14999 4.59 5.13999 4.39C5.11999 4.22 4.99996 4.05998 4.85996 4.04998Z" fill="black"/>
</svg>
