<svg width="9" height="10" viewBox="0 0 9 10" fill="none" xmlns="http://www.w3.org/2000/svg">
<path d="M8.71997 7.51007L6.94 5.72003L6.96002 5.69006C7.02002 5.62006 7.06 5.53006 7.06 5.44006C7.06 5.34006 7.02001 5.25004 6.95001 5.17004L6.42999 4.65009C6.35999 4.58009 6.26997 4.54004 6.15997 4.54004C6.05997 4.54004 5.96997 4.58008 5.90997 4.64008L5.88 4.66003L5.53998 4.32007L5.54999 4.30005C5.66999 3.92005 5.56999 3.50003 5.29999 3.22003L4.42999 2.35004L4.44 2.33008C4.48 2.17008 4.44001 2.00007 4.32001 1.88007L4.22998 1.79004C4.13998 1.70004 4.03002 1.65009 3.90002 1.65009C3.77002 1.65009 3.66001 1.70004 3.57001 1.79004L1.46997 3.90009C1.37997 3.99009 1.33002 4.10004 1.33002 4.23004C1.33002 4.36004 1.37997 4.47006 1.46997 4.56006L1.56 4.65009C1.65 4.74009 1.76001 4.79004 1.89001 4.79004C1.93001 4.79004 1.97001 4.78008 2.01001 4.77008L2.03003 4.76007L2.90002 5.63007C3.10002 5.83007 3.36001 5.94006 3.64001 5.94006C3.75001 5.94006 3.85997 5.92008 3.96997 5.89008L3.98999 5.88007L7.15997 9.05005C7.24997 9.14005 7.37 9.19006 7.5 9.19006C7.63 9.19006 7.75003 9.14005 7.84003 9.05005L8.71997 8.17004C8.90997 8.00004 8.90997 7.69007 8.71997 7.51007ZM6.09003 4.98004L6.15997 4.91003L6.16998 4.90009C6.17998 4.90009 6.17999 4.90003 6.17999 4.91003L6.70001 5.43005C6.71001 5.44005 6.71001 5.45008 6.70001 5.46008L6.63 5.53009C6.62 5.54009 6.60998 5.54009 6.59998 5.53009L6.08002 5.01007V4.98004H6.09003ZM1.96002 4.41003C1.92002 4.45003 1.85 4.45003 1.81 4.41003L1.71997 4.32007C1.69997 4.30007 1.69 4.27005 1.69 4.24005C1.69 4.21005 1.69997 4.18003 1.71997 4.16003L3.83002 2.06006C3.85002 2.04006 3.87997 2.03009 3.90997 2.03009C3.93997 2.03009 3.96999 2.04006 3.98999 2.06006L4.08002 2.15009C4.12002 2.19009 4.12002 2.26005 4.08002 2.30005L1.96002 4.41003ZM4.07001 5.46008C4.03001 5.49008 3.99001 5.51009 3.95001 5.53009C3.91001 5.55009 3.86 5.57008 3.81 5.58008C3.76 5.59008 3.70001 5.60004 3.64001 5.60004C3.45001 5.60004 3.28002 5.53009 3.15002 5.40009L2.25 4.50006L4.15002 2.60004L5.04999 3.50006C5.17999 3.63006 5.25 3.81005 5.25 3.99005C5.25 4.05005 5.23998 4.10003 5.22998 4.16003C5.21998 4.21003 5.19999 4.25005 5.17999 4.30005C5.15999 4.34005 5.13999 4.38003 5.10999 4.41003C5.08999 4.44003 5.06998 4.46005 5.03998 4.49005L4.13 5.40009C4.12 5.42009 4.09001 5.44008 4.07001 5.46008ZM4.25 5.65009C4.28 5.63009 4.30002 5.61008 4.33002 5.58008L5.23999 4.67004C5.25999 4.64004 5.29 4.62009 5.31 4.59009L5.90997 5.19006L6.42999 5.71008L8.02002 7.30005L6.96997 8.35004L4.25 5.65009ZM8.46997 7.93005L7.59003 8.81006C7.54003 8.86006 7.46998 8.86006 7.41998 8.81006L7.14001 8.53009L8.19 7.48004L8.46997 7.76007C8.48997 7.78007 8.51001 7.81004 8.51001 7.85004C8.51001 7.88004 8.48997 7.91005 8.46997 7.93005Z" fill="black"/>
<path d="M4.95004 3.85006C4.92004 3.88006 4.89001 3.8901 4.86001 3.8901C4.83001 3.8901 4.79004 3.87006 4.77004 3.85006L4.1 3.19009C4.05 3.14009 4.05 3.0601 4.1 3.0101C4.15 2.9601 4.23005 2.9601 4.28005 3.0101L4.94003 3.68008C5.00003 3.72008 5.00004 3.80006 4.95004 3.85006Z" fill="black"/>
<path d="M7.63003 7.37008C7.60003 7.40008 7.57 7.41006 7.54 7.41006C7.51 7.41006 7.47004 7.40008 7.45004 7.37008L5.28005 5.2001C5.23005 5.1501 5.23005 5.0701 5.28005 5.0201C5.33005 4.9701 5.41005 4.9701 5.46005 5.0201L7.63003 7.19009C7.68003 7.24009 7.68003 7.32008 7.63003 7.37008Z" fill="black"/>
<path d="M4.95004 3.85006C4.92004 3.88006 4.89001 3.8901 4.86001 3.8901C4.83001 3.8901 4.79004 3.87006 4.77004 3.85006L4.1 3.19009C4.05 3.14009 4.05 3.0601 4.1 3.0101C4.15 2.9601 4.23005 2.9601 4.28005 3.0101L4.94003 3.68008C5.00003 3.72008 5.00004 3.80006 4.95004 3.85006Z" fill="black"/>
<path d="M2.09005 2.57009C2.06005 2.57009 2.02002 2.56011 2.00002 2.53011L0.890039 1.42007C0.840039 1.37007 0.840039 1.29008 0.890039 1.24008C0.940039 1.19008 1.02003 1.19008 1.07003 1.24008L2.18002 2.35006C2.23002 2.40006 2.23002 2.48011 2.18002 2.53011C2.16002 2.55011 2.13005 2.57009 2.09005 2.57009Z" fill="black"/>
<path d="M2.65002 2.20007C2.58002 2.20007 2.52002 2.14007 2.52002 2.07007V0.840088C2.52002 0.770088 2.58002 0.710083 2.65002 0.710083C2.72002 0.710083 2.78003 0.770088 2.78003 0.840088V2.07007C2.78003 2.14007 2.73002 2.20007 2.65002 2.20007Z" fill="black"/>
<path d="M1.73999 3.15009H0.51001C0.44001 3.15009 0.380005 3.09008 0.380005 3.02008C0.380005 2.95008 0.44001 2.89008 0.51001 2.89008H1.73999C1.80999 2.89008 1.87 2.95008 1.87 3.02008C1.87 3.09008 1.81999 3.15009 1.73999 3.15009Z" fill="black"/>
</svg>
