<svg width="8" height="8" viewBox="0 0 8 8" fill="none" xmlns="http://www.w3.org/2000/svg">
<path d="M4.28003 5.51999C3.29003 5.51999 2.47998 4.71 2.47998 3.72C2.47998 2.73 3.29003 1.92001 4.28003 1.92001C5.27003 1.92001 6.08002 2.73 6.08002 3.72C6.08002 4.71 5.28003 5.51999 4.28003 5.51999ZM4.28003 2.23999C3.46003 2.23999 2.79999 2.91 2.79999 3.72C2.79999 4.54 3.47003 5.20001 4.28003 5.20001C5.10003 5.20001 5.76001 4.53 5.76001 3.72C5.77001 2.9 5.10003 2.23999 4.28003 2.23999Z" fill="black"/>
<path d="M2.88999 2.14999C2.93999 2.19999 2.92998 2.27999 2.87998 2.32999C2.82998 2.37999 2.74998 2.37001 2.69998 2.32001L1.76999 1.26001C1.71999 1.21001 1.73 1.12999 1.78 1.07999C1.83 1.02999 1.90999 1.04 1.95999 1.09L2.88999 2.14999Z" fill="black"/>
<path d="M4.40997 1.57999C4.40997 1.64999 4.35998 1.70999 4.28998 1.70999C4.21998 1.70999 4.15997 1.66 4.15997 1.59L4.15002 0.179993C4.15002 0.109993 4.21002 0.0499878 4.27002 0.0499878C4.34002 0.0499878 4.40002 0.100013 4.40002 0.170013L4.40997 1.57999Z" fill="black"/>
<path d="M2.15002 3.38C2.22002 3.39 2.27 3.45 2.26 3.51C2.25 3.58 2.19 3.62999 2.13 3.61999L0.719963 3.51C0.649963 3.5 0.599978 3.44 0.609978 3.38C0.619978 3.31 0.679983 3.25998 0.739983 3.26998L2.15002 3.38Z" fill="black"/>
<path d="M2.38001 4.70999C2.44001 4.66999 2.51999 4.68999 2.54999 4.74999C2.58999 4.80999 2.57001 4.89001 2.51001 4.92001L1.32001 5.67001C1.26001 5.71001 1.18003 5.69 1.15003 5.63C1.11003 5.57 1.13001 5.48999 1.19001 5.45999L2.38001 4.70999Z" fill="black"/>
<path d="M3.43999 5.64002C3.45999 5.58002 3.53996 5.54002 3.59996 5.57002C3.65996 5.59002 3.69997 5.67002 3.66997 5.73002L3.16997 7.05C3.14997 7.11 3.07 7.15 3.01 7.12C2.94 7.1 2.90999 7.02 2.93999 6.96L3.43999 5.64002Z" fill="black"/>
<path d="M6.14001 4.98C6.08001 4.95 6.06002 4.86999 6.09002 4.80999C6.12002 4.74999 6.2 4.73 6.26 4.76L7.51 5.42001C7.57 5.45001 7.58999 5.52999 7.55999 5.58999C7.52999 5.64999 7.45001 5.67001 7.39001 5.64001L6.14001 4.98Z" fill="black"/>
<path d="M6.41998 3.45998C6.34998 3.46998 6.29002 3.42 6.28002 3.35C6.27002 3.28 6.32001 3.21998 6.39001 3.20998L7.78997 3.04998C7.85997 3.03998 7.91999 3.09 7.92999 3.16C7.93999 3.23 7.89 3.28998 7.82 3.29998L6.41998 3.45998Z" fill="black"/>
<path d="M5.49998 6.97001C5.51998 7.03001 5.48996 7.11001 5.41996 7.13001C5.34996 7.15001 5.27999 7.12 5.25999 7.05L4.78996 5.72001C4.76996 5.66001 4.79997 5.58001 4.86997 5.56001C4.93997 5.54001 5.01001 5.57002 5.03001 5.64002L5.49998 6.97001Z" fill="black"/>
<path d="M5.72996 2.18999C5.68996 2.23999 5.60997 2.24998 5.54997 2.20998C5.49997 2.16998 5.49001 2.08998 5.53001 2.02998L6.4 0.919999C6.44 0.869999 6.52 0.85998 6.58 0.89998C6.63 0.93998 6.63995 1.01997 6.59995 1.07997L5.72996 2.18999Z" fill="black"/>
</svg>
