<svg width="29" height="30" viewBox="0 0 29 30" fill="none" xmlns="http://www.w3.org/2000/svg">
<rect y="0.990051" width="28.39" height="28.39" rx="3" fill="black"/>
<path d="M25.6658 17.8801C25.1558 16.8801 24.3357 15.9301 23.3057 15.1401C25.7257 13.2201 26.7957 10.49 25.7057 8.60004C25.0157 7.40004 23.5958 6.78003 21.9058 6.78003C20.9058 6.78003 19.8257 7.01007 18.7357 7.45007C18.3157 4.34007 16.4657 1.99005 14.2457 1.99005C12.0257 1.99005 10.1657 4.33003 9.74573 7.53003C6.73573 6.20003 3.72574 6.63004 2.57574 8.60004C2.11574 9.40004 2.01578 10.3601 2.29578 11.3901C2.66578 12.7801 3.67575 14.1501 5.08575 15.2401C3.73575 16.3001 2.76576 17.6401 2.40576 18.9901C2.13576 20.0201 2.23574 20.98 2.69574 21.77C3.14574 22.57 3.93575 23.14 4.95575 23.42C5.42575 23.54 5.93576 23.6 6.46576 23.6C7.48576 23.6 8.57576 23.3701 9.65576 22.9301C10.0758 26.0401 11.9258 28.3801 14.1458 28.3801C16.3758 28.3801 18.2357 25.99 18.6357 22.84C19.7757 23.35 20.9358 23.6 22.0358 23.6C22.1458 23.6 22.2557 23.6 22.3757 23.59C23.9657 23.51 25.1757 22.87 25.8157 21.77C26.4457 20.69 26.3858 19.3001 25.6658 17.8801ZM17.9557 8.81006C18.2357 8.64006 18.5257 8.50005 18.8157 8.36005C19.8857 7.89005 20.9757 7.65002 21.9357 7.65002C23.2857 7.65002 24.4057 8.12004 24.9457 9.04004C25.8457 10.61 24.7758 12.9601 22.5458 14.6201C22.4258 14.5401 22.3157 14.47 22.1857 14.4C20.8857 13.64 19.5157 13.23 18.2657 13.15C17.7157 12.05 16.7258 11.2 15.5258 10.83C16.1358 10.07 16.9557 9.37006 17.9357 8.81006C17.9457 8.81006 17.9457 8.81006 17.9557 8.81006ZM17.7557 15.1901C17.7557 15.7501 17.6258 16.2801 17.3958 16.7401C17.2558 17.0301 17.0758 17.3 16.8558 17.53C16.2658 18.22 15.4057 18.67 14.4357 18.73C14.3557 18.74 14.2757 18.7401 14.1957 18.7401C13.9457 18.7401 13.7058 18.71 13.4658 18.67C12.5658 18.48 11.7858 17.95 11.2758 17.22C11.0958 16.96 10.9458 16.6701 10.8358 16.3701C10.7058 16.0001 10.6357 15.6001 10.6357 15.1901C10.6357 14.6301 10.7657 14.1001 10.9957 13.6301C11.1457 13.3401 11.3258 13.0601 11.5458 12.8201C12.1458 12.1401 13.0157 11.6901 13.9857 11.6401C14.0557 11.6301 14.1257 11.6301 14.1957 11.6301C14.4457 11.6301 14.6857 11.6601 14.9257 11.7001C15.8257 11.8901 16.6157 12.43 17.1257 13.17C17.2957 13.42 17.4458 13.7001 17.5458 14.0001C17.6858 14.3701 17.7557 14.7701 17.7557 15.1901ZM10.5657 8.22003C10.7657 5.22003 12.3757 2.88007 14.2457 2.88007C16.0857 2.88007 17.6058 5.02002 17.9058 7.83002C17.7658 7.91002 17.6257 7.98006 17.4957 8.06006C16.2657 8.77006 15.2657 9.67002 14.5757 10.65C14.4557 10.64 14.3257 10.6301 14.1957 10.6301C13.0057 10.6301 11.9058 11.09 11.0958 11.86C11.0458 11.76 11.0157 11.66 10.9857 11.55C10.9357 11.41 10.8857 11.2801 10.8657 11.1301C10.8457 11.0701 10.8257 11.02 10.8157 10.96C10.7857 10.82 10.7458 10.68 10.7158 10.53C10.6558 10.18 10.6058 9.83003 10.5858 9.47003C10.5658 9.26003 10.5657 9.04007 10.5657 8.82007V8.22003ZM3.14575 11.16C2.92575 10.37 2.99576 9.63004 3.34576 9.04004C3.87576 8.13004 4.99576 7.66003 6.34576 7.66003C7.37576 7.66003 8.53572 7.92003 9.67572 8.47003V8.82007C9.67572 9.26007 9.70574 9.69004 9.75574 10.1C9.76574 10.19 9.78573 10.2801 9.80573 10.3701C9.81573 10.5201 9.84574 10.68 9.88574 10.83C10.0057 11.47 10.2057 12.06 10.4457 12.6C9.93574 13.33 9.63574 14.2301 9.63574 15.1901C9.63574 15.5801 9.68577 15.9601 9.78577 16.3201C8.76577 16.1901 7.67575 15.82 6.64575 15.23C6.64575 15.22 6.63574 15.22 6.63574 15.22C6.36574 15.06 6.09575 14.8801 5.83575 14.6901C4.46575 13.7201 3.48575 12.43 3.14575 11.16ZM10.4357 21.5701C10.1557 21.7401 9.86574 21.8801 9.57574 22.0101C8.03574 22.6901 6.44573 22.9001 5.18573 22.5601C4.39573 22.3501 3.79575 21.92 3.45575 21.33C3.11575 20.74 3.04574 20.01 3.25574 19.22C3.59574 17.98 4.52575 16.73 5.83575 15.77C5.95575 15.84 6.06574 15.91 6.19574 15.98C7.48574 16.72 8.85573 17.1501 10.1257 17.2401C10.6857 18.3301 11.6658 19.17 12.8558 19.54C12.2558 20.29 11.4357 20.9901 10.4557 21.5601C10.4457 21.5601 10.4457 21.5701 10.4357 21.5701ZM17.8358 21.55C17.8358 21.85 17.8258 22.1501 17.7958 22.4301C17.5358 25.3001 15.9958 27.5001 14.1458 27.5001C12.3058 27.5001 10.7857 25.36 10.4857 22.54C10.6257 22.47 10.7658 22.4001 10.8958 22.3201C12.1458 21.6001 13.1458 20.7 13.8358 19.72C13.9558 19.74 14.0757 19.7401 14.1957 19.7401C15.3957 19.7401 16.4957 19.2701 17.3157 18.5001C17.6357 19.3601 17.8258 20.3601 17.8358 21.4301V21.55V21.55ZM25.0458 21.33C24.5758 22.16 23.6058 22.65 22.3358 22.72C21.1858 22.77 19.9157 22.49 18.7057 21.91C18.7257 21.79 18.7258 21.67 18.7258 21.55C18.7258 20.15 18.4357 18.8401 17.9557 17.7601C18.4657 17.0301 18.7557 16.1501 18.7557 15.1901C18.7557 14.8001 18.7058 14.41 18.6058 14.05C19.6158 14.19 20.6957 14.56 21.7357 15.16H21.7457C22.0357 15.33 22.3057 15.5001 22.5557 15.6901C23.5857 16.4201 24.3857 17.33 24.8757 18.29C25.4657 19.43 25.5258 20.51 25.0458 21.33Z" fill="white"/>
<path d="M17.7557 15.1901C17.7557 15.7501 17.6258 16.2801 17.3958 16.7401C17.2558 17.0301 17.0758 17.3 16.8558 17.53C16.2658 18.22 15.4057 18.67 14.4357 18.73C14.3557 18.74 14.2757 18.7401 14.1957 18.7401C13.9457 18.7401 13.7058 18.71 13.4658 18.67C12.5658 18.48 11.7858 17.95 11.2758 17.22C11.0958 16.96 10.9458 16.6701 10.8358 16.3701C10.7058 16.0001 10.6357 15.6001 10.6357 15.1901C10.6357 14.6301 10.7657 14.1001 10.9957 13.6301C11.1457 13.3401 11.3258 13.0601 11.5458 12.8201C12.1458 12.1401 13.0157 11.6901 13.9857 11.6401C14.0557 11.6301 14.1257 11.6301 14.1957 11.6301C14.4457 11.6301 14.6857 11.6601 14.9257 11.7001C15.8257 11.8901 16.6157 12.43 17.1257 13.17C17.2957 13.42 17.4458 13.7001 17.5458 14.0001C17.6858 14.3701 17.7557 14.7701 17.7557 15.1901Z" fill="#1D1D1B"/>
<path d="M12.8558 19.54C12.2558 20.29 11.4358 20.9901 10.4558 21.5601C10.4458 21.5601 10.4457 21.5701 10.4357 21.5701C10.1557 21.7401 9.86575 21.8801 9.57575 22.0101C8.03575 22.6901 6.44573 22.9001 5.18573 22.5601C4.39573 22.3501 3.79575 21.92 3.45575 21.33C3.11575 20.74 3.04574 20.01 3.25574 19.22C3.59574 17.98 4.52576 16.73 5.83576 15.77C5.95576 15.84 6.06574 15.91 6.19574 15.98C7.48574 16.72 8.85573 17.1501 10.1257 17.2401C10.6857 18.3301 11.6658 19.17 12.8558 19.54Z" fill="#1D1D1B"/>
<path d="M17.8358 21.4301V21.55C17.8358 21.85 17.8258 22.1501 17.7958 22.4301C17.5358 25.3001 15.9958 27.5001 14.1458 27.5001C12.3058 27.5001 10.7857 25.36 10.4857 22.54C10.6257 22.47 10.7658 22.4001 10.8958 22.3201C12.1458 21.6001 13.1458 20.7 13.8358 19.72C13.9558 19.74 14.0757 19.7401 14.1957 19.7401C15.3957 19.7401 16.4957 19.2701 17.3157 18.5001C17.6357 19.3601 17.8258 20.3601 17.8358 21.4301Z" fill="#1D1D1B"/>
<path d="M25.0458 21.33C24.5758 22.16 23.6058 22.65 22.3358 22.72C21.1858 22.77 19.9157 22.49 18.7057 21.91C18.7257 21.79 18.7258 21.67 18.7258 21.55C18.7258 20.15 18.4357 18.8401 17.9557 17.7601C18.4657 17.0301 18.7557 16.1501 18.7557 15.1901C18.7557 14.8001 18.7058 14.41 18.6058 14.05C19.6158 14.19 20.6957 14.56 21.7357 15.16H21.7457C22.0357 15.33 22.3057 15.5001 22.5557 15.6901C23.5857 16.4201 24.3857 17.33 24.8757 18.29C25.4657 19.43 25.5258 20.51 25.0458 21.33Z" fill="#1D1D1B"/>
<path d="M22.5458 14.6201C22.4258 14.5401 22.3157 14.47 22.1857 14.4C20.8857 13.64 19.5157 13.23 18.2657 13.15C17.7157 12.05 16.7258 11.2 15.5258 10.83C16.1358 10.07 16.9557 9.37006 17.9357 8.81006C17.9457 8.81006 17.9457 8.81006 17.9557 8.81006C18.2357 8.64006 18.5257 8.50005 18.8157 8.36005C19.8857 7.89005 20.9757 7.65002 21.9357 7.65002C23.2857 7.65002 24.4057 8.12004 24.9457 9.04004C25.8457 10.61 24.7758 12.9601 22.5458 14.6201Z" fill="#1D1D1B"/>
<path d="M17.9058 7.83002C17.7658 7.91002 17.6257 7.98006 17.4957 8.06006C16.2657 8.77006 15.2657 9.67002 14.5757 10.65C14.4557 10.64 14.3257 10.6301 14.1957 10.6301C13.0057 10.6301 11.9058 11.09 11.0958 11.86C11.0458 11.76 11.0157 11.66 10.9857 11.55C10.9357 11.41 10.8857 11.2801 10.8657 11.1301C10.8457 11.0701 10.8257 11.02 10.8157 10.96C10.7857 10.82 10.7458 10.68 10.7158 10.53C10.6558 10.18 10.6058 9.83003 10.5858 9.47003C10.5658 9.26003 10.5657 9.04007 10.5657 8.82007V8.22003C10.7657 5.22003 12.3757 2.88007 14.2457 2.88007C16.0857 2.88007 17.6058 5.02002 17.9058 7.83002Z" fill="#1D1D1B"/>
<path d="M9.63573 15.1901C9.63573 15.5801 9.68575 15.9601 9.78575 16.3201C8.76575 16.1901 7.67574 15.82 6.64574 15.23C6.64574 15.22 6.63573 15.22 6.63573 15.22C6.36573 15.06 6.09574 14.8801 5.83574 14.6901C4.46574 13.7201 3.48574 12.43 3.14574 11.16C2.92574 10.37 2.99575 9.63004 3.34575 9.04004C3.87575 8.13004 4.99575 7.66003 6.34575 7.66003C7.37575 7.66003 8.53571 7.92003 9.67571 8.47003V8.82007C9.67571 9.26007 9.70572 9.69004 9.75572 10.1C9.76572 10.19 9.78571 10.2801 9.80571 10.3701C9.81571 10.5201 9.84573 10.68 9.88573 10.83C10.0057 11.47 10.2057 12.06 10.4457 12.6C9.93573 13.33 9.63573 14.2301 9.63573 15.1901Z" fill="#1D1D1B"/>
</svg>
