<svg width="40" height="40" viewBox="0 0 40 40" fill="none" xmlns="http://www.w3.org/2000/svg">
<rect width="40" height="40" rx="4" fill="#00C9EA"/>
<path d="M21.9 14.22C20.55 14.22 19.46 13.12 19.46 11.78C19.46 10.44 20.55 9.34998 21.9 9.34998C23.24 9.34998 24.33 10.44 24.33 11.78C24.33 13.12 23.24 14.22 21.9 14.22Z" fill="#353535"/>
<path d="M12.9301 12.8C11.5901 12.8 10.4901 13.9 10.4901 15.24C10.4901 16.58 11.5901 17.67 12.9301 17.67C14.2701 17.67 15.36 16.58 15.36 15.24C15.36 13.9 14.2701 12.8 12.9301 12.8ZM12.9301 12.8C11.5901 12.8 10.4901 13.9 10.4901 15.24C10.4901 16.58 11.5901 17.67 12.9301 17.67C14.2701 17.67 15.36 16.58 15.36 15.24C15.36 13.9 14.2701 12.8 12.9301 12.8ZM11.29 21.86C9.95004 21.86 8.86005 22.95 8.86005 24.29C8.86005 25.64 9.95004 26.73 11.29 26.73C12.64 26.73 13.73 25.64 13.73 24.29C13.73 22.95 12.64 21.86 11.29 21.86ZM12.9301 12.8C11.5901 12.8 10.4901 13.9 10.4901 15.24C10.4901 16.58 11.5901 17.67 12.9301 17.67C14.2701 17.67 15.36 16.58 15.36 15.24C15.36 13.9 14.2701 12.8 12.9301 12.8ZM12.9301 12.8C11.5901 12.8 10.4901 13.9 10.4901 15.24C10.4901 16.58 11.5901 17.67 12.9301 17.67C14.2701 17.67 15.36 16.58 15.36 15.24C15.36 13.9 14.2701 12.8 12.9301 12.8ZM11.29 21.86C9.95004 21.86 8.86005 22.95 8.86005 24.29C8.86005 25.64 9.95004 26.73 11.29 26.73C12.64 26.73 13.73 25.64 13.73 24.29C13.73 22.95 12.64 21.86 11.29 21.86ZM11.29 21.86C9.95004 21.86 8.86005 22.95 8.86005 24.29C8.86005 25.64 9.95004 26.73 11.29 26.73C12.64 26.73 13.73 25.64 13.73 24.29C13.73 22.95 12.64 21.86 11.29 21.86ZM12.9301 12.8C11.5901 12.8 10.4901 13.9 10.4901 15.24C10.4901 16.58 11.5901 17.67 12.9301 17.67C14.2701 17.67 15.36 16.58 15.36 15.24C15.36 13.9 14.2701 12.8 12.9301 12.8ZM12.9301 12.8C11.5901 12.8 10.4901 13.9 10.4901 15.24C10.4901 16.58 11.5901 17.67 12.9301 17.67C14.2701 17.67 15.36 16.58 15.36 15.24C15.36 13.9 14.2701 12.8 12.9301 12.8ZM11.29 21.86C9.95004 21.86 8.86005 22.95 8.86005 24.29C8.86005 25.64 9.95004 26.73 11.29 26.73C12.64 26.73 13.73 25.64 13.73 24.29C13.73 22.95 12.64 21.86 11.29 21.86ZM11.29 21.86C9.95004 21.86 8.86005 22.95 8.86005 24.29C8.86005 25.64 9.95004 26.73 11.29 26.73C12.64 26.73 13.73 25.64 13.73 24.29C13.73 22.95 12.64 21.86 11.29 21.86ZM12.9301 12.8C11.5901 12.8 10.4901 13.9 10.4901 15.24C10.4901 16.58 11.5901 17.67 12.9301 17.67C14.2701 17.67 15.36 16.58 15.36 15.24C15.36 13.9 14.2701 12.8 12.9301 12.8ZM29.1801 14.16C27.8401 14.16 26.75 15.25 26.75 16.6C26.75 17.84 27.68 18.8599 28.88 19.0099L29.04 18.57C28.72 18.19 28.59 17.65 28.76 17.13C28.88 16.75 29.15 16.4399 29.51 16.2599C29.57 16.2299 29.6201 16.21 29.6801 16.19L30.26 14.41C29.93 14.25 29.5601 14.16 29.1801 14.16ZM12.9301 12.8C11.5901 12.8 10.4901 13.9 10.4901 15.24C10.4901 16.58 11.5901 17.67 12.9301 17.67C14.2701 17.67 15.36 16.58 15.36 15.24C15.36 13.9 14.2701 12.8 12.9301 12.8ZM11.29 21.86C9.95004 21.86 8.86005 22.95 8.86005 24.29C8.86005 25.64 9.95004 26.73 11.29 26.73C12.64 26.73 13.73 25.64 13.73 24.29C13.73 22.95 12.64 21.86 11.29 21.86ZM11.29 21.86C9.95004 21.86 8.86005 22.95 8.86005 24.29C8.86005 25.64 9.95004 26.73 11.29 26.73C12.64 26.73 13.73 25.64 13.73 24.29C13.73 22.95 12.64 21.86 11.29 21.86ZM12.9301 12.8C11.5901 12.8 10.4901 13.9 10.4901 15.24C10.4901 16.58 11.5901 17.67 12.9301 17.67C14.2701 17.67 15.36 16.58 15.36 15.24C15.36 13.9 14.2701 12.8 12.9301 12.8ZM31.63 18.32C31.69 18.28 31.75 18.21 31.77 18.13C31.78 18.11 31.78 18.09 31.78 18.07C31.73 18.16 31.67 18.24 31.63 18.32ZM29.1801 14.16C27.8401 14.16 26.75 15.25 26.75 16.6C26.75 17.84 27.68 18.8599 28.88 19.0099L29.04 18.57C28.72 18.19 28.59 17.65 28.76 17.13C28.88 16.75 29.15 16.4399 29.51 16.2599C29.57 16.2299 29.6201 16.21 29.6801 16.19L30.26 14.41C29.93 14.25 29.5601 14.16 29.1801 14.16ZM12.9301 12.8C11.5901 12.8 10.4901 13.9 10.4901 15.24C10.4901 16.58 11.5901 17.67 12.9301 17.67C14.2701 17.67 15.36 16.58 15.36 15.24C15.36 13.9 14.2701 12.8 12.9301 12.8ZM11.29 21.86C9.95004 21.86 8.86005 22.95 8.86005 24.29C8.86005 25.64 9.95004 26.73 11.29 26.73C12.64 26.73 13.73 25.64 13.73 24.29C13.73 22.95 12.64 21.86 11.29 21.86ZM11.29 21.86C9.95004 21.86 8.86005 22.95 8.86005 24.29C8.86005 25.64 9.95004 26.73 11.29 26.73C12.64 26.73 13.73 25.64 13.73 24.29C13.73 22.95 12.64 21.86 11.29 21.86ZM12.9301 12.8C11.5901 12.8 10.4901 13.9 10.4901 15.24C10.4901 16.58 11.5901 17.67 12.9301 17.67C14.2701 17.67 15.36 16.58 15.36 15.24C15.36 13.9 14.2701 12.8 12.9301 12.8ZM29.1801 14.16C27.8401 14.16 26.75 15.25 26.75 16.6C26.75 17.84 27.68 18.8599 28.88 19.0099L29.04 18.57C28.72 18.19 28.59 17.65 28.76 17.13C28.88 16.75 29.15 16.4399 29.51 16.2599C29.57 16.2299 29.6201 16.21 29.6801 16.19L30.26 14.41C29.93 14.25 29.5601 14.16 29.1801 14.16ZM31.8 15.16C31.76 15.16 31.73 15.15 31.7 15.14L31.81 15.17C31.8 15.17 31.8 15.16 31.8 15.16ZM31.63 18.32C31.69 18.28 31.75 18.21 31.77 18.13C31.78 18.11 31.78 18.09 31.78 18.07C31.73 18.16 31.67 18.24 31.63 18.32ZM31.8 15.16C31.76 15.16 31.73 15.15 31.7 15.14L31.81 15.17C31.8 15.17 31.8 15.16 31.8 15.16ZM31.63 18.32C31.69 18.28 31.75 18.21 31.77 18.13C31.78 18.11 31.78 18.09 31.78 18.07C31.73 18.16 31.67 18.24 31.63 18.32ZM29.1801 14.16C27.8401 14.16 26.75 15.25 26.75 16.6C26.75 17.84 27.68 18.8599 28.88 19.0099L29.04 18.57C28.72 18.19 28.59 17.65 28.76 17.13C28.88 16.75 29.15 16.4399 29.51 16.2599C29.57 16.2299 29.6201 16.21 29.6801 16.19L30.26 14.41C29.93 14.25 29.5601 14.16 29.1801 14.16ZM12.9301 12.8C11.5901 12.8 10.4901 13.9 10.4901 15.24C10.4901 16.58 11.5901 17.67 12.9301 17.67C14.2701 17.67 15.36 16.58 15.36 15.24C15.36 13.9 14.2701 12.8 12.9301 12.8ZM11.29 21.86C9.95004 21.86 8.86005 22.95 8.86005 24.29C8.86005 25.64 9.95004 26.73 11.29 26.73C12.64 26.73 13.73 25.64 13.73 24.29C13.73 22.95 12.64 21.86 11.29 21.86ZM11.29 21.86C9.95004 21.86 8.86005 22.95 8.86005 24.29C8.86005 25.64 9.95004 26.73 11.29 26.73C12.64 26.73 13.73 25.64 13.73 24.29C13.73 22.95 12.64 21.86 11.29 21.86ZM12.9301 12.8C11.5901 12.8 10.4901 13.9 10.4901 15.24C10.4901 16.58 11.5901 17.67 12.9301 17.67C14.2701 17.67 15.36 16.58 15.36 15.24C15.36 13.9 14.2701 12.8 12.9301 12.8ZM29.1801 14.16C27.8401 14.16 26.75 15.25 26.75 16.6C26.75 17.84 27.68 18.8599 28.88 19.0099L29.04 18.57C28.72 18.19 28.59 17.65 28.76 17.13C28.88 16.75 29.15 16.4399 29.51 16.2599C29.57 16.2299 29.6201 16.21 29.6801 16.19L30.26 14.41C29.93 14.25 29.5601 14.16 29.1801 14.16ZM31.8 15.16C31.76 15.16 31.73 15.15 31.7 15.14L31.81 15.17C31.8 15.17 31.8 15.16 31.8 15.16ZM31.63 18.32C31.69 18.28 31.75 18.21 31.77 18.13C31.78 18.11 31.78 18.09 31.78 18.07C31.73 18.16 31.67 18.24 31.63 18.32ZM31.8 15.16C31.76 15.16 31.73 15.15 31.7 15.14L31.81 15.17C31.8 15.17 31.8 15.16 31.8 15.16ZM31.63 18.32C31.69 18.28 31.75 18.21 31.77 18.13C31.78 18.11 31.78 18.09 31.78 18.07C31.73 18.16 31.67 18.24 31.63 18.32ZM29.1801 14.16C27.8401 14.16 26.75 15.25 26.75 16.6C26.75 17.84 27.68 18.8599 28.88 19.0099L29.04 18.57C28.72 18.19 28.59 17.65 28.76 17.13C28.88 16.75 29.15 16.4399 29.51 16.2599C29.57 16.2299 29.6201 16.21 29.6801 16.19L30.26 14.41C29.93 14.25 29.5601 14.16 29.1801 14.16ZM12.9301 12.8C11.5901 12.8 10.4901 13.9 10.4901 15.24C10.4901 16.58 11.5901 17.67 12.9301 17.67C14.2701 17.67 15.36 16.58 15.36 15.24C15.36 13.9 14.2701 12.8 12.9301 12.8ZM11.29 21.86C9.95004 21.86 8.86005 22.95 8.86005 24.29C8.86005 25.64 9.95004 26.73 11.29 26.73C12.64 26.73 13.73 25.64 13.73 24.29C13.73 22.95 12.64 21.86 11.29 21.86ZM11.29 21.86C9.95004 21.86 8.86005 22.95 8.86005 24.29C8.86005 25.64 9.95004 26.73 11.29 26.73C12.64 26.73 13.73 25.64 13.73 24.29C13.73 22.95 12.64 21.86 11.29 21.86ZM12.9301 12.8C11.5901 12.8 10.4901 13.9 10.4901 15.24C10.4901 16.58 11.5901 17.67 12.9301 17.67C14.2701 17.67 15.36 16.58 15.36 15.24C15.36 13.9 14.2701 12.8 12.9301 12.8ZM29.1801 14.16C27.8401 14.16 26.75 15.25 26.75 16.6C26.75 17.84 27.68 18.8599 28.88 19.0099L29.04 18.57C28.72 18.19 28.59 17.65 28.76 17.13C28.88 16.75 29.15 16.4399 29.51 16.2599C29.57 16.2299 29.6201 16.21 29.6801 16.19L30.26 14.41C29.93 14.25 29.5601 14.16 29.1801 14.16ZM31.63 18.32C31.69 18.28 31.75 18.21 31.77 18.13C31.78 18.11 31.78 18.09 31.78 18.07C31.73 18.16 31.67 18.24 31.63 18.32ZM31.8 15.16C31.76 15.16 31.73 15.15 31.7 15.14L31.81 15.17C31.8 15.17 31.8 15.16 31.8 15.16ZM31.8 15.16C31.76 15.16 31.73 15.15 31.7 15.14L31.81 15.17C31.8 15.17 31.8 15.16 31.8 15.16ZM31.63 18.32C31.69 18.28 31.75 18.21 31.77 18.13C31.78 18.11 31.78 18.09 31.78 18.07C31.73 18.16 31.67 18.24 31.63 18.32ZM29.1801 14.16C27.8401 14.16 26.75 15.25 26.75 16.6C26.75 17.84 27.68 18.8599 28.88 19.0099L29.04 18.57C28.72 18.19 28.59 17.65 28.76 17.13C28.88 16.75 29.15 16.4399 29.51 16.2599C29.57 16.2299 29.6201 16.21 29.6801 16.19L30.26 14.41C29.93 14.25 29.5601 14.16 29.1801 14.16ZM12.9301 12.8C11.5901 12.8 10.4901 13.9 10.4901 15.24C10.4901 16.58 11.5901 17.67 12.9301 17.67C14.2701 17.67 15.36 16.58 15.36 15.24C15.36 13.9 14.2701 12.8 12.9301 12.8ZM11.29 21.86C9.95004 21.86 8.86005 22.95 8.86005 24.29C8.86005 25.64 9.95004 26.73 11.29 26.73C12.64 26.73 13.73 25.64 13.73 24.29C13.73 22.95 12.64 21.86 11.29 21.86ZM11.29 21.86C9.95004 21.86 8.86005 22.95 8.86005 24.29C8.86005 25.64 9.95004 26.73 11.29 26.73C12.64 26.73 13.73 25.64 13.73 24.29C13.73 22.95 12.64 21.86 11.29 21.86ZM12.9301 12.8C11.5901 12.8 10.4901 13.9 10.4901 15.24C10.4901 16.58 11.5901 17.67 12.9301 17.67C14.2701 17.67 15.36 16.58 15.36 15.24C15.36 13.9 14.2701 12.8 12.9301 12.8ZM29.1801 14.16C27.8401 14.16 26.75 15.25 26.75 16.6C26.75 17.84 27.68 18.8599 28.88 19.0099L29.04 18.57C28.72 18.19 28.59 17.65 28.76 17.13C28.88 16.75 29.15 16.4399 29.51 16.2599C29.57 16.2299 29.6201 16.21 29.6801 16.19L30.26 14.41C29.93 14.25 29.5601 14.16 29.1801 14.16ZM31.63 18.32C31.69 18.28 31.75 18.21 31.77 18.13C31.78 18.11 31.78 18.09 31.78 18.07C31.73 18.16 31.67 18.24 31.63 18.32ZM31.8 15.16C31.76 15.16 31.73 15.15 31.7 15.14L31.81 15.17C31.8 15.17 31.8 15.16 31.8 15.16ZM31.8 15.16C31.76 15.16 31.73 15.15 31.7 15.14L31.81 15.17C31.8 15.17 31.8 15.16 31.8 15.16ZM31.63 18.32C31.69 18.28 31.75 18.21 31.77 18.13C31.78 18.11 31.78 18.09 31.78 18.07C31.73 18.16 31.67 18.24 31.63 18.32ZM29.1801 14.16C27.8401 14.16 26.75 15.25 26.75 16.6C26.75 17.84 27.68 18.8599 28.88 19.0099L29.04 18.57C28.72 18.19 28.59 17.65 28.76 17.13C28.88 16.75 29.15 16.4399 29.51 16.2599C29.57 16.2299 29.6201 16.21 29.6801 16.19L30.26 14.41C29.93 14.25 29.5601 14.16 29.1801 14.16ZM12.9301 12.8C11.5901 12.8 10.4901 13.9 10.4901 15.24C10.4901 16.58 11.5901 17.67 12.9301 17.67C14.2701 17.67 15.36 16.58 15.36 15.24C15.36 13.9 14.2701 12.8 12.9301 12.8ZM11.29 21.86C9.95004 21.86 8.86005 22.95 8.86005 24.29C8.86005 25.64 9.95004 26.73 11.29 26.73C12.64 26.73 13.73 25.64 13.73 24.29C13.73 22.95 12.64 21.86 11.29 21.86ZM11.29 21.86C9.95004 21.86 8.86005 22.95 8.86005 24.29C8.86005 25.64 9.95004 26.73 11.29 26.73C12.64 26.73 13.73 25.64 13.73 24.29C13.73 22.95 12.64 21.86 11.29 21.86ZM12.9301 12.8C11.5901 12.8 10.4901 13.9 10.4901 15.24C10.4901 16.58 11.5901 17.67 12.9301 17.67C14.2701 17.67 15.36 16.58 15.36 15.24C15.36 13.9 14.2701 12.8 12.9301 12.8ZM29.1801 14.16C27.8401 14.16 26.75 15.25 26.75 16.6C26.75 17.84 27.68 18.8599 28.88 19.0099L29.04 18.57C28.72 18.19 28.59 17.65 28.76 17.13C28.88 16.75 29.15 16.4399 29.51 16.2599C29.57 16.2299 29.6201 16.21 29.6801 16.19L30.26 14.41C29.93 14.25 29.5601 14.16 29.1801 14.16ZM31.63 18.32C31.69 18.28 31.75 18.21 31.77 18.13C31.78 18.11 31.78 18.09 31.78 18.07C31.73 18.16 31.67 18.24 31.63 18.32ZM31.8 15.16C31.76 15.16 31.73 15.15 31.7 15.14L31.81 15.17C31.8 15.17 31.8 15.16 31.8 15.16ZM12.9301 12.8C11.5901 12.8 10.4901 13.9 10.4901 15.24C10.4901 16.58 11.5901 17.67 12.9301 17.67C14.2701 17.67 15.36 16.58 15.36 15.24C15.36 13.9 14.2701 12.8 12.9301 12.8ZM11.29 21.86C9.95004 21.86 8.86005 22.95 8.86005 24.29C8.86005 25.64 9.95004 26.73 11.29 26.73C12.64 26.73 13.73 25.64 13.73 24.29C13.73 22.95 12.64 21.86 11.29 21.86ZM31.8 15.16C31.76 15.16 31.73 15.15 31.7 15.14L31.81 15.17C31.8 15.17 31.8 15.16 31.8 15.16ZM31.63 18.32C31.69 18.28 31.75 18.21 31.77 18.13C31.78 18.11 31.78 18.09 31.78 18.07C31.73 18.16 31.67 18.24 31.63 18.32ZM29.1801 14.16C27.8401 14.16 26.75 15.25 26.75 16.6C26.75 17.84 27.68 18.8599 28.88 19.0099L29.04 18.57C28.72 18.19 28.59 17.65 28.76 17.13C28.88 16.75 29.15 16.4399 29.51 16.2599C29.57 16.2299 29.6201 16.21 29.6801 16.19L30.26 14.41C29.93 14.25 29.5601 14.16 29.1801 14.16ZM11.29 21.86C9.95004 21.86 8.86005 22.95 8.86005 24.29C8.86005 25.64 9.95004 26.73 11.29 26.73C12.64 26.73 13.73 25.64 13.73 24.29C13.73 22.95 12.64 21.86 11.29 21.86ZM12.9301 12.8C11.5901 12.8 10.4901 13.9 10.4901 15.24C10.4901 16.58 11.5901 17.67 12.9301 17.67C14.2701 17.67 15.36 16.58 15.36 15.24C15.36 13.9 14.2701 12.8 12.9301 12.8ZM12.9301 12.8C11.5901 12.8 10.4901 13.9 10.4901 15.24C10.4901 16.58 11.5901 17.67 12.9301 17.67C14.2701 17.67 15.36 16.58 15.36 15.24C15.36 13.9 14.2701 12.8 12.9301 12.8ZM11.29 21.86C9.95004 21.86 8.86005 22.95 8.86005 24.29C8.86005 25.64 9.95004 26.73 11.29 26.73C12.64 26.73 13.73 25.64 13.73 24.29C13.73 22.95 12.64 21.86 11.29 21.86ZM11.29 21.86C9.95004 21.86 8.86005 22.95 8.86005 24.29C8.86005 25.64 9.95004 26.73 11.29 26.73C12.64 26.73 13.73 25.64 13.73 24.29C13.73 22.95 12.64 21.86 11.29 21.86ZM12.9301 12.8C11.5901 12.8 10.4901 13.9 10.4901 15.24C10.4901 16.58 11.5901 17.67 12.9301 17.67C14.2701 17.67 15.36 16.58 15.36 15.24C15.36 13.9 14.2701 12.8 12.9301 12.8ZM12.9301 12.8C11.5901 12.8 10.4901 13.9 10.4901 15.24C10.4901 16.58 11.5901 17.67 12.9301 17.67C14.2701 17.67 15.36 16.58 15.36 15.24C15.36 13.9 14.2701 12.8 12.9301 12.8ZM11.29 21.86C9.95004 21.86 8.86005 22.95 8.86005 24.29C8.86005 25.64 9.95004 26.73 11.29 26.73C12.64 26.73 13.73 25.64 13.73 24.29C13.73 22.95 12.64 21.86 11.29 21.86ZM11.29 21.86C9.95004 21.86 8.86005 22.95 8.86005 24.29C8.86005 25.64 9.95004 26.73 11.29 26.73C12.64 26.73 13.73 25.64 13.73 24.29C13.73 22.95 12.64 21.86 11.29 21.86ZM12.9301 12.8C11.5901 12.8 10.4901 13.9 10.4901 15.24C10.4901 16.58 11.5901 17.67 12.9301 17.67C14.2701 17.67 15.36 16.58 15.36 15.24C15.36 13.9 14.2701 12.8 12.9301 12.8ZM12.9301 12.8C11.5901 12.8 10.4901 13.9 10.4901 15.24C10.4901 16.58 11.5901 17.67 12.9301 17.67C14.2701 17.67 15.36 16.58 15.36 15.24C15.36 13.9 14.2701 12.8 12.9301 12.8ZM11.29 21.86C9.95004 21.86 8.86005 22.95 8.86005 24.29C8.86005 25.64 9.95004 26.73 11.29 26.73C12.64 26.73 13.73 25.64 13.73 24.29C13.73 22.95 12.64 21.86 11.29 21.86ZM11.29 21.86C9.95004 21.86 8.86005 22.95 8.86005 24.29C8.86005 25.64 9.95004 26.73 11.29 26.73C12.64 26.73 13.73 25.64 13.73 24.29C13.73 22.95 12.64 21.86 11.29 21.86ZM12.9301 12.8C11.5901 12.8 10.4901 13.9 10.4901 15.24C10.4901 16.58 11.5901 17.67 12.9301 17.67C14.2701 17.67 15.36 16.58 15.36 15.24C15.36 13.9 14.2701 12.8 12.9301 12.8ZM12.9301 12.8C11.5901 12.8 10.4901 13.9 10.4901 15.24C10.4901 16.58 11.5901 17.67 12.9301 17.67C14.2701 17.67 15.36 16.58 15.36 15.24C15.36 13.9 14.2701 12.8 12.9301 12.8ZM11.29 21.86C9.95004 21.86 8.86005 22.95 8.86005 24.29C8.86005 25.64 9.95004 26.73 11.29 26.73C12.64 26.73 13.73 25.64 13.73 24.29C13.73 22.95 12.64 21.86 11.29 21.86ZM11.29 21.86C9.95004 21.86 8.86005 22.95 8.86005 24.29C8.86005 25.64 9.95004 26.73 11.29 26.73C12.64 26.73 13.73 25.64 13.73 24.29C13.73 22.95 12.64 21.86 11.29 21.86ZM12.9301 12.8C11.5901 12.8 10.4901 13.9 10.4901 15.24C10.4901 16.58 11.5901 17.67 12.9301 17.67C14.2701 17.67 15.36 16.58 15.36 15.24C15.36 13.9 14.2701 12.8 12.9301 12.8ZM12.9301 12.8C11.5901 12.8 10.4901 13.9 10.4901 15.24C10.4901 16.58 11.5901 17.67 12.9301 17.67C14.2701 17.67 15.36 16.58 15.36 15.24C15.36 13.9 14.2701 12.8 12.9301 12.8ZM11.29 21.86C9.95004 21.86 8.86005 22.95 8.86005 24.29C8.86005 25.64 9.95004 26.73 11.29 26.73C12.64 26.73 13.73 25.64 13.73 24.29C13.73 22.95 12.64 21.86 11.29 21.86ZM11.29 21.86C9.95004 21.86 8.86005 22.95 8.86005 24.29C8.86005 25.64 9.95004 26.73 11.29 26.73C12.64 26.73 13.73 25.64 13.73 24.29C13.73 22.95 12.64 21.86 11.29 21.86ZM12.9301 12.8C11.5901 12.8 10.4901 13.9 10.4901 15.24C10.4901 16.58 11.5901 17.67 12.9301 17.67C14.2701 17.67 15.36 16.58 15.36 15.24C15.36 13.9 14.2701 12.8 12.9301 12.8ZM12.9301 12.8C11.5901 12.8 10.4901 13.9 10.4901 15.24C10.4901 16.58 11.5901 17.67 12.9301 17.67C14.2701 17.67 15.36 16.58 15.36 15.24C15.36 13.9 14.2701 12.8 12.9301 12.8ZM11.29 21.86C9.95004 21.86 8.86005 22.95 8.86005 24.29C8.86005 25.64 9.95004 26.73 11.29 26.73C12.64 26.73 13.73 25.64 13.73 24.29C13.73 22.95 12.64 21.86 11.29 21.86ZM11.29 21.86C9.95004 21.86 8.86005 22.95 8.86005 24.29C8.86005 25.64 9.95004 26.73 11.29 26.73C12.64 26.73 13.73 25.64 13.73 24.29C13.73 22.95 12.64 21.86 11.29 21.86ZM12.9301 12.8C11.5901 12.8 10.4901 13.9 10.4901 15.24C10.4901 16.58 11.5901 17.67 12.9301 17.67C14.2701 17.67 15.36 16.58 15.36 15.24C15.36 13.9 14.2701 12.8 12.9301 12.8ZM12.9301 12.8C11.5901 12.8 10.4901 13.9 10.4901 15.24C10.4901 16.58 11.5901 17.67 12.9301 17.67C14.2701 17.67 15.36 16.58 15.36 15.24C15.36 13.9 14.2701 12.8 12.9301 12.8ZM11.29 21.86C9.95004 21.86 8.86005 22.95 8.86005 24.29C8.86005 25.64 9.95004 26.73 11.29 26.73C12.64 26.73 13.73 25.64 13.73 24.29C13.73 22.95 12.64 21.86 11.29 21.86ZM11.29 21.86C9.95004 21.86 8.86005 22.95 8.86005 24.29C8.86005 25.64 9.95004 26.73 11.29 26.73C12.64 26.73 13.73 25.64 13.73 24.29C13.73 22.95 12.64 21.86 11.29 21.86ZM12.9301 12.8C11.5901 12.8 10.4901 13.9 10.4901 15.24C10.4901 16.58 11.5901 17.67 12.9301 17.67C14.2701 17.67 15.36 16.58 15.36 15.24C15.36 13.9 14.2701 12.8 12.9301 12.8ZM12.9301 12.8C11.5901 12.8 10.4901 13.9 10.4901 15.24C10.4901 16.58 11.5901 17.67 12.9301 17.67C14.2701 17.67 15.36 16.58 15.36 15.24C15.36 13.9 14.2701 12.8 12.9301 12.8ZM11.29 21.86C9.95004 21.86 8.86005 22.95 8.86005 24.29C8.86005 25.64 9.95004 26.73 11.29 26.73C12.64 26.73 13.73 25.64 13.73 24.29C13.73 22.95 12.64 21.86 11.29 21.86ZM11.29 21.86C9.95004 21.86 8.86005 22.95 8.86005 24.29C8.86005 25.64 9.95004 26.73 11.29 26.73C12.64 26.73 13.73 25.64 13.73 24.29C13.73 22.95 12.64 21.86 11.29 21.86ZM12.9301 12.8C11.5901 12.8 10.4901 13.9 10.4901 15.24C10.4901 16.58 11.5901 17.67 12.9301 17.67C14.2701 17.67 15.36 16.58 15.36 15.24C15.36 13.9 14.2701 12.8 12.9301 12.8ZM12.9301 12.8C11.5901 12.8 10.4901 13.9 10.4901 15.24C10.4901 16.58 11.5901 17.67 12.9301 17.67C14.2701 17.67 15.36 16.58 15.36 15.24C15.36 13.9 14.2701 12.8 12.9301 12.8ZM11.29 21.86C9.95004 21.86 8.86005 22.95 8.86005 24.29C8.86005 25.64 9.95004 26.73 11.29 26.73C12.64 26.73 13.73 25.64 13.73 24.29C13.73 22.95 12.64 21.86 11.29 21.86ZM30.52 9.37C27.79 6.87 24.1601 5.34998 20.1801 5.34998C11.7201 5.34998 4.86005 12.21 4.86005 20.67C4.86005 28.28 10.4101 34.59 17.6801 35.79C17.7301 35.8 17.79 35.81 17.84 35.81C17.89 35.82 17.93 35.83 17.97 35.83H18.1C19.15 35.83 20 34.99 20 33.93C20 33.44 19.81 32.99 19.51 32.66C19.49 32.64 19.46 32.62 19.44 32.6C18.33 31.45 17.65 29.89 17.65 28.17C17.65 24.66 20.49 21.81 24 21.81C25.28 21.81 26.46 22.19 27.45 22.83L28.48 20.07C26.86 19.74 25.64 18.31 25.64 16.6C25.64 14.64 27.2301 13.05 29.1801 13.05C29.3601 13.05 29.53 13.06 29.7 13.09C29.46 12.34 29.46 11.51 29.72 10.72C29.87 10.24 30.13 9.81 30.52 9.37ZM11.29 27.84C9.34004 27.84 7.75 26.25 7.75 24.29C7.75 22.34 9.34004 20.75 11.29 20.75C13.25 20.75 14.84 22.34 14.84 24.29C14.84 26.25 13.25 27.84 11.29 27.84ZM12.9301 18.78C10.9701 18.78 9.39001 17.19 9.39001 15.24C9.39001 13.28 10.9701 11.7 12.9301 11.7C14.8801 11.7 16.47 13.28 16.47 15.24C16.47 17.19 14.8801 18.78 12.9301 18.78ZM21.9 15.33C19.94 15.33 18.35 13.74 18.35 11.78C18.35 9.82997 19.94 8.23999 21.9 8.23999C23.85 8.23999 25.44 9.82997 25.44 11.78C25.44 13.74 23.85 15.33 21.9 15.33ZM12.9301 12.8C11.5901 12.8 10.4901 13.9 10.4901 15.24C10.4901 16.58 11.5901 17.67 12.9301 17.67C14.2701 17.67 15.36 16.58 15.36 15.24C15.36 13.9 14.2701 12.8 12.9301 12.8ZM11.29 21.86C9.95004 21.86 8.86005 22.95 8.86005 24.29C8.86005 25.64 9.95004 26.73 11.29 26.73C12.64 26.73 13.73 25.64 13.73 24.29C13.73 22.95 12.64 21.86 11.29 21.86ZM11.29 21.86C9.95004 21.86 8.86005 22.95 8.86005 24.29C8.86005 25.64 9.95004 26.73 11.29 26.73C12.64 26.73 13.73 25.64 13.73 24.29C13.73 22.95 12.64 21.86 11.29 21.86ZM12.9301 12.8C11.5901 12.8 10.4901 13.9 10.4901 15.24C10.4901 16.58 11.5901 17.67 12.9301 17.67C14.2701 17.67 15.36 16.58 15.36 15.24C15.36 13.9 14.2701 12.8 12.9301 12.8ZM12.9301 12.8C11.5901 12.8 10.4901 13.9 10.4901 15.24C10.4901 16.58 11.5901 17.67 12.9301 17.67C14.2701 17.67 15.36 16.58 15.36 15.24C15.36 13.9 14.2701 12.8 12.9301 12.8ZM11.29 21.86C9.95004 21.86 8.86005 22.95 8.86005 24.29C8.86005 25.64 9.95004 26.73 11.29 26.73C12.64 26.73 13.73 25.64 13.73 24.29C13.73 22.95 12.64 21.86 11.29 21.86ZM11.29 21.86C9.95004 21.86 8.86005 22.95 8.86005 24.29C8.86005 25.64 9.95004 26.73 11.29 26.73C12.64 26.73 13.73 25.64 13.73 24.29C13.73 22.95 12.64 21.86 11.29 21.86ZM12.9301 12.8C11.5901 12.8 10.4901 13.9 10.4901 15.24C10.4901 16.58 11.5901 17.67 12.9301 17.67C14.2701 17.67 15.36 16.58 15.36 15.24C15.36 13.9 14.2701 12.8 12.9301 12.8ZM12.9301 12.8C11.5901 12.8 10.4901 13.9 10.4901 15.24C10.4901 16.58 11.5901 17.67 12.9301 17.67C14.2701 17.67 15.36 16.58 15.36 15.24C15.36 13.9 14.2701 12.8 12.9301 12.8ZM11.29 21.86C9.95004 21.86 8.86005 22.95 8.86005 24.29C8.86005 25.64 9.95004 26.73 11.29 26.73C12.64 26.73 13.73 25.64 13.73 24.29C13.73 22.95 12.64 21.86 11.29 21.86ZM11.29 21.86C9.95004 21.86 8.86005 22.95 8.86005 24.29C8.86005 25.64 9.95004 26.73 11.29 26.73C12.64 26.73 13.73 25.64 13.73 24.29C13.73 22.95 12.64 21.86 11.29 21.86ZM12.9301 12.8C11.5901 12.8 10.4901 13.9 10.4901 15.24C10.4901 16.58 11.5901 17.67 12.9301 17.67C14.2701 17.67 15.36 16.58 15.36 15.24C15.36 13.9 14.2701 12.8 12.9301 12.8ZM12.9301 12.8C11.5901 12.8 10.4901 13.9 10.4901 15.24C10.4901 16.58 11.5901 17.67 12.9301 17.67C14.2701 17.67 15.36 16.58 15.36 15.24C15.36 13.9 14.2701 12.8 12.9301 12.8ZM11.29 21.86C9.95004 21.86 8.86005 22.95 8.86005 24.29C8.86005 25.64 9.95004 26.73 11.29 26.73C12.64 26.73 13.73 25.64 13.73 24.29C13.73 22.95 12.64 21.86 11.29 21.86ZM11.29 21.86C9.95004 21.86 8.86005 22.95 8.86005 24.29C8.86005 25.64 9.95004 26.73 11.29 26.73C12.64 26.73 13.73 25.64 13.73 24.29C13.73 22.95 12.64 21.86 11.29 21.86ZM12.9301 12.8C11.5901 12.8 10.4901 13.9 10.4901 15.24C10.4901 16.58 11.5901 17.67 12.9301 17.67C14.2701 17.67 15.36 16.58 15.36 15.24C15.36 13.9 14.2701 12.8 12.9301 12.8ZM12.9301 12.8C11.5901 12.8 10.4901 13.9 10.4901 15.24C10.4901 16.58 11.5901 17.67 12.9301 17.67C14.2701 17.67 15.36 16.58 15.36 15.24C15.36 13.9 14.2701 12.8 12.9301 12.8ZM11.29 21.86C9.95004 21.86 8.86005 22.95 8.86005 24.29C8.86005 25.64 9.95004 26.73 11.29 26.73C12.64 26.73 13.73 25.64 13.73 24.29C13.73 22.95 12.64 21.86 11.29 21.86ZM11.29 21.86C9.95004 21.86 8.86005 22.95 8.86005 24.29C8.86005 25.64 9.95004 26.73 11.29 26.73C12.64 26.73 13.73 25.64 13.73 24.29C13.73 22.95 12.64 21.86 11.29 21.86ZM12.9301 12.8C11.5901 12.8 10.4901 13.9 10.4901 15.24C10.4901 16.58 11.5901 17.67 12.9301 17.67C14.2701 17.67 15.36 16.58 15.36 15.24C15.36 13.9 14.2701 12.8 12.9301 12.8ZM12.9301 12.8C11.5901 12.8 10.4901 13.9 10.4901 15.24C10.4901 16.58 11.5901 17.67 12.9301 17.67C14.2701 17.67 15.36 16.58 15.36 15.24C15.36 13.9 14.2701 12.8 12.9301 12.8ZM11.29 21.86C9.95004 21.86 8.86005 22.95 8.86005 24.29C8.86005 25.64 9.95004 26.73 11.29 26.73C12.64 26.73 13.73 25.64 13.73 24.29C13.73 22.95 12.64 21.86 11.29 21.86ZM11.29 21.86C9.95004 21.86 8.86005 22.95 8.86005 24.29C8.86005 25.64 9.95004 26.73 11.29 26.73C12.64 26.73 13.73 25.64 13.73 24.29C13.73 22.95 12.64 21.86 11.29 21.86ZM12.9301 12.8C11.5901 12.8 10.4901 13.9 10.4901 15.24C10.4901 16.58 11.5901 17.67 12.9301 17.67C14.2701 17.67 15.36 16.58 15.36 15.24C15.36 13.9 14.2701 12.8 12.9301 12.8ZM12.9301 12.8C11.5901 12.8 10.4901 13.9 10.4901 15.24C10.4901 16.58 11.5901 17.67 12.9301 17.67C14.2701 17.67 15.36 16.58 15.36 15.24C15.36 13.9 14.2701 12.8 12.9301 12.8ZM11.29 21.86C9.95004 21.86 8.86005 22.95 8.86005 24.29C8.86005 25.64 9.95004 26.73 11.29 26.73C12.64 26.73 13.73 25.64 13.73 24.29C13.73 22.95 12.64 21.86 11.29 21.86ZM11.29 21.86C9.95004 21.86 8.86005 22.95 8.86005 24.29C8.86005 25.64 9.95004 26.73 11.29 26.73C12.64 26.73 13.73 25.64 13.73 24.29C13.73 22.95 12.64 21.86 11.29 21.86ZM12.9301 12.8C11.5901 12.8 10.4901 13.9 10.4901 15.24C10.4901 16.58 11.5901 17.67 12.9301 17.67C14.2701 17.67 15.36 16.58 15.36 15.24C15.36 13.9 14.2701 12.8 12.9301 12.8ZM12.9301 12.8C11.5901 12.8 10.4901 13.9 10.4901 15.24C10.4901 16.58 11.5901 17.67 12.9301 17.67C14.2701 17.67 15.36 16.58 15.36 15.24C15.36 13.9 14.2701 12.8 12.9301 12.8ZM11.29 21.86C9.95004 21.86 8.86005 22.95 8.86005 24.29C8.86005 25.64 9.95004 26.73 11.29 26.73C12.64 26.73 13.73 25.64 13.73 24.29C13.73 22.95 12.64 21.86 11.29 21.86ZM11.29 21.86C9.95004 21.86 8.86005 22.95 8.86005 24.29C8.86005 25.64 9.95004 26.73 11.29 26.73C12.64 26.73 13.73 25.64 13.73 24.29C13.73 22.95 12.64 21.86 11.29 21.86ZM12.9301 12.8C11.5901 12.8 10.4901 13.9 10.4901 15.24C10.4901 16.58 11.5901 17.67 12.9301 17.67C14.2701 17.67 15.36 16.58 15.36 15.24C15.36 13.9 14.2701 12.8 12.9301 12.8ZM12.9301 12.8C11.5901 12.8 10.4901 13.9 10.4901 15.24C10.4901 16.58 11.5901 17.67 12.9301 17.67C14.2701 17.67 15.36 16.58 15.36 15.24C15.36 13.9 14.2701 12.8 12.9301 12.8ZM11.29 21.86C9.95004 21.86 8.86005 22.95 8.86005 24.29C8.86005 25.64 9.95004 26.73 11.29 26.73C12.64 26.73 13.73 25.64 13.73 24.29C13.73 22.95 12.64 21.86 11.29 21.86ZM11.29 21.86C9.95004 21.86 8.86005 22.95 8.86005 24.29C8.86005 25.64 9.95004 26.73 11.29 26.73C12.64 26.73 13.73 25.64 13.73 24.29C13.73 22.95 12.64 21.86 11.29 21.86ZM12.9301 12.8C11.5901 12.8 10.4901 13.9 10.4901 15.24C10.4901 16.58 11.5901 17.67 12.9301 17.67C14.2701 17.67 15.36 16.58 15.36 15.24C15.36 13.9 14.2701 12.8 12.9301 12.8ZM12.9301 12.8C11.5901 12.8 10.4901 13.9 10.4901 15.24C10.4901 16.58 11.5901 17.67 12.9301 17.67C14.2701 17.67 15.36 16.58 15.36 15.24C15.36 13.9 14.2701 12.8 12.9301 12.8ZM11.29 21.86C9.95004 21.86 8.86005 22.95 8.86005 24.29C8.86005 25.64 9.95004 26.73 11.29 26.73C12.64 26.73 13.73 25.64 13.73 24.29C13.73 22.95 12.64 21.86 11.29 21.86ZM11.29 21.86C9.95004 21.86 8.86005 22.95 8.86005 24.29C8.86005 25.64 9.95004 26.73 11.29 26.73C12.64 26.73 13.73 25.64 13.73 24.29C13.73 22.95 12.64 21.86 11.29 21.86ZM12.9301 12.8C11.5901 12.8 10.4901 13.9 10.4901 15.24C10.4901 16.58 11.5901 17.67 12.9301 17.67C14.2701 17.67 15.36 16.58 15.36 15.24C15.36 13.9 14.2701 12.8 12.9301 12.8ZM31.8 15.16C31.76 15.16 31.73 15.15 31.7 15.14L31.81 15.17C31.8 15.17 31.8 15.16 31.8 15.16ZM31.63 18.32C31.69 18.28 31.75 18.21 31.77 18.13C31.78 18.11 31.78 18.09 31.78 18.07C31.73 18.16 31.67 18.24 31.63 18.32ZM29.1801 14.16C27.8401 14.16 26.75 15.25 26.75 16.6C26.75 17.84 27.68 18.8599 28.88 19.0099L29.04 18.57C28.72 18.19 28.59 17.65 28.76 17.13C28.88 16.75 29.15 16.4399 29.51 16.2599C29.57 16.2299 29.6201 16.21 29.6801 16.19L30.26 14.41C29.93 14.25 29.5601 14.16 29.1801 14.16ZM12.9301 12.8C11.5901 12.8 10.4901 13.9 10.4901 15.24C10.4901 16.58 11.5901 17.67 12.9301 17.67C14.2701 17.67 15.36 16.58 15.36 15.24C15.36 13.9 14.2701 12.8 12.9301 12.8ZM11.29 21.86C9.95004 21.86 8.86005 22.95 8.86005 24.29C8.86005 25.64 9.95004 26.73 11.29 26.73C12.64 26.73 13.73 25.64 13.73 24.29C13.73 22.95 12.64 21.86 11.29 21.86ZM11.29 21.86C9.95004 21.86 8.86005 22.95 8.86005 24.29C8.86005 25.64 9.95004 26.73 11.29 26.73C12.64 26.73 13.73 25.64 13.73 24.29C13.73 22.95 12.64 21.86 11.29 21.86ZM12.9301 12.8C11.5901 12.8 10.4901 13.9 10.4901 15.24C10.4901 16.58 11.5901 17.67 12.9301 17.67C14.2701 17.67 15.36 16.58 15.36 15.24C15.36 13.9 14.2701 12.8 12.9301 12.8ZM29.1801 14.16C27.8401 14.16 26.75 15.25 26.75 16.6C26.75 17.84 27.68 18.8599 28.88 19.0099L29.04 18.57C28.72 18.19 28.59 17.65 28.76 17.13C28.88 16.75 29.15 16.4399 29.51 16.2599C29.57 16.2299 29.6201 16.21 29.6801 16.19L30.26 14.41C29.93 14.25 29.5601 14.16 29.1801 14.16ZM31.63 18.32C31.69 18.28 31.75 18.21 31.77 18.13C31.78 18.11 31.78 18.09 31.78 18.07C31.73 18.16 31.67 18.24 31.63 18.32ZM31.8 15.16C31.76 15.16 31.73 15.15 31.7 15.14L31.81 15.17C31.8 15.17 31.8 15.16 31.8 15.16ZM31.8 15.16C31.76 15.16 31.73 15.15 31.7 15.14L31.81 15.17C31.8 15.17 31.8 15.16 31.8 15.16ZM31.63 18.32C31.69 18.28 31.75 18.21 31.77 18.13C31.78 18.11 31.78 18.09 31.78 18.07C31.73 18.16 31.67 18.24 31.63 18.32ZM29.1801 14.16C27.8401 14.16 26.75 15.25 26.75 16.6C26.75 17.84 27.68 18.8599 28.88 19.0099L29.04 18.57C28.72 18.19 28.59 17.65 28.76 17.13C28.88 16.75 29.15 16.4399 29.51 16.2599C29.57 16.2299 29.6201 16.21 29.6801 16.19L30.26 14.41C29.93 14.25 29.5601 14.16 29.1801 14.16ZM12.9301 12.8C11.5901 12.8 10.4901 13.9 10.4901 15.24C10.4901 16.58 11.5901 17.67 12.9301 17.67C14.2701 17.67 15.36 16.58 15.36 15.24C15.36 13.9 14.2701 12.8 12.9301 12.8ZM11.29 21.86C9.95004 21.86 8.86005 22.95 8.86005 24.29C8.86005 25.64 9.95004 26.73 11.29 26.73C12.64 26.73 13.73 25.64 13.73 24.29C13.73 22.95 12.64 21.86 11.29 21.86ZM11.29 21.86C9.95004 21.86 8.86005 22.95 8.86005 24.29C8.86005 25.64 9.95004 26.73 11.29 26.73C12.64 26.73 13.73 25.64 13.73 24.29C13.73 22.95 12.64 21.86 11.29 21.86ZM12.9301 12.8C11.5901 12.8 10.4901 13.9 10.4901 15.24C10.4901 16.58 11.5901 17.67 12.9301 17.67C14.2701 17.67 15.36 16.58 15.36 15.24C15.36 13.9 14.2701 12.8 12.9301 12.8ZM29.1801 14.16C27.8401 14.16 26.75 15.25 26.75 16.6C26.75 17.84 27.68 18.8599 28.88 19.0099L29.04 18.57C28.72 18.19 28.59 17.65 28.76 17.13C28.88 16.75 29.15 16.4399 29.51 16.2599C29.57 16.2299 29.6201 16.21 29.6801 16.19L30.26 14.41C29.93 14.25 29.5601 14.16 29.1801 14.16ZM31.63 18.32C31.69 18.28 31.75 18.21 31.77 18.13C31.78 18.11 31.78 18.09 31.78 18.07C31.73 18.16 31.67 18.24 31.63 18.32ZM31.8 15.16C31.76 15.16 31.73 15.15 31.7 15.14L31.81 15.17C31.8 15.17 31.8 15.16 31.8 15.16ZM31.8 15.16C31.76 15.16 31.73 15.15 31.7 15.14L31.81 15.17C31.8 15.17 31.8 15.16 31.8 15.16ZM31.63 18.32C31.69 18.28 31.75 18.21 31.77 18.13C31.78 18.11 31.78 18.09 31.78 18.07C31.73 18.16 31.67 18.24 31.63 18.32ZM29.1801 14.16C27.8401 14.16 26.75 15.25 26.75 16.6C26.75 17.84 27.68 18.8599 28.88 19.0099L29.04 18.57C28.72 18.19 28.59 17.65 28.76 17.13C28.88 16.75 29.15 16.4399 29.51 16.2599C29.57 16.2299 29.6201 16.21 29.6801 16.19L30.26 14.41C29.93 14.25 29.5601 14.16 29.1801 14.16ZM12.9301 12.8C11.5901 12.8 10.4901 13.9 10.4901 15.24C10.4901 16.58 11.5901 17.67 12.9301 17.67C14.2701 17.67 15.36 16.58 15.36 15.24C15.36 13.9 14.2701 12.8 12.9301 12.8ZM11.29 21.86C9.95004 21.86 8.86005 22.95 8.86005 24.29C8.86005 25.64 9.95004 26.73 11.29 26.73C12.64 26.73 13.73 25.64 13.73 24.29C13.73 22.95 12.64 21.86 11.29 21.86ZM11.29 21.86C9.95004 21.86 8.86005 22.95 8.86005 24.29C8.86005 25.64 9.95004 26.73 11.29 26.73C12.64 26.73 13.73 25.64 13.73 24.29C13.73 22.95 12.64 21.86 11.29 21.86ZM12.9301 12.8C11.5901 12.8 10.4901 13.9 10.4901 15.24C10.4901 16.58 11.5901 17.67 12.9301 17.67C14.2701 17.67 15.36 16.58 15.36 15.24C15.36 13.9 14.2701 12.8 12.9301 12.8ZM29.1801 14.16C27.8401 14.16 26.75 15.25 26.75 16.6C26.75 17.84 27.68 18.8599 28.88 19.0099L29.04 18.57C28.72 18.19 28.59 17.65 28.76 17.13C28.88 16.75 29.15 16.4399 29.51 16.2599C29.57 16.2299 29.6201 16.21 29.6801 16.19L30.26 14.41C29.93 14.25 29.5601 14.16 29.1801 14.16ZM31.63 18.32C31.69 18.28 31.75 18.21 31.77 18.13C31.78 18.11 31.78 18.09 31.78 18.07C31.73 18.16 31.67 18.24 31.63 18.32ZM31.8 15.16C31.76 15.16 31.73 15.15 31.7 15.14L31.81 15.17C31.8 15.17 31.8 15.16 31.8 15.16ZM31.63 18.32C31.69 18.28 31.75 18.21 31.77 18.13C31.78 18.11 31.78 18.09 31.78 18.07C31.73 18.16 31.67 18.24 31.63 18.32ZM31.8 15.16C31.76 15.16 31.73 15.15 31.7 15.14L31.81 15.17C31.8 15.17 31.8 15.16 31.8 15.16ZM29.1801 14.16C27.8401 14.16 26.75 15.25 26.75 16.6C26.75 17.84 27.68 18.8599 28.88 19.0099L29.04 18.57C28.72 18.19 28.59 17.65 28.76 17.13C28.88 16.75 29.15 16.4399 29.51 16.2599C29.57 16.2299 29.6201 16.21 29.6801 16.19L30.26 14.41C29.93 14.25 29.5601 14.16 29.1801 14.16ZM12.9301 12.8C11.5901 12.8 10.4901 13.9 10.4901 15.24C10.4901 16.58 11.5901 17.67 12.9301 17.67C14.2701 17.67 15.36 16.58 15.36 15.24C15.36 13.9 14.2701 12.8 12.9301 12.8ZM11.29 21.86C9.95004 21.86 8.86005 22.95 8.86005 24.29C8.86005 25.64 9.95004 26.73 11.29 26.73C12.64 26.73 13.73 25.64 13.73 24.29C13.73 22.95 12.64 21.86 11.29 21.86ZM11.29 21.86C9.95004 21.86 8.86005 22.95 8.86005 24.29C8.86005 25.64 9.95004 26.73 11.29 26.73C12.64 26.73 13.73 25.64 13.73 24.29C13.73 22.95 12.64 21.86 11.29 21.86ZM12.9301 12.8C11.5901 12.8 10.4901 13.9 10.4901 15.24C10.4901 16.58 11.5901 17.67 12.9301 17.67C14.2701 17.67 15.36 16.58 15.36 15.24C15.36 13.9 14.2701 12.8 12.9301 12.8ZM29.1801 14.16C27.8401 14.16 26.75 15.25 26.75 16.6C26.75 17.84 27.68 18.8599 28.88 19.0099L29.04 18.57C28.72 18.19 28.59 17.65 28.76 17.13C28.88 16.75 29.15 16.4399 29.51 16.2599C29.57 16.2299 29.6201 16.21 29.6801 16.19L30.26 14.41C29.93 14.25 29.5601 14.16 29.1801 14.16ZM31.63 18.32C31.69 18.28 31.75 18.21 31.77 18.13C31.78 18.11 31.78 18.09 31.78 18.07C31.73 18.16 31.67 18.24 31.63 18.32ZM31.8 15.16C31.76 15.16 31.73 15.15 31.7 15.14L31.81 15.17C31.8 15.17 31.8 15.16 31.8 15.16ZM31.63 18.32C31.69 18.28 31.75 18.21 31.77 18.13C31.78 18.11 31.78 18.09 31.78 18.07C31.73 18.16 31.67 18.24 31.63 18.32ZM31.8 15.16C31.76 15.16 31.73 15.15 31.7 15.14L31.81 15.17C31.8 15.17 31.8 15.16 31.8 15.16ZM29.1801 14.16C27.8401 14.16 26.75 15.25 26.75 16.6C26.75 17.84 27.68 18.8599 28.88 19.0099L29.04 18.57C28.72 18.19 28.59 17.65 28.76 17.13C28.88 16.75 29.15 16.4399 29.51 16.2599C29.57 16.2299 29.6201 16.21 29.6801 16.19L30.26 14.41C29.93 14.25 29.5601 14.16 29.1801 14.16ZM12.9301 12.8C11.5901 12.8 10.4901 13.9 10.4901 15.24C10.4901 16.58 11.5901 17.67 12.9301 17.67C14.2701 17.67 15.36 16.58 15.36 15.24C15.36 13.9 14.2701 12.8 12.9301 12.8ZM11.29 21.86C9.95004 21.86 8.86005 22.95 8.86005 24.29C8.86005 25.64 9.95004 26.73 11.29 26.73C12.64 26.73 13.73 25.64 13.73 24.29C13.73 22.95 12.64 21.86 11.29 21.86ZM11.29 21.86C9.95004 21.86 8.86005 22.95 8.86005 24.29C8.86005 25.64 9.95004 26.73 11.29 26.73C12.64 26.73 13.73 25.64 13.73 24.29C13.73 22.95 12.64 21.86 11.29 21.86ZM12.9301 12.8C11.5901 12.8 10.4901 13.9 10.4901 15.24C10.4901 16.58 11.5901 17.67 12.9301 17.67C14.2701 17.67 15.36 16.58 15.36 15.24C15.36 13.9 14.2701 12.8 12.9301 12.8ZM29.1801 14.16C27.8401 14.16 26.75 15.25 26.75 16.6C26.75 17.84 27.68 18.8599 28.88 19.0099L29.04 18.57C28.72 18.19 28.59 17.65 28.76 17.13C28.88 16.75 29.15 16.4399 29.51 16.2599C29.57 16.2299 29.6201 16.21 29.6801 16.19L30.26 14.41C29.93 14.25 29.5601 14.16 29.1801 14.16ZM31.63 18.32C31.69 18.28 31.75 18.21 31.77 18.13C31.78 18.11 31.78 18.09 31.78 18.07C31.73 18.16 31.67 18.24 31.63 18.32ZM12.9301 12.8C11.5901 12.8 10.4901 13.9 10.4901 15.24C10.4901 16.58 11.5901 17.67 12.9301 17.67C14.2701 17.67 15.36 16.58 15.36 15.24C15.36 13.9 14.2701 12.8 12.9301 12.8ZM11.29 21.86C9.95004 21.86 8.86005 22.95 8.86005 24.29C8.86005 25.64 9.95004 26.73 11.29 26.73C12.64 26.73 13.73 25.64 13.73 24.29C13.73 22.95 12.64 21.86 11.29 21.86ZM11.29 21.86C9.95004 21.86 8.86005 22.95 8.86005 24.29C8.86005 25.64 9.95004 26.73 11.29 26.73C12.64 26.73 13.73 25.64 13.73 24.29C13.73 22.95 12.64 21.86 11.29 21.86ZM12.9301 12.8C11.5901 12.8 10.4901 13.9 10.4901 15.24C10.4901 16.58 11.5901 17.67 12.9301 17.67C14.2701 17.67 15.36 16.58 15.36 15.24C15.36 13.9 14.2701 12.8 12.9301 12.8ZM12.9301 12.8C11.5901 12.8 10.4901 13.9 10.4901 15.24C10.4901 16.58 11.5901 17.67 12.9301 17.67C14.2701 17.67 15.36 16.58 15.36 15.24C15.36 13.9 14.2701 12.8 12.9301 12.8ZM11.29 21.86C9.95004 21.86 8.86005 22.95 8.86005 24.29C8.86005 25.64 9.95004 26.73 11.29 26.73C12.64 26.73 13.73 25.64 13.73 24.29C13.73 22.95 12.64 21.86 11.29 21.86ZM11.29 21.86C9.95004 21.86 8.86005 22.95 8.86005 24.29C8.86005 25.64 9.95004 26.73 11.29 26.73C12.64 26.73 13.73 25.64 13.73 24.29C13.73 22.95 12.64 21.86 11.29 21.86ZM12.9301 12.8C11.5901 12.8 10.4901 13.9 10.4901 15.24C10.4901 16.58 11.5901 17.67 12.9301 17.67C14.2701 17.67 15.36 16.58 15.36 15.24C15.36 13.9 14.2701 12.8 12.9301 12.8ZM12.9301 12.8C11.5901 12.8 10.4901 13.9 10.4901 15.24C10.4901 16.58 11.5901 17.67 12.9301 17.67C14.2701 17.67 15.36 16.58 15.36 15.24C15.36 13.9 14.2701 12.8 12.9301 12.8ZM11.29 21.86C9.95004 21.86 8.86005 22.95 8.86005 24.29C8.86005 25.64 9.95004 26.73 11.29 26.73C12.64 26.73 13.73 25.64 13.73 24.29C13.73 22.95 12.64 21.86 11.29 21.86ZM11.29 21.86C9.95004 21.86 8.86005 22.95 8.86005 24.29C8.86005 25.64 9.95004 26.73 11.29 26.73C12.64 26.73 13.73 25.64 13.73 24.29C13.73 22.95 12.64 21.86 11.29 21.86ZM12.9301 12.8C11.5901 12.8 10.4901 13.9 10.4901 15.24C10.4901 16.58 11.5901 17.67 12.9301 17.67C14.2701 17.67 15.36 16.58 15.36 15.24C15.36 13.9 14.2701 12.8 12.9301 12.8ZM12.9301 12.8C11.5901 12.8 10.4901 13.9 10.4901 15.24C10.4901 16.58 11.5901 17.67 12.9301 17.67C14.2701 17.67 15.36 16.58 15.36 15.24C15.36 13.9 14.2701 12.8 12.9301 12.8ZM11.29 21.86C9.95004 21.86 8.86005 22.95 8.86005 24.29C8.86005 25.64 9.95004 26.73 11.29 26.73C12.64 26.73 13.73 25.64 13.73 24.29C13.73 22.95 12.64 21.86 11.29 21.86Z" fill="#353535"/>
<path d="M24.33 11.78C24.33 13.12 23.24 14.22 21.9 14.22C20.55 14.22 19.46 13.12 19.46 11.78C19.46 10.44 20.55 9.34998 21.9 9.34998C23.24 9.34998 24.33 10.44 24.33 11.78Z" fill="white"/>
<path d="M12.9301 12.8C11.5901 12.8 10.4901 13.9 10.4901 15.24C10.4901 16.58 11.5901 17.67 12.9301 17.67C14.2701 17.67 15.36 16.58 15.36 15.24C15.36 13.9 14.2701 12.8 12.9301 12.8ZM12.9301 12.8C11.5901 12.8 10.4901 13.9 10.4901 15.24C10.4901 16.58 11.5901 17.67 12.9301 17.67C14.2701 17.67 15.36 16.58 15.36 15.24C15.36 13.9 14.2701 12.8 12.9301 12.8ZM11.29 21.86C9.95004 21.86 8.86005 22.95 8.86005 24.29C8.86005 25.64 9.95004 26.73 11.29 26.73C12.64 26.73 13.73 25.64 13.73 24.29C13.73 22.95 12.64 21.86 11.29 21.86ZM12.9301 12.8C11.5901 12.8 10.4901 13.9 10.4901 15.24C10.4901 16.58 11.5901 17.67 12.9301 17.67C14.2701 17.67 15.36 16.58 15.36 15.24C15.36 13.9 14.2701 12.8 12.9301 12.8ZM12.9301 12.8C11.5901 12.8 10.4901 13.9 10.4901 15.24C10.4901 16.58 11.5901 17.67 12.9301 17.67C14.2701 17.67 15.36 16.58 15.36 15.24C15.36 13.9 14.2701 12.8 12.9301 12.8ZM11.29 21.86C9.95004 21.86 8.86005 22.95 8.86005 24.29C8.86005 25.64 9.95004 26.73 11.29 26.73C12.64 26.73 13.73 25.64 13.73 24.29C13.73 22.95 12.64 21.86 11.29 21.86ZM11.29 21.86C9.95004 21.86 8.86005 22.95 8.86005 24.29C8.86005 25.64 9.95004 26.73 11.29 26.73C12.64 26.73 13.73 25.64 13.73 24.29C13.73 22.95 12.64 21.86 11.29 21.86ZM12.9301 12.8C11.5901 12.8 10.4901 13.9 10.4901 15.24C10.4901 16.58 11.5901 17.67 12.9301 17.67C14.2701 17.67 15.36 16.58 15.36 15.24C15.36 13.9 14.2701 12.8 12.9301 12.8ZM12.9301 12.8C11.5901 12.8 10.4901 13.9 10.4901 15.24C10.4901 16.58 11.5901 17.67 12.9301 17.67C14.2701 17.67 15.36 16.58 15.36 15.24C15.36 13.9 14.2701 12.8 12.9301 12.8ZM11.29 21.86C9.95004 21.86 8.86005 22.95 8.86005 24.29C8.86005 25.64 9.95004 26.73 11.29 26.73C12.64 26.73 13.73 25.64 13.73 24.29C13.73 22.95 12.64 21.86 11.29 21.86ZM11.29 21.86C9.95004 21.86 8.86005 22.95 8.86005 24.29C8.86005 25.64 9.95004 26.73 11.29 26.73C12.64 26.73 13.73 25.64 13.73 24.29C13.73 22.95 12.64 21.86 11.29 21.86ZM12.9301 12.8C11.5901 12.8 10.4901 13.9 10.4901 15.24C10.4901 16.58 11.5901 17.67 12.9301 17.67C14.2701 17.67 15.36 16.58 15.36 15.24C15.36 13.9 14.2701 12.8 12.9301 12.8ZM12.9301 12.8C11.5901 12.8 10.4901 13.9 10.4901 15.24C10.4901 16.58 11.5901 17.67 12.9301 17.67C14.2701 17.67 15.36 16.58 15.36 15.24C15.36 13.9 14.2701 12.8 12.9301 12.8ZM11.29 21.86C9.95004 21.86 8.86005 22.95 8.86005 24.29C8.86005 25.64 9.95004 26.73 11.29 26.73C12.64 26.73 13.73 25.64 13.73 24.29C13.73 22.95 12.64 21.86 11.29 21.86ZM11.29 21.86C9.95004 21.86 8.86005 22.95 8.86005 24.29C8.86005 25.64 9.95004 26.73 11.29 26.73C12.64 26.73 13.73 25.64 13.73 24.29C13.73 22.95 12.64 21.86 11.29 21.86ZM12.9301 12.8C11.5901 12.8 10.4901 13.9 10.4901 15.24C10.4901 16.58 11.5901 17.67 12.9301 17.67C14.2701 17.67 15.36 16.58 15.36 15.24C15.36 13.9 14.2701 12.8 12.9301 12.8ZM12.9301 12.8C11.5901 12.8 10.4901 13.9 10.4901 15.24C10.4901 16.58 11.5901 17.67 12.9301 17.67C14.2701 17.67 15.36 16.58 15.36 15.24C15.36 13.9 14.2701 12.8 12.9301 12.8ZM11.29 21.86C9.95004 21.86 8.86005 22.95 8.86005 24.29C8.86005 25.64 9.95004 26.73 11.29 26.73C12.64 26.73 13.73 25.64 13.73 24.29C13.73 22.95 12.64 21.86 11.29 21.86ZM11.29 21.86C9.95004 21.86 8.86005 22.95 8.86005 24.29C8.86005 25.64 9.95004 26.73 11.29 26.73C12.64 26.73 13.73 25.64 13.73 24.29C13.73 22.95 12.64 21.86 11.29 21.86ZM12.9301 12.8C11.5901 12.8 10.4901 13.9 10.4901 15.24C10.4901 16.58 11.5901 17.67 12.9301 17.67C14.2701 17.67 15.36 16.58 15.36 15.24C15.36 13.9 14.2701 12.8 12.9301 12.8ZM12.9301 12.8C11.5901 12.8 10.4901 13.9 10.4901 15.24C10.4901 16.58 11.5901 17.67 12.9301 17.67C14.2701 17.67 15.36 16.58 15.36 15.24C15.36 13.9 14.2701 12.8 12.9301 12.8ZM11.29 21.86C9.95004 21.86 8.86005 22.95 8.86005 24.29C8.86005 25.64 9.95004 26.73 11.29 26.73C12.64 26.73 13.73 25.64 13.73 24.29C13.73 22.95 12.64 21.86 11.29 21.86ZM11.29 21.86C9.95004 21.86 8.86005 22.95 8.86005 24.29C8.86005 25.64 9.95004 26.73 11.29 26.73C12.64 26.73 13.73 25.64 13.73 24.29C13.73 22.95 12.64 21.86 11.29 21.86ZM12.9301 12.8C11.5901 12.8 10.4901 13.9 10.4901 15.24C10.4901 16.58 11.5901 17.67 12.9301 17.67C14.2701 17.67 15.36 16.58 15.36 15.24C15.36 13.9 14.2701 12.8 12.9301 12.8ZM12.9301 12.8C11.5901 12.8 10.4901 13.9 10.4901 15.24C10.4901 16.58 11.5901 17.67 12.9301 17.67C14.2701 17.67 15.36 16.58 15.36 15.24C15.36 13.9 14.2701 12.8 12.9301 12.8ZM11.29 21.86C9.95004 21.86 8.86005 22.95 8.86005 24.29C8.86005 25.64 9.95004 26.73 11.29 26.73C12.64 26.73 13.73 25.64 13.73 24.29C13.73 22.95 12.64 21.86 11.29 21.86ZM11.29 21.86C9.95004 21.86 8.86005 22.95 8.86005 24.29C8.86005 25.64 9.95004 26.73 11.29 26.73C12.64 26.73 13.73 25.64 13.73 24.29C13.73 22.95 12.64 21.86 11.29 21.86ZM12.9301 12.8C11.5901 12.8 10.4901 13.9 10.4901 15.24C10.4901 16.58 11.5901 17.67 12.9301 17.67C14.2701 17.67 15.36 16.58 15.36 15.24C15.36 13.9 14.2701 12.8 12.9301 12.8ZM12.9301 12.8C11.5901 12.8 10.4901 13.9 10.4901 15.24C10.4901 16.58 11.5901 17.67 12.9301 17.67C14.2701 17.67 15.36 16.58 15.36 15.24C15.36 13.9 14.2701 12.8 12.9301 12.8ZM11.29 21.86C9.95004 21.86 8.86005 22.95 8.86005 24.29C8.86005 25.64 9.95004 26.73 11.29 26.73C12.64 26.73 13.73 25.64 13.73 24.29C13.73 22.95 12.64 21.86 11.29 21.86ZM11.29 21.86C9.95004 21.86 8.86005 22.95 8.86005 24.29C8.86005 25.64 9.95004 26.73 11.29 26.73C12.64 26.73 13.73 25.64 13.73 24.29C13.73 22.95 12.64 21.86 11.29 21.86ZM12.9301 12.8C11.5901 12.8 10.4901 13.9 10.4901 15.24C10.4901 16.58 11.5901 17.67 12.9301 17.67C14.2701 17.67 15.36 16.58 15.36 15.24C15.36 13.9 14.2701 12.8 12.9301 12.8ZM12.9301 12.8C11.5901 12.8 10.4901 13.9 10.4901 15.24C10.4901 16.58 11.5901 17.67 12.9301 17.67C14.2701 17.67 15.36 16.58 15.36 15.24C15.36 13.9 14.2701 12.8 12.9301 12.8ZM11.29 21.86C9.95004 21.86 8.86005 22.95 8.86005 24.29C8.86005 25.64 9.95004 26.73 11.29 26.73C12.64 26.73 13.73 25.64 13.73 24.29C13.73 22.95 12.64 21.86 11.29 21.86ZM11.29 21.86C9.95004 21.86 8.86005 22.95 8.86005 24.29C8.86005 25.64 9.95004 26.73 11.29 26.73C12.64 26.73 13.73 25.64 13.73 24.29C13.73 22.95 12.64 21.86 11.29 21.86ZM12.9301 12.8C11.5901 12.8 10.4901 13.9 10.4901 15.24C10.4901 16.58 11.5901 17.67 12.9301 17.67C14.2701 17.67 15.36 16.58 15.36 15.24C15.36 13.9 14.2701 12.8 12.9301 12.8ZM12.9301 12.8C11.5901 12.8 10.4901 13.9 10.4901 15.24C10.4901 16.58 11.5901 17.67 12.9301 17.67C14.2701 17.67 15.36 16.58 15.36 15.24C15.36 13.9 14.2701 12.8 12.9301 12.8ZM11.29 21.86C9.95004 21.86 8.86005 22.95 8.86005 24.29C8.86005 25.64 9.95004 26.73 11.29 26.73C12.64 26.73 13.73 25.64 13.73 24.29C13.73 22.95 12.64 21.86 11.29 21.86ZM11.29 21.86C9.95004 21.86 8.86005 22.95 8.86005 24.29C8.86005 25.64 9.95004 26.73 11.29 26.73C12.64 26.73 13.73 25.64 13.73 24.29C13.73 22.95 12.64 21.86 11.29 21.86ZM12.9301 12.8C11.5901 12.8 10.4901 13.9 10.4901 15.24C10.4901 16.58 11.5901 17.67 12.9301 17.67C14.2701 17.67 15.36 16.58 15.36 15.24C15.36 13.9 14.2701 12.8 12.9301 12.8ZM12.9301 12.8C11.5901 12.8 10.4901 13.9 10.4901 15.24C10.4901 16.58 11.5901 17.67 12.9301 17.67C14.2701 17.67 15.36 16.58 15.36 15.24C15.36 13.9 14.2701 12.8 12.9301 12.8ZM11.29 21.86C9.95004 21.86 8.86005 22.95 8.86005 24.29C8.86005 25.64 9.95004 26.73 11.29 26.73C12.64 26.73 13.73 25.64 13.73 24.29C13.73 22.95 12.64 21.86 11.29 21.86ZM11.29 21.86C9.95004 21.86 8.86005 22.95 8.86005 24.29C8.86005 25.64 9.95004 26.73 11.29 26.73C12.64 26.73 13.73 25.64 13.73 24.29C13.73 22.95 12.64 21.86 11.29 21.86ZM12.9301 12.8C11.5901 12.8 10.4901 13.9 10.4901 15.24C10.4901 16.58 11.5901 17.67 12.9301 17.67C14.2701 17.67 15.36 16.58 15.36 15.24C15.36 13.9 14.2701 12.8 12.9301 12.8ZM12.9301 12.8C11.5901 12.8 10.4901 13.9 10.4901 15.24C10.4901 16.58 11.5901 17.67 12.9301 17.67C14.2701 17.67 15.36 16.58 15.36 15.24C15.36 13.9 14.2701 12.8 12.9301 12.8ZM11.29 21.86C9.95004 21.86 8.86005 22.95 8.86005 24.29C8.86005 25.64 9.95004 26.73 11.29 26.73C12.64 26.73 13.73 25.64 13.73 24.29C13.73 22.95 12.64 21.86 11.29 21.86ZM11.29 21.86C9.95004 21.86 8.86005 22.95 8.86005 24.29C8.86005 25.64 9.95004 26.73 11.29 26.73C12.64 26.73 13.73 25.64 13.73 24.29C13.73 22.95 12.64 21.86 11.29 21.86ZM12.9301 12.8C11.5901 12.8 10.4901 13.9 10.4901 15.24C10.4901 16.58 11.5901 17.67 12.9301 17.67C14.2701 17.67 15.36 16.58 15.36 15.24C15.36 13.9 14.2701 12.8 12.9301 12.8ZM12.9301 12.8C11.5901 12.8 10.4901 13.9 10.4901 15.24C10.4901 16.58 11.5901 17.67 12.9301 17.67C14.2701 17.67 15.36 16.58 15.36 15.24C15.36 13.9 14.2701 12.8 12.9301 12.8ZM11.29 21.86C9.95004 21.86 8.86005 22.95 8.86005 24.29C8.86005 25.64 9.95004 26.73 11.29 26.73C12.64 26.73 13.73 25.64 13.73 24.29C13.73 22.95 12.64 21.86 11.29 21.86ZM11.29 21.86C9.95004 21.86 8.86005 22.95 8.86005 24.29C8.86005 25.64 9.95004 26.73 11.29 26.73C12.64 26.73 13.73 25.64 13.73 24.29C13.73 22.95 12.64 21.86 11.29 21.86ZM12.9301 12.8C11.5901 12.8 10.4901 13.9 10.4901 15.24C10.4901 16.58 11.5901 17.67 12.9301 17.67C14.2701 17.67 15.36 16.58 15.36 15.24C15.36 13.9 14.2701 12.8 12.9301 12.8ZM12.9301 12.8C11.5901 12.8 10.4901 13.9 10.4901 15.24C10.4901 16.58 11.5901 17.67 12.9301 17.67C14.2701 17.67 15.36 16.58 15.36 15.24C15.36 13.9 14.2701 12.8 12.9301 12.8ZM11.29 21.86C9.95004 21.86 8.86005 22.95 8.86005 24.29C8.86005 25.64 9.95004 26.73 11.29 26.73C12.64 26.73 13.73 25.64 13.73 24.29C13.73 22.95 12.64 21.86 11.29 21.86ZM11.29 21.86C9.95004 21.86 8.86005 22.95 8.86005 24.29C8.86005 25.64 9.95004 26.73 11.29 26.73C12.64 26.73 13.73 25.64 13.73 24.29C13.73 22.95 12.64 21.86 11.29 21.86ZM12.9301 12.8C11.5901 12.8 10.4901 13.9 10.4901 15.24C10.4901 16.58 11.5901 17.67 12.9301 17.67C14.2701 17.67 15.36 16.58 15.36 15.24C15.36 13.9 14.2701 12.8 12.9301 12.8ZM12.9301 12.8C11.5901 12.8 10.4901 13.9 10.4901 15.24C10.4901 16.58 11.5901 17.67 12.9301 17.67C14.2701 17.67 15.36 16.58 15.36 15.24C15.36 13.9 14.2701 12.8 12.9301 12.8ZM11.29 21.86C9.95004 21.86 8.86005 22.95 8.86005 24.29C8.86005 25.64 9.95004 26.73 11.29 26.73C12.64 26.73 13.73 25.64 13.73 24.29C13.73 22.95 12.64 21.86 11.29 21.86ZM11.29 21.86C9.95004 21.86 8.86005 22.95 8.86005 24.29C8.86005 25.64 9.95004 26.73 11.29 26.73C12.64 26.73 13.73 25.64 13.73 24.29C13.73 22.95 12.64 21.86 11.29 21.86ZM12.9301 12.8C11.5901 12.8 10.4901 13.9 10.4901 15.24C10.4901 16.58 11.5901 17.67 12.9301 17.67C14.2701 17.67 15.36 16.58 15.36 15.24C15.36 13.9 14.2701 12.8 12.9301 12.8ZM12.9301 12.8C11.5901 12.8 10.4901 13.9 10.4901 15.24C10.4901 16.58 11.5901 17.67 12.9301 17.67C14.2701 17.67 15.36 16.58 15.36 15.24C15.36 13.9 14.2701 12.8 12.9301 12.8ZM11.29 21.86C9.95004 21.86 8.86005 22.95 8.86005 24.29C8.86005 25.64 9.95004 26.73 11.29 26.73C12.64 26.73 13.73 25.64 13.73 24.29C13.73 22.95 12.64 21.86 11.29 21.86ZM11.29 21.86C9.95004 21.86 8.86005 22.95 8.86005 24.29C8.86005 25.64 9.95004 26.73 11.29 26.73C12.64 26.73 13.73 25.64 13.73 24.29C13.73 22.95 12.64 21.86 11.29 21.86ZM12.9301 12.8C11.5901 12.8 10.4901 13.9 10.4901 15.24C10.4901 16.58 11.5901 17.67 12.9301 17.67C14.2701 17.67 15.36 16.58 15.36 15.24C15.36 13.9 14.2701 12.8 12.9301 12.8ZM12.9301 12.8C11.5901 12.8 10.4901 13.9 10.4901 15.24C10.4901 16.58 11.5901 17.67 12.9301 17.67C14.2701 17.67 15.36 16.58 15.36 15.24C15.36 13.9 14.2701 12.8 12.9301 12.8ZM11.29 21.86C9.95004 21.86 8.86005 22.95 8.86005 24.29C8.86005 25.64 9.95004 26.73 11.29 26.73C12.64 26.73 13.73 25.64 13.73 24.29C13.73 22.95 12.64 21.86 11.29 21.86ZM11.29 21.86C9.95004 21.86 8.86005 22.95 8.86005 24.29C8.86005 25.64 9.95004 26.73 11.29 26.73C12.64 26.73 13.73 25.64 13.73 24.29C13.73 22.95 12.64 21.86 11.29 21.86ZM12.9301 12.8C11.5901 12.8 10.4901 13.9 10.4901 15.24C10.4901 16.58 11.5901 17.67 12.9301 17.67C14.2701 17.67 15.36 16.58 15.36 15.24C15.36 13.9 14.2701 12.8 12.9301 12.8ZM12.9301 12.8C11.5901 12.8 10.4901 13.9 10.4901 15.24C10.4901 16.58 11.5901 17.67 12.9301 17.67C14.2701 17.67 15.36 16.58 15.36 15.24C15.36 13.9 14.2701 12.8 12.9301 12.8ZM11.29 21.86C9.95004 21.86 8.86005 22.95 8.86005 24.29C8.86005 25.64 9.95004 26.73 11.29 26.73C12.64 26.73 13.73 25.64 13.73 24.29C13.73 22.95 12.64 21.86 11.29 21.86ZM11.29 21.86C9.95004 21.86 8.86005 22.95 8.86005 24.29C8.86005 25.64 9.95004 26.73 11.29 26.73C12.64 26.73 13.73 25.64 13.73 24.29C13.73 22.95 12.64 21.86 11.29 21.86ZM12.9301 12.8C11.5901 12.8 10.4901 13.9 10.4901 15.24C10.4901 16.58 11.5901 17.67 12.9301 17.67C14.2701 17.67 15.36 16.58 15.36 15.24C15.36 13.9 14.2701 12.8 12.9301 12.8ZM12.9301 12.8C11.5901 12.8 10.4901 13.9 10.4901 15.24C10.4901 16.58 11.5901 17.67 12.9301 17.67C14.2701 17.67 15.36 16.58 15.36 15.24C15.36 13.9 14.2701 12.8 12.9301 12.8ZM11.29 21.86C9.95004 21.86 8.86005 22.95 8.86005 24.29C8.86005 25.64 9.95004 26.73 11.29 26.73C12.64 26.73 13.73 25.64 13.73 24.29C13.73 22.95 12.64 21.86 11.29 21.86ZM30.52 9.37C27.79 6.87 24.1601 5.34998 20.1801 5.34998C11.7201 5.34998 4.86005 12.21 4.86005 20.67C4.86005 28.28 10.4101 34.59 17.6801 35.79C17.7301 35.8 17.79 35.81 17.84 35.81C17.89 35.82 17.93 35.83 17.97 35.83H18.1C19.15 35.83 20 34.99 20 33.93C20 33.44 19.81 32.99 19.51 32.66C19.49 32.64 19.46 32.62 19.44 32.6C18.33 31.45 17.65 29.89 17.65 28.17C17.65 24.66 20.49 21.81 24 21.81C25.28 21.81 26.46 22.19 27.45 22.83L28.48 20.07C26.86 19.74 25.64 18.31 25.64 16.6C25.64 14.64 27.2301 13.05 29.1801 13.05C29.3601 13.05 29.53 13.06 29.7 13.09C29.46 12.34 29.46 11.51 29.72 10.72C29.87 10.24 30.13 9.81 30.52 9.37ZM11.29 27.84C9.34004 27.84 7.75 26.25 7.75 24.29C7.75 22.34 9.34004 20.75 11.29 20.75C13.25 20.75 14.84 22.34 14.84 24.29C14.84 26.25 13.25 27.84 11.29 27.84ZM12.9301 18.78C10.9701 18.78 9.39001 17.19 9.39001 15.24C9.39001 13.28 10.9701 11.7 12.9301 11.7C14.8801 11.7 16.47 13.28 16.47 15.24C16.47 17.19 14.8801 18.78 12.9301 18.78ZM21.9 15.33C19.94 15.33 18.35 13.74 18.35 11.78C18.35 9.82997 19.94 8.23999 21.9 8.23999C23.85 8.23999 25.44 9.82997 25.44 11.78C25.44 13.74 23.85 15.33 21.9 15.33ZM12.9301 12.8C11.5901 12.8 10.4901 13.9 10.4901 15.24C10.4901 16.58 11.5901 17.67 12.9301 17.67C14.2701 17.67 15.36 16.58 15.36 15.24C15.36 13.9 14.2701 12.8 12.9301 12.8ZM11.29 21.86C9.95004 21.86 8.86005 22.95 8.86005 24.29C8.86005 25.64 9.95004 26.73 11.29 26.73C12.64 26.73 13.73 25.64 13.73 24.29C13.73 22.95 12.64 21.86 11.29 21.86ZM11.29 21.86C9.95004 21.86 8.86005 22.95 8.86005 24.29C8.86005 25.64 9.95004 26.73 11.29 26.73C12.64 26.73 13.73 25.64 13.73 24.29C13.73 22.95 12.64 21.86 11.29 21.86ZM12.9301 12.8C11.5901 12.8 10.4901 13.9 10.4901 15.24C10.4901 16.58 11.5901 17.67 12.9301 17.67C14.2701 17.67 15.36 16.58 15.36 15.24C15.36 13.9 14.2701 12.8 12.9301 12.8ZM12.9301 12.8C11.5901 12.8 10.4901 13.9 10.4901 15.24C10.4901 16.58 11.5901 17.67 12.9301 17.67C14.2701 17.67 15.36 16.58 15.36 15.24C15.36 13.9 14.2701 12.8 12.9301 12.8ZM11.29 21.86C9.95004 21.86 8.86005 22.95 8.86005 24.29C8.86005 25.64 9.95004 26.73 11.29 26.73C12.64 26.73 13.73 25.64 13.73 24.29C13.73 22.95 12.64 21.86 11.29 21.86ZM11.29 21.86C9.95004 21.86 8.86005 22.95 8.86005 24.29C8.86005 25.64 9.95004 26.73 11.29 26.73C12.64 26.73 13.73 25.64 13.73 24.29C13.73 22.95 12.64 21.86 11.29 21.86ZM12.9301 12.8C11.5901 12.8 10.4901 13.9 10.4901 15.24C10.4901 16.58 11.5901 17.67 12.9301 17.67C14.2701 17.67 15.36 16.58 15.36 15.24C15.36 13.9 14.2701 12.8 12.9301 12.8ZM12.9301 12.8C11.5901 12.8 10.4901 13.9 10.4901 15.24C10.4901 16.58 11.5901 17.67 12.9301 17.67C14.2701 17.67 15.36 16.58 15.36 15.24C15.36 13.9 14.2701 12.8 12.9301 12.8ZM11.29 21.86C9.95004 21.86 8.86005 22.95 8.86005 24.29C8.86005 25.64 9.95004 26.73 11.29 26.73C12.64 26.73 13.73 25.64 13.73 24.29C13.73 22.95 12.64 21.86 11.29 21.86ZM11.29 21.86C9.95004 21.86 8.86005 22.95 8.86005 24.29C8.86005 25.64 9.95004 26.73 11.29 26.73C12.64 26.73 13.73 25.64 13.73 24.29C13.73 22.95 12.64 21.86 11.29 21.86ZM12.9301 12.8C11.5901 12.8 10.4901 13.9 10.4901 15.24C10.4901 16.58 11.5901 17.67 12.9301 17.67C14.2701 17.67 15.36 16.58 15.36 15.24C15.36 13.9 14.2701 12.8 12.9301 12.8ZM12.9301 12.8C11.5901 12.8 10.4901 13.9 10.4901 15.24C10.4901 16.58 11.5901 17.67 12.9301 17.67C14.2701 17.67 15.36 16.58 15.36 15.24C15.36 13.9 14.2701 12.8 12.9301 12.8ZM11.29 21.86C9.95004 21.86 8.86005 22.95 8.86005 24.29C8.86005 25.64 9.95004 26.73 11.29 26.73C12.64 26.73 13.73 25.64 13.73 24.29C13.73 22.95 12.64 21.86 11.29 21.86ZM11.29 21.86C9.95004 21.86 8.86005 22.95 8.86005 24.29C8.86005 25.64 9.95004 26.73 11.29 26.73C12.64 26.73 13.73 25.64 13.73 24.29C13.73 22.95 12.64 21.86 11.29 21.86ZM12.9301 12.8C11.5901 12.8 10.4901 13.9 10.4901 15.24C10.4901 16.58 11.5901 17.67 12.9301 17.67C14.2701 17.67 15.36 16.58 15.36 15.24C15.36 13.9 14.2701 12.8 12.9301 12.8ZM12.9301 12.8C11.5901 12.8 10.4901 13.9 10.4901 15.24C10.4901 16.58 11.5901 17.67 12.9301 17.67C14.2701 17.67 15.36 16.58 15.36 15.24C15.36 13.9 14.2701 12.8 12.9301 12.8ZM11.29 21.86C9.95004 21.86 8.86005 22.95 8.86005 24.29C8.86005 25.64 9.95004 26.73 11.29 26.73C12.64 26.73 13.73 25.64 13.73 24.29C13.73 22.95 12.64 21.86 11.29 21.86ZM11.29 21.86C9.95004 21.86 8.86005 22.95 8.86005 24.29C8.86005 25.64 9.95004 26.73 11.29 26.73C12.64 26.73 13.73 25.64 13.73 24.29C13.73 22.95 12.64 21.86 11.29 21.86ZM12.9301 12.8C11.5901 12.8 10.4901 13.9 10.4901 15.24C10.4901 16.58 11.5901 17.67 12.9301 17.67C14.2701 17.67 15.36 16.58 15.36 15.24C15.36 13.9 14.2701 12.8 12.9301 12.8ZM12.9301 12.8C11.5901 12.8 10.4901 13.9 10.4901 15.24C10.4901 16.58 11.5901 17.67 12.9301 17.67C14.2701 17.67 15.36 16.58 15.36 15.24C15.36 13.9 14.2701 12.8 12.9301 12.8ZM11.29 21.86C9.95004 21.86 8.86005 22.95 8.86005 24.29C8.86005 25.64 9.95004 26.73 11.29 26.73C12.64 26.73 13.73 25.64 13.73 24.29C13.73 22.95 12.64 21.86 11.29 21.86ZM11.29 21.86C9.95004 21.86 8.86005 22.95 8.86005 24.29C8.86005 25.64 9.95004 26.73 11.29 26.73C12.64 26.73 13.73 25.64 13.73 24.29C13.73 22.95 12.64 21.86 11.29 21.86ZM12.9301 12.8C11.5901 12.8 10.4901 13.9 10.4901 15.24C10.4901 16.58 11.5901 17.67 12.9301 17.67C14.2701 17.67 15.36 16.58 15.36 15.24C15.36 13.9 14.2701 12.8 12.9301 12.8ZM12.9301 12.8C11.5901 12.8 10.4901 13.9 10.4901 15.24C10.4901 16.58 11.5901 17.67 12.9301 17.67C14.2701 17.67 15.36 16.58 15.36 15.24C15.36 13.9 14.2701 12.8 12.9301 12.8ZM11.29 21.86C9.95004 21.86 8.86005 22.95 8.86005 24.29C8.86005 25.64 9.95004 26.73 11.29 26.73C12.64 26.73 13.73 25.64 13.73 24.29C13.73 22.95 12.64 21.86 11.29 21.86ZM11.29 21.86C9.95004 21.86 8.86005 22.95 8.86005 24.29C8.86005 25.64 9.95004 26.73 11.29 26.73C12.64 26.73 13.73 25.64 13.73 24.29C13.73 22.95 12.64 21.86 11.29 21.86ZM12.9301 12.8C11.5901 12.8 10.4901 13.9 10.4901 15.24C10.4901 16.58 11.5901 17.67 12.9301 17.67C14.2701 17.67 15.36 16.58 15.36 15.24C15.36 13.9 14.2701 12.8 12.9301 12.8ZM12.9301 12.8C11.5901 12.8 10.4901 13.9 10.4901 15.24C10.4901 16.58 11.5901 17.67 12.9301 17.67C14.2701 17.67 15.36 16.58 15.36 15.24C15.36 13.9 14.2701 12.8 12.9301 12.8ZM11.29 21.86C9.95004 21.86 8.86005 22.95 8.86005 24.29C8.86005 25.64 9.95004 26.73 11.29 26.73C12.64 26.73 13.73 25.64 13.73 24.29C13.73 22.95 12.64 21.86 11.29 21.86ZM11.29 21.86C9.95004 21.86 8.86005 22.95 8.86005 24.29C8.86005 25.64 9.95004 26.73 11.29 26.73C12.64 26.73 13.73 25.64 13.73 24.29C13.73 22.95 12.64 21.86 11.29 21.86ZM12.9301 12.8C11.5901 12.8 10.4901 13.9 10.4901 15.24C10.4901 16.58 11.5901 17.67 12.9301 17.67C14.2701 17.67 15.36 16.58 15.36 15.24C15.36 13.9 14.2701 12.8 12.9301 12.8ZM12.9301 12.8C11.5901 12.8 10.4901 13.9 10.4901 15.24C10.4901 16.58 11.5901 17.67 12.9301 17.67C14.2701 17.67 15.36 16.58 15.36 15.24C15.36 13.9 14.2701 12.8 12.9301 12.8ZM11.29 21.86C9.95004 21.86 8.86005 22.95 8.86005 24.29C8.86005 25.64 9.95004 26.73 11.29 26.73C12.64 26.73 13.73 25.64 13.73 24.29C13.73 22.95 12.64 21.86 11.29 21.86ZM11.29 21.86C9.95004 21.86 8.86005 22.95 8.86005 24.29C8.86005 25.64 9.95004 26.73 11.29 26.73C12.64 26.73 13.73 25.64 13.73 24.29C13.73 22.95 12.64 21.86 11.29 21.86ZM12.9301 12.8C11.5901 12.8 10.4901 13.9 10.4901 15.24C10.4901 16.58 11.5901 17.67 12.9301 17.67C14.2701 17.67 15.36 16.58 15.36 15.24C15.36 13.9 14.2701 12.8 12.9301 12.8ZM12.9301 12.8C11.5901 12.8 10.4901 13.9 10.4901 15.24C10.4901 16.58 11.5901 17.67 12.9301 17.67C14.2701 17.67 15.36 16.58 15.36 15.24C15.36 13.9 14.2701 12.8 12.9301 12.8ZM11.29 21.86C9.95004 21.86 8.86005 22.95 8.86005 24.29C8.86005 25.64 9.95004 26.73 11.29 26.73C12.64 26.73 13.73 25.64 13.73 24.29C13.73 22.95 12.64 21.86 11.29 21.86ZM11.29 21.86C9.95004 21.86 8.86005 22.95 8.86005 24.29C8.86005 25.64 9.95004 26.73 11.29 26.73C12.64 26.73 13.73 25.64 13.73 24.29C13.73 22.95 12.64 21.86 11.29 21.86ZM12.9301 12.8C11.5901 12.8 10.4901 13.9 10.4901 15.24C10.4901 16.58 11.5901 17.67 12.9301 17.67C14.2701 17.67 15.36 16.58 15.36 15.24C15.36 13.9 14.2701 12.8 12.9301 12.8ZM12.9301 12.8C11.5901 12.8 10.4901 13.9 10.4901 15.24C10.4901 16.58 11.5901 17.67 12.9301 17.67C14.2701 17.67 15.36 16.58 15.36 15.24C15.36 13.9 14.2701 12.8 12.9301 12.8ZM11.29 21.86C9.95004 21.86 8.86005 22.95 8.86005 24.29C8.86005 25.64 9.95004 26.73 11.29 26.73C12.64 26.73 13.73 25.64 13.73 24.29C13.73 22.95 12.64 21.86 11.29 21.86ZM11.29 21.86C9.95004 21.86 8.86005 22.95 8.86005 24.29C8.86005 25.64 9.95004 26.73 11.29 26.73C12.64 26.73 13.73 25.64 13.73 24.29C13.73 22.95 12.64 21.86 11.29 21.86ZM12.9301 12.8C11.5901 12.8 10.4901 13.9 10.4901 15.24C10.4901 16.58 11.5901 17.67 12.9301 17.67C14.2701 17.67 15.36 16.58 15.36 15.24C15.36 13.9 14.2701 12.8 12.9301 12.8ZM12.9301 12.8C11.5901 12.8 10.4901 13.9 10.4901 15.24C10.4901 16.58 11.5901 17.67 12.9301 17.67C14.2701 17.67 15.36 16.58 15.36 15.24C15.36 13.9 14.2701 12.8 12.9301 12.8ZM11.29 21.86C9.95004 21.86 8.86005 22.95 8.86005 24.29C8.86005 25.64 9.95004 26.73 11.29 26.73C12.64 26.73 13.73 25.64 13.73 24.29C13.73 22.95 12.64 21.86 11.29 21.86ZM11.29 21.86C9.95004 21.86 8.86005 22.95 8.86005 24.29C8.86005 25.64 9.95004 26.73 11.29 26.73C12.64 26.73 13.73 25.64 13.73 24.29C13.73 22.95 12.64 21.86 11.29 21.86ZM12.9301 12.8C11.5901 12.8 10.4901 13.9 10.4901 15.24C10.4901 16.58 11.5901 17.67 12.9301 17.67C14.2701 17.67 15.36 16.58 15.36 15.24C15.36 13.9 14.2701 12.8 12.9301 12.8ZM12.9301 12.8C11.5901 12.8 10.4901 13.9 10.4901 15.24C10.4901 16.58 11.5901 17.67 12.9301 17.67C14.2701 17.67 15.36 16.58 15.36 15.24C15.36 13.9 14.2701 12.8 12.9301 12.8ZM11.29 21.86C9.95004 21.86 8.86005 22.95 8.86005 24.29C8.86005 25.64 9.95004 26.73 11.29 26.73C12.64 26.73 13.73 25.64 13.73 24.29C13.73 22.95 12.64 21.86 11.29 21.86ZM11.29 21.86C9.95004 21.86 8.86005 22.95 8.86005 24.29C8.86005 25.64 9.95004 26.73 11.29 26.73C12.64 26.73 13.73 25.64 13.73 24.29C13.73 22.95 12.64 21.86 11.29 21.86ZM12.9301 12.8C11.5901 12.8 10.4901 13.9 10.4901 15.24C10.4901 16.58 11.5901 17.67 12.9301 17.67C14.2701 17.67 15.36 16.58 15.36 15.24C15.36 13.9 14.2701 12.8 12.9301 12.8ZM12.9301 12.8C11.5901 12.8 10.4901 13.9 10.4901 15.24C10.4901 16.58 11.5901 17.67 12.9301 17.67C14.2701 17.67 15.36 16.58 15.36 15.24C15.36 13.9 14.2701 12.8 12.9301 12.8ZM11.29 21.86C9.95004 21.86 8.86005 22.95 8.86005 24.29C8.86005 25.64 9.95004 26.73 11.29 26.73C12.64 26.73 13.73 25.64 13.73 24.29C13.73 22.95 12.64 21.86 11.29 21.86ZM11.29 21.86C9.95004 21.86 8.86005 22.95 8.86005 24.29C8.86005 25.64 9.95004 26.73 11.29 26.73C12.64 26.73 13.73 25.64 13.73 24.29C13.73 22.95 12.64 21.86 11.29 21.86ZM12.9301 12.8C11.5901 12.8 10.4901 13.9 10.4901 15.24C10.4901 16.58 11.5901 17.67 12.9301 17.67C14.2701 17.67 15.36 16.58 15.36 15.24C15.36 13.9 14.2701 12.8 12.9301 12.8ZM31.63 18.32C31.69 18.28 31.75 18.21 31.77 18.13C31.78 18.11 31.78 18.09 31.78 18.07C31.73 18.16 31.67 18.24 31.63 18.32ZM31.8 15.16C31.76 15.16 31.73 15.15 31.7 15.14L31.81 15.17C31.8 15.17 31.8 15.16 31.8 15.16ZM29.1801 14.16C27.8401 14.16 26.75 15.25 26.75 16.6C26.75 17.84 27.68 18.8599 28.88 19.0099L29.04 18.57C28.72 18.19 28.59 17.65 28.76 17.13C28.88 16.75 29.15 16.4399 29.51 16.2599C29.57 16.2299 29.6201 16.21 29.6801 16.19L30.26 14.41C29.93 14.25 29.5601 14.16 29.1801 14.16ZM12.9301 12.8C11.5901 12.8 10.4901 13.9 10.4901 15.24C10.4901 16.58 11.5901 17.67 12.9301 17.67C14.2701 17.67 15.36 16.58 15.36 15.24C15.36 13.9 14.2701 12.8 12.9301 12.8ZM11.29 21.86C9.95004 21.86 8.86005 22.95 8.86005 24.29C8.86005 25.64 9.95004 26.73 11.29 26.73C12.64 26.73 13.73 25.64 13.73 24.29C13.73 22.95 12.64 21.86 11.29 21.86ZM11.29 21.86C9.95004 21.86 8.86005 22.95 8.86005 24.29C8.86005 25.64 9.95004 26.73 11.29 26.73C12.64 26.73 13.73 25.64 13.73 24.29C13.73 22.95 12.64 21.86 11.29 21.86ZM12.9301 12.8C11.5901 12.8 10.4901 13.9 10.4901 15.24C10.4901 16.58 11.5901 17.67 12.9301 17.67C14.2701 17.67 15.36 16.58 15.36 15.24C15.36 13.9 14.2701 12.8 12.9301 12.8ZM12.9301 12.8C11.5901 12.8 10.4901 13.9 10.4901 15.24C10.4901 16.58 11.5901 17.67 12.9301 17.67C14.2701 17.67 15.36 16.58 15.36 15.24C15.36 13.9 14.2701 12.8 12.9301 12.8ZM11.29 21.86C9.95004 21.86 8.86005 22.95 8.86005 24.29C8.86005 25.64 9.95004 26.73 11.29 26.73C12.64 26.73 13.73 25.64 13.73 24.29C13.73 22.95 12.64 21.86 11.29 21.86ZM11.29 21.86C9.95004 21.86 8.86005 22.95 8.86005 24.29C8.86005 25.64 9.95004 26.73 11.29 26.73C12.64 26.73 13.73 25.64 13.73 24.29C13.73 22.95 12.64 21.86 11.29 21.86ZM12.9301 12.8C11.5901 12.8 10.4901 13.9 10.4901 15.24C10.4901 16.58 11.5901 17.67 12.9301 17.67C14.2701 17.67 15.36 16.58 15.36 15.24C15.36 13.9 14.2701 12.8 12.9301 12.8ZM12.9301 12.8C11.5901 12.8 10.4901 13.9 10.4901 15.24C10.4901 16.58 11.5901 17.67 12.9301 17.67C14.2701 17.67 15.36 16.58 15.36 15.24C15.36 13.9 14.2701 12.8 12.9301 12.8ZM11.29 21.86C9.95004 21.86 8.86005 22.95 8.86005 24.29C8.86005 25.64 9.95004 26.73 11.29 26.73C12.64 26.73 13.73 25.64 13.73 24.29C13.73 22.95 12.64 21.86 11.29 21.86ZM11.29 21.86C9.95004 21.86 8.86005 22.95 8.86005 24.29C8.86005 25.64 9.95004 26.73 11.29 26.73C12.64 26.73 13.73 25.64 13.73 24.29C13.73 22.95 12.64 21.86 11.29 21.86ZM12.9301 12.8C11.5901 12.8 10.4901 13.9 10.4901 15.24C10.4901 16.58 11.5901 17.67 12.9301 17.67C14.2701 17.67 15.36 16.58 15.36 15.24C15.36 13.9 14.2701 12.8 12.9301 12.8ZM12.9301 12.8C11.5901 12.8 10.4901 13.9 10.4901 15.24C10.4901 16.58 11.5901 17.67 12.9301 17.67C14.2701 17.67 15.36 16.58 15.36 15.24C15.36 13.9 14.2701 12.8 12.9301 12.8ZM11.29 21.86C9.95004 21.86 8.86005 22.95 8.86005 24.29C8.86005 25.64 9.95004 26.73 11.29 26.73C12.64 26.73 13.73 25.64 13.73 24.29C13.73 22.95 12.64 21.86 11.29 21.86ZM11.29 21.86C9.95004 21.86 8.86005 22.95 8.86005 24.29C8.86005 25.64 9.95004 26.73 11.29 26.73C12.64 26.73 13.73 25.64 13.73 24.29C13.73 22.95 12.64 21.86 11.29 21.86ZM12.9301 12.8C11.5901 12.8 10.4901 13.9 10.4901 15.24C10.4901 16.58 11.5901 17.67 12.9301 17.67C14.2701 17.67 15.36 16.58 15.36 15.24C15.36 13.9 14.2701 12.8 12.9301 12.8ZM12.9301 12.8C11.5901 12.8 10.4901 13.9 10.4901 15.24C10.4901 16.58 11.5901 17.67 12.9301 17.67C14.2701 17.67 15.36 16.58 15.36 15.24C15.36 13.9 14.2701 12.8 12.9301 12.8ZM11.29 21.86C9.95004 21.86 8.86005 22.95 8.86005 24.29C8.86005 25.64 9.95004 26.73 11.29 26.73C12.64 26.73 13.73 25.64 13.73 24.29C13.73 22.95 12.64 21.86 11.29 21.86Z" fill="white"/>
<path d="M30.26 14.41L29.6801 16.19C29.6201 16.21 29.57 16.2299 29.51 16.2599C29.15 16.4399 28.88 16.75 28.76 17.13C28.59 17.65 28.72 18.19 29.04 18.57L28.88 19.0099C27.68 18.8599 26.75 17.84 26.75 16.6C26.75 15.25 27.8401 14.16 29.1801 14.16C29.5601 14.16 29.93 14.25 30.26 14.41Z" fill="#F0852B"/>
<path d="M31.81 15.17L31.7 15.14C31.73 15.15 31.76 15.16 31.8 15.16C31.8 15.16 31.8 15.17 31.81 15.17Z" fill="#F5F5F5"/>
<path d="M31.63 18.32C31.69 18.28 31.75 18.21 31.77 18.13C31.78 18.11 31.78 18.09 31.78 18.07C31.73 18.16 31.67 18.24 31.63 18.32ZM31.8 15.16C31.76 15.16 31.73 15.15 31.7 15.14L31.81 15.17C31.8 15.17 31.8 15.16 31.8 15.16Z" fill="#353535"/>
<path d="M36.8 19.32C36.8 19.22 36.79 19.1199 36.77 19.0099C36.59 17.1299 36.1 15.35 35.35 13.72C35.55 13.42 35.71 13.09 35.83 12.73C36 12.23 36.0501 11.7 35.9901 11.09C35.9401 10.59 35.84 10.12 35.73 9.65997C35.68 9.43997 35.63 9.22996 35.59 9.01996C35.42 8.11996 34.99 6.58996 34.97 6.51996L34.75 5.72998L34.1 6.23999C34.04 6.27999 32.79 7.25 32.11 7.88C31.95 8.02 31.7901 8.16 31.6201 8.31C31.5801 8.34 31.55 8.36997 31.51 8.40997C28.53 5.65997 24.5501 4 20.1801 4C10.9801 4 3.5 11.48 3.5 20.67C3.5 28.86 9.35004 35.77 17.42 37.12C17.5 37.13 17.58 37.15 17.66 37.16C17.73 37.17 17.8001 37.18 17.8701 37.18C17.9501 37.19 18.03 37.19 18.1 37.19C19.9 37.19 21.36 35.73 21.36 33.93C21.36 33.12 21.05 32.34 20.46 31.7L20.42 31.65C19.51 30.71 19 29.48 19 28.17C19 25.41 21.25 23.17 24 23.17C25.09 23.17 26.12 23.51 26.96 24.14L24.1201 31.75C23.8701 32.43 23.78 33.18 23.84 33.91L23.97 35.42C24.01 35.84 24.29 36.2 24.7 36.34C24.81 36.37 24.92 36.39 25.03 36.39C25.33 36.39 25.62 36.26 25.83 36.02L26.82 34.87C27.3 34.32 27.65 33.69 27.86 32.99L29.98 25.56C30.28 25.61 30.59 25.63 30.89 25.63C34.16 25.63 36.81 22.97 36.81 19.7C36.81 19.61 36.81 19.47 36.8 19.32ZM31.31 10.15C31.33 10.11 31.37 10.08 31.4 10.04C31.67 9.73998 31.99 9.46 32.3 9.19C32.32 9.18 32.33 9.15996 32.35 9.14996C32.52 8.99996 32.7 8.85 32.86 8.69C33.2 8.38 33.7101 7.96 34.1201 7.63C34.2501 8.14 34.42 8.77998 34.5 9.22998C34.54 9.44998 34.6 9.67997 34.65 9.90997C34.75 10.33 34.85 10.77 34.89 11.19C34.91 11.41 34.91 11.62 34.89 11.81L34.88 11.8C34.78 11.86 34.62 11.92 34.59 11.92C34.59 11.92 34.53 11.84 34.52 11.53C34.52 11.45 34.47 9.48995 33.56 9.19995C33.49 9.17995 33.42 9.16998 33.33 9.16998C33.27 9.16998 33.21 9.17995 33.14 9.19995C33.09 9.20995 33.05 9.22 33 9.25C32.97 9.26 32.94 9.27999 32.91 9.29999C32.85 9.32999 32.78 9.38 32.72 9.44C32.69 9.47 32.6501 9.49998 32.6201 9.53998C32.5701 9.58998 32.52 9.64997 32.47 9.71997C32.25 10.04 31.9901 10.23 31.7401 10.34C31.6801 10.37 31.62 10.39 31.56 10.4H31.55C31.48 10.42 31.4201 10.44 31.3701 10.44C31.3101 10.45 31.26 10.46 31.21 10.46C31.16 10.47 31.11 10.47 31.06 10.47C31.13 10.36 31.21 10.26 31.31 10.15ZM30.67 11.49C30.86 11.52 31.22 11.54 31.64 11.47C31.66 11.46 31.69 11.46 31.72 11.45C31.73 11.45 31.74 11.44 31.75 11.44C31.81 11.43 31.8701 11.41 31.9301 11.39C32.0401 11.35 32.15 11.3099 32.26 11.2599C32.28 11.2499 32.31 11.24 32.33 11.22C32.39 11.2 32.45 11.16 32.51 11.12C32.6 11.07 32.69 11 32.78 10.93C32.86 10.86 32.94 10.79 33.01 10.71C33.11 10.61 33.19 10.5 33.28 10.38C33.38 10.69 33.47 11.21 33.48 11.55C33.49 12.19 33.7 12.63 34.09 12.83C34.24 12.9 34.38 12.94 34.52 12.94C34.43 13.1 34.33 13.24 34.21 13.37C34.16 13.43 34.1 13.49 34.04 13.55C34.03 13.56 34.02 13.57 34.01 13.58C33.95 13.63 33.89 13.68 33.83 13.72C33.76 13.78 33.69 13.83 33.61 13.87C33.1 14.17 32.53 14.25 32 14.07C31.48 13.9 31.06 13.51 30.83 12.95C30.63 12.5 30.58 11.99 30.67 11.49ZM29.04 18.57L28.88 19.0099C27.68 18.8599 26.75 17.84 26.75 16.6C26.75 15.25 27.8401 14.16 29.1801 14.16C29.5601 14.16 29.93 14.25 30.26 14.41L29.6801 16.19C29.6201 16.21 29.57 16.2299 29.51 16.2599C29.15 16.4399 28.88 16.75 28.76 17.13C28.59 17.65 28.72 18.19 29.04 18.57ZM29.81 17.48C29.84 17.38 29.91 17.3 30.01 17.25C30.1 17.21 30.21 17.2 30.31 17.23L31.41 17.59L31.52 17.63C31.62 17.66 31.7 17.73 31.75 17.83C31.79 17.9 31.8 17.98 31.78 18.06V18.07C31.78 18.09 31.78 18.11 31.77 18.13C31.75 18.21 31.69 18.28 31.63 18.32C31.62 18.33 31.6201 18.33 31.6201 18.33C31.5301 18.39 31.41 18.41 31.3 18.38C31.29 18.38 31.29 18.38 31.28 18.38L30.95 18.27L30.06 17.98C29.96 17.95 29.88 17.88 29.83 17.78C29.78 17.69 29.78 17.58 29.81 17.48ZM31.72 16.33L31.6 16.29L30.89 16.06L31.1801 15.19L31.2401 14.99L31.61 15.11L31.7 15.14C31.73 15.15 31.76 15.16 31.8 15.16C31.8 15.16 31.8 15.17 31.81 15.17V15.18L32.07 15.2599L31.97 15.56L31.72 16.33ZM24 21.81C20.49 21.81 17.65 24.66 17.65 28.17C17.65 29.89 18.33 31.45 19.44 32.6C19.46 32.62 19.49 32.64 19.51 32.66C19.81 32.99 20 33.44 20 33.93C20 34.99 19.15 35.83 18.1 35.83H17.97C17.93 35.83 17.89 35.82 17.84 35.81C17.79 35.81 17.7301 35.8 17.6801 35.79C10.4101 34.59 4.86005 28.28 4.86005 20.67C4.86005 12.21 11.7201 5.34998 20.1801 5.34998C24.1601 5.34998 27.79 6.87 30.52 9.37C30.13 9.81 29.87 10.24 29.72 10.72C29.46 11.51 29.46 12.34 29.7 13.09C29.53 13.06 29.3601 13.05 29.1801 13.05C27.2301 13.05 25.64 14.64 25.64 16.6C25.64 18.31 26.86 19.74 28.48 20.07L27.45 22.83C26.46 22.19 25.28 21.81 24 21.81ZM29.28 23.96L28.9 25.28L26.79 32.68C26.63 33.22 26.36 33.72 25.98 34.14L25.07 35.2L24.94 33.81C24.89 33.24 24.97 32.66 25.16 32.13L27.9 24.81L28.38 23.5099L29.66 20.1L29.88 19.5099L30.02 19.13L30.4901 19.28V19.29L30.6 19.32L30.4301 19.91L29.28 23.96ZM35.46 19.79C35.41 22.27 33.38 24.27 30.89 24.27C30.71 24.27 30.53 24.26 30.36 24.23L31.71 19.47C32.22 19.37 32.66 19 32.83 18.47C32.95 18.09 32.9201 17.69 32.7401 17.33C32.7201 17.29 32.7 17.26 32.67 17.22C32.66 17.2 32.6501 17.17 32.6201 17.15L32.72 16.86L33.26 15.19C33.57 15.12 33.8801 14.99 34.1801 14.82C34.2201 14.8 34.26 14.77 34.3 14.74C34.89 16.13 35.27 17.62 35.42 19.19C35.44 19.25 35.44 19.3 35.44 19.37V19.41C35.46 19.5 35.46 19.6 35.46 19.7V19.79V19.79Z" fill="black"/>
<path d="M35.46 19.7V19.79C35.41 22.27 33.38 24.27 30.89 24.27C30.71 24.27 30.53 24.26 30.36 24.23L31.71 19.47C32.22 19.37 32.66 19 32.83 18.47C32.95 18.09 32.9201 17.69 32.7401 17.33C32.7201 17.29 32.7 17.26 32.67 17.22C32.66 17.2 32.6501 17.17 32.6201 17.15L32.72 16.86L33.26 15.19C33.57 15.12 33.8801 14.99 34.1801 14.82C34.2201 14.8 34.26 14.77 34.3 14.74C34.89 16.13 35.27 17.62 35.42 19.19C35.44 19.25 35.44 19.3 35.44 19.37V19.41C35.46 19.5 35.46 19.6 35.46 19.7Z" fill="white"/>
<path d="M24.33 11.78C24.33 13.12 23.24 14.22 21.9 14.22C20.55 14.22 19.46 13.12 19.46 11.78C19.46 10.44 20.55 9.34998 21.9 9.34998C23.24 9.34998 24.33 10.44 24.33 11.78Z" fill="#00C9EA"/>
<path d="M21.9 8.23999C19.94 8.23999 18.35 9.82997 18.35 11.78C18.35 13.74 19.94 15.33 21.9 15.33C23.85 15.33 25.44 13.74 25.44 11.78C25.44 9.82997 23.85 8.23999 21.9 8.23999ZM21.9 14.22C20.55 14.22 19.46 13.12 19.46 11.78C19.46 10.44 20.55 9.34998 21.9 9.34998C23.24 9.34998 24.33 10.44 24.33 11.78C24.33 13.12 23.24 14.22 21.9 14.22Z" fill="black"/>
<path d="M15.36 15.24C15.36 16.58 14.2701 17.67 12.9301 17.67C11.5901 17.67 10.4901 16.58 10.4901 15.24C10.4901 13.9 11.5901 12.8 12.9301 12.8C14.2701 12.8 15.36 13.9 15.36 15.24Z" fill="#196B8C"/>
<path d="M12.9301 11.7C10.9701 11.7 9.39001 13.28 9.39001 15.24C9.39001 17.19 10.9701 18.78 12.9301 18.78C14.8801 18.78 16.47 17.19 16.47 15.24C16.47 13.28 14.8801 11.7 12.9301 11.7ZM12.9301 17.67C11.5901 17.67 10.4901 16.58 10.4901 15.24C10.4901 13.9 11.5901 12.8 12.9301 12.8C14.2701 12.8 15.36 13.9 15.36 15.24C15.36 16.58 14.2701 17.67 12.9301 17.67Z" fill="black"/>
<path d="M13.73 24.29C13.73 25.64 12.64 26.73 11.29 26.73C9.95004 26.73 8.86005 25.64 8.86005 24.29C8.86005 22.95 9.95004 21.86 11.29 21.86C12.64 21.86 13.73 22.95 13.73 24.29Z" fill="#E63B2D"/>
<path d="M11.29 20.75C9.34004 20.75 7.75 22.34 7.75 24.29C7.75 26.25 9.34004 27.84 11.29 27.84C13.25 27.84 14.84 26.25 14.84 24.29C14.84 22.34 13.25 20.75 11.29 20.75ZM11.29 26.73C9.95004 26.73 8.86005 25.64 8.86005 24.29C8.86005 22.95 9.95004 21.86 11.29 21.86C12.64 21.86 13.73 22.95 13.73 24.29C13.73 25.64 12.64 26.73 11.29 26.73Z" fill="black"/>
<path d="M31.81 15.17L31.7 15.14C31.73 15.15 31.76 15.16 31.8 15.16C31.8 15.16 31.8 15.17 31.81 15.17Z" fill="white"/>
<path d="M31.78 18.07C31.78 18.09 31.78 18.11 31.77 18.13C31.75 18.21 31.69 18.28 31.63 18.32C31.67 18.24 31.73 18.16 31.78 18.07Z" fill="white"/>
<path d="M34.52 12.94C34.43 13.1 34.33 13.24 34.21 13.37C34.16 13.43 34.1 13.49 34.04 13.55C34.03 13.56 34.02 13.57 34.01 13.58C33.95 13.63 33.89 13.68 33.83 13.72C33.76 13.78 33.69 13.83 33.61 13.87C33.1 14.17 32.53 14.25 32 14.07C31.48 13.9 31.06 13.51 30.83 12.95C30.63 12.5 30.58 11.99 30.67 11.49C30.86 11.52 31.22 11.54 31.64 11.47C31.66 11.46 31.69 11.46 31.72 11.45C31.73 11.45 31.74 11.44 31.75 11.44C31.81 11.43 31.87 11.41 31.93 11.39C32.04 11.35 32.15 11.3099 32.26 11.2599C32.28 11.2499 32.31 11.24 32.33 11.22C32.39 11.2 32.45 11.16 32.51 11.12C32.6 11.07 32.69 11 32.78 10.93C32.86 10.86 32.94 10.79 33.01 10.71C33.11 10.61 33.19 10.5 33.28 10.38C33.38 10.69 33.47 11.21 33.48 11.55C33.49 12.19 33.7 12.63 34.09 12.83C34.24 12.9 34.38 12.94 34.52 12.94Z" fill="#925F36"/>
<path d="M34.89 11.19C34.91 11.41 34.91 11.62 34.89 11.81L34.88 11.8C34.78 11.86 34.62 11.92 34.59 11.92C34.59 11.92 34.53 11.84 34.52 11.53C34.52 11.45 34.47 9.48995 33.56 9.19995C33.49 9.17995 33.42 9.16998 33.33 9.16998C33.27 9.16998 33.21 9.17995 33.14 9.19995C33.09 9.20995 33.05 9.22 33 9.25C32.97 9.26 32.94 9.27999 32.91 9.29999C32.85 9.32999 32.78 9.38 32.72 9.44C32.69 9.47 32.6501 9.49998 32.6201 9.53998C32.5701 9.58998 32.52 9.64997 32.47 9.71997C32.25 10.04 31.9901 10.23 31.7401 10.34C31.6801 10.37 31.62 10.39 31.56 10.4H31.55C31.48 10.42 31.4201 10.44 31.3701 10.44C31.3101 10.45 31.26 10.46 31.21 10.46C31.16 10.47 31.11 10.47 31.06 10.47C31.13 10.36 31.21 10.26 31.31 10.15C31.33 10.11 31.37 10.08 31.4 10.04C31.67 9.73998 31.99 9.46 32.3 9.19C32.32 9.18 32.33 9.15996 32.35 9.14996C32.52 8.99996 32.7 8.85 32.86 8.69C33.2 8.38 33.7101 7.96 34.1201 7.63C34.2501 8.14 34.42 8.77998 34.5 9.22998C34.54 9.44998 34.6 9.67997 34.65 9.90997C34.75 10.33 34.85 10.77 34.89 11.19Z" fill="#E63B2D"/>
<path d="M32.07 15.2599L31.97 15.56L31.72 16.33L31.6 16.29L30.89 16.06L31.1801 15.19L31.2401 14.99L31.61 15.11L31.7 15.14L31.81 15.17V15.18L32.07 15.2599Z" fill="#FBCD9A"/>
<path d="M31.81 15.17L31.7 15.14C31.73 15.15 31.76 15.16 31.8 15.16C31.8 15.16 31.8 15.17 31.81 15.17Z" fill="white"/>
<path d="M31.8 15.16C31.76 15.16 31.73 15.15 31.7 15.14L31.81 15.17C31.8 15.17 31.8 15.16 31.8 15.16ZM31.8 15.16C31.76 15.16 31.73 15.15 31.7 15.14L31.81 15.17C31.8 15.17 31.8 15.16 31.8 15.16ZM31.8 15.16C31.76 15.16 31.73 15.15 31.7 15.14L31.81 15.17C31.8 15.17 31.8 15.16 31.8 15.16ZM31.8 15.16C31.76 15.16 31.73 15.15 31.7 15.14L31.81 15.17C31.8 15.17 31.8 15.16 31.8 15.16ZM31.8 15.16C31.76 15.16 31.73 15.15 31.7 15.14L31.81 15.17C31.8 15.17 31.8 15.16 31.8 15.16ZM31.8 15.16C31.76 15.16 31.73 15.15 31.7 15.14L31.81 15.17C31.8 15.17 31.8 15.16 31.8 15.16ZM31.8 15.16C31.76 15.16 31.73 15.15 31.7 15.14L31.81 15.17C31.8 15.17 31.8 15.16 31.8 15.16ZM31.8 15.16C31.76 15.16 31.73 15.15 31.7 15.14L31.81 15.17C31.8 15.17 31.8 15.16 31.8 15.16ZM31.8 15.16C31.76 15.16 31.73 15.15 31.7 15.14L31.81 15.17C31.8 15.17 31.8 15.16 31.8 15.16Z" fill="#FBCD9A"/>
<path d="M30.6 19.32L30.43 19.91L29.28 23.96L28.9 25.28L26.79 32.68C26.63 33.22 26.36 33.72 25.98 34.14L25.07 35.2L24.94 33.81C24.89 33.24 24.97 32.66 25.16 32.13L27.9 24.81L28.38 23.5099L29.66 20.1L29.88 19.5099L30.02 19.13L30.49 19.28V19.29L30.6 19.32Z" fill="#FBCD9A"/>
<path d="M31.78 18.06V18.07C31.78 18.09 31.78 18.11 31.77 18.13C31.75 18.21 31.69 18.28 31.63 18.32C31.62 18.33 31.6201 18.3299 31.6201 18.3299C31.5301 18.3899 31.4101 18.41 31.3001 18.38C31.2901 18.38 31.29 18.38 31.28 18.38L30.95 18.2699L30.06 17.98C29.96 17.95 29.88 17.8799 29.83 17.7799C29.78 17.6899 29.78 17.58 29.81 17.48C29.84 17.38 29.91 17.3 30.01 17.25C30.1 17.21 30.21 17.2 30.31 17.23L31.4101 17.5899L31.52 17.63C31.62 17.66 31.7 17.7299 31.75 17.8299C31.79 17.8999 31.8 17.98 31.78 18.06Z" fill="#FBCD9A"/>
</svg>
