<svg width="40" height="40" viewBox="0 0 40 40" fill="none" xmlns="http://www.w3.org/2000/svg">
<rect width="40" height="40" rx="4" fill="#00C9EA"/>
<path d="M36.35 9.77499H20.92L24.77 5.92498C24.98 5.71498 24.98 5.375 24.77 5.165C24.56 4.945 24.21 4.945 24.01 5.165L19.99 9.18499L15.96 5.165C15.75 4.945 15.41 4.945 15.2 5.165C14.99 5.375 14.99 5.71498 15.2 5.92498L19.05 9.77499H3.60999C2.99999 9.77499 2.5 10.275 2.5 10.885V29.205C2.5 29.825 2.99999 30.315 3.60999 30.315H17.87V32.165H10.39C10.1 32.165 9.84998 32.405 9.84998 32.705C9.84998 33.005 10.1 33.245 10.39 33.245H29.57C29.87 33.245 30.12 33.005 30.12 32.705C30.12 32.405 29.87 32.165 29.57 32.165H22.1V30.315H36.35C36.97 30.315 37.47 29.825 37.47 29.205V10.885C37.47 10.275 36.97 9.77499 36.35 9.77499ZM21.02 32.165H18.95V30.315H21.02V32.165ZM36.11 28.935H3.85999V11.155H36.11V28.935Z" fill="#1D1D1B"/>
<path d="M36.11 11.155H3.85999V28.935H36.11V11.155Z" fill="#F29E38"/>
<path d="M11.11 11.155L21.11 28.935H13.86L3.85999 11.155H11.11Z" fill="#FBCD9A"/>
<path d="M13.65 11.155L23.65 28.935H22.4L12.4 11.155H13.65Z" fill="#FBCD9A"/>
</svg>
