<svg width="9" height="8" viewBox="0 0 9 8" fill="none" xmlns="http://www.w3.org/2000/svg">
<path d="M4.64001 5.01001V6.79999C4.64001 6.88999 4.59001 6.96999 4.51001 7.01999C4.47001 7.03999 4.43001 7.04999 4.39001 7.04999C4.34001 7.04999 4.30001 7.03999 4.26001 7.01999L3.22998 6.42001L3.41998 6.23999L3.59998 6.04999L4.14001 6.37V5.51001L4.64001 5.01001Z" fill="#ECECEC"/>
<path d="M4.51001 1.16C4.43001 1.12 4.34001 1.12 4.26001 1.16L2.01001 2.48001H0.320007C0.180007 2.48001 0.0700073 2.59001 0.0700073 2.73001V5.44C0.0700073 5.58 0.180007 5.69 0.320007 5.69H1.84003L1.90002 5.63001L2.07001 5.45999L2.31 5.22V2.88001L4.14001 1.81V3.39002L4.64001 2.89002V1.38001C4.64001 1.29001 4.59001 1.2 4.51001 1.16ZM0.570007 2.98001H1.81V5.19H0.570007V2.98001Z" fill="#ECECEC"/>
<path d="M8.94003 4.09C8.94003 5.33 8.31004 6.46 7.26004 7.12C7.22004 7.15 7.17003 7.16 7.13003 7.16C7.04003 7.16 6.96 7.12001 6.91 7.04001C6.84 6.92001 6.88002 6.77001 6.99002 6.70001C7.04002 6.67001 7.08003 6.64001 7.13003 6.60001C7.96003 6.03001 8.44003 5.09 8.44003 4.09C8.44003 3.31 8.15004 2.57999 7.64004 2.01999L7.81003 1.84L7.99002 1.67001C8.60002 2.32001 8.94003 3.17 8.94003 4.09Z" fill="#ECECEC"/>
<path d="M7.31001 4.09C7.31001 4.41 7.25002 4.72999 7.13002 5.01999C6.94002 5.47999 6.59999 5.88 6.15999 6.16C6.11999 6.18 6.08004 6.20001 6.03004 6.20001C5.95004 6.20001 5.87002 6.14999 5.82002 6.07999C5.75002 5.95999 5.78004 5.81001 5.90004 5.73001C5.95004 5.70001 5.99004 5.67001 6.03004 5.64001C6.52004 5.28001 6.81001 4.71 6.81001 4.09C6.81001 3.74 6.72 3.39999 6.55 3.10999L6.90999 2.75C6.99999 2.88 7.07002 3.02 7.13002 3.16C7.25002 3.45 7.31001 3.76 7.31001 4.09Z" fill="#ECECEC"/>
<path d="M8.20001 0.73999L7.61999 1.32001L7.44 1.5L6.58001 2.35999L6.40997 2.54001L6.22998 2.70999L6.03002 2.91L4.64001 4.31L4.14001 4.81L3.15002 5.79001L2.96997 5.98001L1.15997 7.79001C1.10997 7.84001 1.04998 7.85999 0.979976 7.85999C0.919976 7.85999 0.849983 7.84001 0.799983 7.79001C0.709983 7.69001 0.709983 7.52999 0.799983 7.42999L2.34002 5.89001L2.52001 5.72L2.70001 5.53L4.14001 4.09L4.39001 3.85001L4.64001 3.60001L5.84997 2.39001L6.19 2.04001L6.90002 1.34L7.20001 1.04001L7.84997 0.390015C7.89997 0.340015 7.96002 0.320007 8.03002 0.320007C8.09002 0.320007 8.15001 0.340015 8.20001 0.390015C8.30001 0.490015 8.30001 0.64999 8.20001 0.73999Z" fill="#ECECEC"/>
</svg>
