<svg width="14" height="14" viewBox="0 0 14 14" fill="none" xmlns="http://www.w3.org/2000/svg">
<path d="M13.27 10.82L10.5699 8.10999L10.6 8.07001C10.7 7.96001 10.75 7.82999 10.75 7.67999C10.75 7.52999 10.69 7.39003 10.58 7.28003L9.80005 6.5C9.69005 6.39 9.55002 6.33002 9.40002 6.33002C9.25002 6.33002 9.12001 6.37998 9.01001 6.47998L8.96997 6.51001L8.45996 6L8.46997 5.96997C8.64997 5.39997 8.49996 4.76003 8.07996 4.34003L6.77002 3.02002L6.78003 2.98999C6.84003 2.74999 6.77998 2.49 6.59998 2.31L6.46997 2.17999C6.33997 2.04999 6.15997 1.96997 5.96997 1.96997C5.77997 1.96997 5.60997 2.03999 5.46997 2.17999L2.29004 5.37C2.16004 5.5 2.07996 5.67999 2.07996 5.85999C2.07996 6.04999 2.15004 6.21999 2.29004 6.35999L2.42004 6.48999C2.55004 6.61999 2.73003 6.70001 2.91003 6.70001C2.97003 6.70001 3.03997 6.68999 3.08997 6.67999L3.12 6.66998L4.43994 7.98999C4.73994 8.28999 5.14006 8.45001 5.56006 8.45001C5.73006 8.45001 5.90006 8.42 6.06006 8.37L6.08997 8.35999L10.89 13.16C11.02 13.3 11.21 13.37 11.4 13.37C11.59 13.37 11.77 13.3 11.91 13.16L13.24 11.82C13.55 11.56 13.55 11.1 13.27 10.82ZM9.28003 7L9.38 6.89001C9.38 6.89001 9.39002 6.88 9.40002 6.88C9.41002 6.88 9.42004 6.88001 9.42004 6.89001L10.2 7.66998C10.21 7.67998 10.21 7.70002 10.2 7.71002L10.09 7.81C10.08 7.82 10.06 7.82 10.05 7.81L9.27002 7.03003V7H9.28003ZM3.04004 6.13C2.98004 6.19 2.87006 6.19 2.81006 6.13L2.68005 6C2.65005 5.97 2.63 5.93001 2.63 5.89001C2.63 5.85001 2.65005 5.81003 2.68005 5.78003L5.87 2.59998C5.9 2.56998 5.93998 2.54999 5.97998 2.54999C6.01998 2.54999 6.05997 2.56998 6.08997 2.59998L6.21997 2.72998C6.27997 2.78998 6.27997 2.89002 6.21997 2.96002L3.04004 6.13ZM6.21997 7.71997C6.16997 7.75997 6.11004 7.80001 6.04004 7.82001C5.98004 7.85001 5.90996 7.88002 5.82996 7.90002C5.74996 7.92002 5.65995 7.92999 5.56995 7.92999C5.28995 7.92999 5.01995 7.81999 4.81995 7.62L3.45996 6.26001L6.33997 3.38L7.69995 4.73999C7.89995 4.93999 8.01001 5.19999 8.01001 5.48999C8.01001 5.57999 7.99998 5.66 7.97998 5.75C7.95998 5.82 7.94002 5.89002 7.90002 5.96002C7.87002 6.02002 7.84005 6.08 7.80005 6.13C7.77005 6.17 7.73995 6.21 7.69995 6.25L6.31995 7.63C6.29995 7.66001 6.25997 7.68997 6.21997 7.71997ZM6.5 8C6.54 7.97 6.57999 7.93002 6.60999 7.90002L7.98999 6.52002C8.01999 6.48002 8.05997 6.43997 8.08997 6.40997L9 7.32001L9.78003 8.09998L12.1801 10.5L10.59 12.09L6.5 8ZM12.89 11.46L11.55 12.8C11.48 12.87 11.36 12.87 11.29 12.8L10.86 12.38L12.45 10.79L12.88 11.21C12.91 11.24 12.9301 11.29 12.9301 11.34C12.9401 11.38 12.92 11.42 12.89 11.46Z" fill="black"/>
<path d="M7.54999 5.28998C7.50999 5.32998 7.45998 5.34998 7.40998 5.34998C7.35998 5.34998 7.30996 5.32998 7.26996 5.28998L6.25995 4.28003C6.17995 4.20003 6.17995 4.08 6.25995 4C6.33995 3.92 6.45998 3.92 6.53998 4L7.54999 5.01001C7.62999 5.09001 7.62999 5.20998 7.54999 5.28998Z" fill="black"/>
<path d="M11.6099 10.61C11.5699 10.65 11.5199 10.67 11.4699 10.67C11.4199 10.67 11.3699 10.65 11.3299 10.61L8.04999 7.33002C7.96999 7.25002 7.96999 7.12999 8.04999 7.04999C8.12999 6.96999 8.2499 6.96999 8.3299 7.04999L11.6099 10.33C11.6899 10.41 11.6899 10.54 11.6099 10.61Z" fill="black"/>
<path d="M7.54999 5.28998C7.50999 5.32998 7.45998 5.34998 7.40998 5.34998C7.35998 5.34998 7.30996 5.32998 7.26996 5.28998L6.25995 4.28003C6.17995 4.20003 6.17995 4.08 6.25995 4C6.33995 3.92 6.45998 3.92 6.53998 4L7.54999 5.01001C7.62999 5.09001 7.62999 5.20998 7.54999 5.28998Z" fill="black"/>
<path d="M3.22992 3.34003C3.17992 3.34003 3.12991 3.32003 3.08991 3.28003L1.40998 1.59998C1.32998 1.51998 1.32998 1.40001 1.40998 1.32001C1.48998 1.24001 1.60988 1.24001 1.68988 1.32001L3.36994 3C3.44994 3.08 3.44994 3.20003 3.36994 3.28003C3.32994 3.32003 3.27992 3.34003 3.22992 3.34003Z" fill="black"/>
<path d="M4.07996 2.78003C3.96996 2.78003 3.88 2.69002 3.88 2.58002V0.710022C3.88 0.600022 3.96996 0.51001 4.07996 0.51001C4.18996 0.51001 4.28003 0.600022 4.28003 0.710022V2.58002C4.28003 2.69002 4.18996 2.78003 4.07996 2.78003Z" fill="black"/>
<path d="M2.70996 4.21997H0.839966C0.729966 4.21997 0.640015 4.13002 0.640015 4.02002C0.640015 3.91002 0.729966 3.82001 0.839966 3.82001H2.70996C2.81996 3.82001 2.91003 3.91002 2.91003 4.02002C2.91003 4.13002 2.81996 4.21997 2.70996 4.21997Z" fill="black"/>
</svg>
