<svg width="40" height="40" viewBox="0 0 40 40" fill="none" xmlns="http://www.w3.org/2000/svg">
<rect width="40" height="40" rx="4" fill="#00C9EA"/>
<path d="M32.3917 34.3814C32.3917 34.6914 32.1319 34.9514 31.8219 34.9514H25.0536C24.6037 34.9514 24.1938 34.7714 23.9039 34.4714V32.1714C24.1538 31.9114 24.4938 31.7414 24.8737 31.7014L25.1736 31.6614L25.2735 31.3814C25.5235 30.7514 26.1234 30.3414 26.8032 30.3414C27.403 30.3414 27.953 30.6714 28.2429 31.2214L28.4428 31.6114L28.8627 31.4514C30.1024 30.9714 31.3221 31.9314 31.3221 33.1414L31.302 33.2714L31.3321 33.8014H31.8219V33.8114C32.1319 33.8114 32.3917 34.0614 32.3917 34.3814Z" fill="#7AC943"/>
<path d="M32.4818 7.71137L35.2618 7.99137C35.2718 7.99137 35.2818 7.99137 35.3018 7.99137C35.4818 7.99137 35.6318 7.85136 35.6518 7.67136C35.6718 7.48136 35.5318 7.30138 35.3318 7.28138L32.5518 7.00138C32.3618 6.98138 32.1818 7.12136 32.1618 7.32136C32.1418 7.52136 32.2818 7.69137 32.4818 7.71137Z" fill="#1D1D1B"/>
<path d="M20.3349 6.56138L24.1639 6.95136C24.1839 6.95136 24.1939 6.95136 24.2139 6.95136C24.4338 6.95136 24.6337 6.78137 24.6537 6.55137C24.6737 6.31137 24.5037 6.09136 24.2638 6.07136L20.4348 5.68137C20.1949 5.65137 19.975 5.83136 19.955 6.07136C19.925 6.31136 20.0949 6.53138 20.3349 6.56138Z" fill="#1D1D1B"/>
<path d="M5.41866 5.06137L10.7773 5.61136C10.7973 5.61136 10.8173 5.61136 10.8273 5.61136C11.0972 5.61136 11.3272 5.41138 11.3572 5.13138C11.3872 4.84138 11.1772 4.58136 10.8872 4.55136L5.52861 4.00138C5.23869 3.98138 4.9788 4.18138 4.94881 4.47138C4.91881 4.77138 5.12873 5.03137 5.41866 5.06137Z" fill="#1D1D1B"/>
<path d="M21.4946 21.9414V21.9514L22.8446 21.8214L21.4946 21.9414Z" fill="#1D1D1B"/>
<path d="M35.8817 8.78138L4.6097 5.84138C4.00986 5.78138 3.5 6.27138 3.5 6.88138V22.5014C3.5 23.1114 4.00986 23.5914 4.6097 23.5414L20.4356 22.0414V30.7114C19.9358 30.4014 19.3459 30.2314 18.7261 30.2314C18.4562 30.2314 18.1862 30.2714 17.9263 30.3314C17.3364 29.5114 16.3967 29.0114 15.377 29.0114C14.1673 29.0114 13.0975 29.6814 12.5676 30.7514C11.128 31.0514 10.0783 32.3214 10.0783 33.8114C10.0783 35.5414 11.4879 36.9514 13.2275 36.9514L18.956 36.9314C19.6159 36.8814 20.2357 36.6414 20.7356 36.2714C21.1955 36.5614 21.6753 36.6914 22.1552 36.6914C22.655 36.6914 23.135 36.5514 23.6149 36.2514C23.6249 36.2414 23.6248 36.2414 23.6348 36.2314C23.7947 36.1414 23.9047 35.9714 23.9047 35.7814V35.6814C24.2446 35.8514 24.6346 35.9514 25.0545 35.9514H31.8228C32.6825 35.9514 33.3923 35.2514 33.3923 34.3814C33.3923 33.6814 32.9325 33.0914 32.3026 32.8814C32.1626 31.2614 30.573 30.0114 28.9035 30.3914C28.4036 29.7314 27.6338 29.3414 26.804 29.3414C25.8043 29.3414 24.9145 29.8914 24.4646 30.7614C24.2647 30.8014 24.0847 30.8714 23.9047 30.9714V21.7514C23.9047 21.7414 23.8947 21.7314 23.8947 21.7114L35.8817 20.5914C36.4015 20.5314 36.8115 20.0914 36.8115 19.5514V9.83137C36.8115 9.29137 36.4015 8.83138 35.8817 8.78138ZM23.9047 32.1714C24.1547 31.9114 24.4947 31.7414 24.8746 31.7014L25.1744 31.6614L25.2744 31.3814C25.5243 30.7514 26.1242 30.3414 26.804 30.3414C27.4039 30.3414 27.9538 30.6714 28.2437 31.2214L28.4436 31.6114L28.8635 31.4514C30.1032 30.9714 31.3229 31.9314 31.3229 33.1414L31.3029 33.2714L31.3329 33.8014H31.8228V33.8114C32.1327 33.8114 32.3926 34.0614 32.3926 34.3814C32.3926 34.6914 32.1327 34.9514 31.8228 34.9514H25.0545C24.6046 34.9514 24.1946 34.7714 23.9047 34.4714V32.1714ZM20.4356 35.2114C20.0457 35.6214 19.5159 35.8914 18.926 35.9314L13.2175 35.9514C12.0378 35.9514 11.078 34.9914 11.078 33.8114C11.078 32.7314 11.8978 31.8214 12.9776 31.6914L13.2774 31.6614L13.3874 31.3814C13.7073 30.5514 14.4872 30.0114 15.377 30.0114C16.1668 30.0114 16.8866 30.4514 17.2565 31.1614L17.4664 31.5514L17.8763 31.3914C18.8561 31.0214 19.8258 31.3214 20.4356 31.9714C20.8355 32.3914 21.0855 32.9614 21.0855 33.5914C21.0855 34.2214 20.8355 34.7914 20.4356 35.2114ZM22.8451 35.4814C22.3952 35.6914 21.9553 35.7014 21.4954 35.4914V35.4714C21.8753 34.9414 22.0852 34.2914 22.0852 33.5914C22.0852 32.9014 21.8653 32.2514 21.4954 31.7114V21.9414L22.8451 21.8214V35.4814ZM36.0817 19.3514L5.46947 21.9814V6.98136L36.0817 9.61137V19.3514Z" fill="#1D1D1B"/>
<path d="M36.0809 9.61136V19.3514L5.46866 21.9814V6.98135L36.0809 9.61136Z" fill="#F0852B"/>
<path d="M22.8446 21.8214V35.4814C22.3946 35.6914 21.9546 35.7014 21.4946 35.4914V35.4714C21.8746 34.9414 22.0846 34.2914 22.0846 33.5914C22.0846 32.9014 21.8646 32.2514 21.4946 31.7114V21.9414L22.8446 21.8214Z" fill="#FBCD9A"/>
<path d="M21.0847 33.5914C21.0847 34.2214 20.8347 34.7914 20.4348 35.2114C20.0449 35.6214 19.515 35.8914 18.9252 35.9314L13.2167 35.9514C12.037 35.9514 11.0772 34.9914 11.0772 33.8114C11.0772 32.7314 11.897 31.8214 12.9768 31.6914L13.2766 31.6614L13.3866 31.3814C13.7065 30.5514 14.4864 30.0114 15.3762 30.0114C16.166 30.0114 16.8858 30.4514 17.2557 31.1614L17.4656 31.5514L17.8755 31.3914C18.8553 31.0214 19.825 31.3214 20.4348 31.9714C20.8347 32.3914 21.0847 32.9614 21.0847 33.5914Z" fill="#7AC943"/>
</svg>
