<svg width="11" height="13" viewBox="0 0 11 13" fill="none" xmlns="http://www.w3.org/2000/svg">
<path d="M10.2976 7.71997C10.0776 7.27997 9.71754 6.87002 9.26754 6.52002C10.3275 5.68002 10.7975 4.47997 10.3175 3.65997C10.0175 3.12997 9.39755 2.85999 8.65755 2.85999C8.21755 2.85999 7.74754 2.96002 7.26754 3.15002C7.07754 1.79002 6.26757 0.76001 5.29757 0.76001C4.32757 0.76001 3.50747 1.78 3.32747 3.19C2.00747 2.61 0.68758 2.78997 0.18758 3.65997C-0.0124199 4.00997 -0.0525371 4.43 0.0674629 4.88C0.227463 5.49001 0.677556 6.09 1.28756 6.56C0.697556 7.02 0.277512 7.61001 0.117512 8.20001C-0.00248823 8.65001 0.0375069 9.06998 0.237507 9.41998C0.437507 9.76998 0.777497 10.02 1.2275 10.14C1.4275 10.19 1.65753 10.22 1.88753 10.22C2.32753 10.22 2.80755 10.12 3.27755 9.92999C3.46755 11.29 4.27752 12.32 5.24752 12.32C6.22752 12.32 7.03749 11.27 7.21749 9.89001C7.71749 10.11 8.22748 10.22 8.70748 10.22C8.75748 10.22 8.8075 10.22 8.8575 10.22C9.5575 10.19 10.0875 9.89998 10.3675 9.41998C10.6375 8.94998 10.6076 8.33997 10.2976 7.71997ZM6.91756 3.73999C7.03756 3.66999 7.16757 3.59999 7.29757 3.54999C7.76757 3.33999 8.23755 3.23999 8.65755 3.23999C9.24755 3.23999 9.7375 3.43998 9.9775 3.84998C10.3675 4.52998 9.90757 5.56998 8.92757 6.28998C8.87757 6.25998 8.82755 6.22 8.77755 6.19C8.13755 5.82 7.4675 5.64001 6.8575 5.63C6.6975 5.63 6.53754 5.63998 6.39754 5.66998C5.97754 5.73998 5.6175 5.91 5.3575 6.19C5.3375 6.1 5.32747 6.00002 5.32747 5.90002C5.31747 5.18002 5.92756 4.30999 6.91756 3.73999C6.91756 3.74999 6.91756 3.73999 6.91756 3.73999ZM3.68758 3.48999C3.76758 2.17999 4.47757 1.15002 5.29757 1.15002C6.09757 1.15002 6.76754 2.09001 6.89754 3.32001C6.83754 3.35001 6.77749 3.37998 6.71749 3.41998C5.44749 4.14998 4.74751 5.37 4.98751 6.31C4.94751 6.3 4.91752 6.29002 4.87752 6.27002C4.83752 6.25002 4.79754 6.24002 4.76754 6.21002C4.76754 6.21002 4.75753 6.21001 4.75753 6.20001C4.72753 6.18001 4.68755 6.16001 4.65755 6.14001C4.64755 6.14001 4.63753 6.13 4.63753 6.12C4.62753 6.12 4.6175 6.10998 4.6075 6.09998C4.5675 6.06998 4.52751 6.02999 4.48751 5.98999C4.48751 5.98999 4.47749 5.98998 4.46749 5.97998C4.42749 5.94998 4.3975 5.90999 4.3575 5.85999C4.3575 5.85999 4.3575 5.85998 4.3575 5.84998C4.3475 5.83998 4.33747 5.83001 4.32747 5.82001C4.29747 5.79001 4.27753 5.76999 4.25753 5.73999L4.24752 5.71997C4.23752 5.70997 4.2275 5.7 4.2275 5.69C4.1975 5.64 4.15752 5.58998 4.12752 5.53998C4.05752 5.41998 3.98758 5.29997 3.93758 5.15997C3.90758 5.08997 3.8775 5.02001 3.8575 4.95001C3.8375 4.89001 3.81758 4.83001 3.80758 4.76001C3.79758 4.74001 3.78756 4.71 3.78756 4.69C3.76756 4.63 3.75752 4.57 3.74752 4.5C3.71752 4.35 3.69758 4.18998 3.68758 4.03998C3.67758 3.94998 3.67757 3.85001 3.67757 3.76001C3.67757 3.66001 3.68758 3.56999 3.68758 3.48999ZM0.43758 4.77002C0.33758 4.42002 0.367536 4.10003 0.517536 3.84003C0.747536 3.44003 1.23747 3.22998 1.82747 3.22998C2.27747 3.22998 2.78756 3.35003 3.28756 3.59003V3.73999C3.28756 3.92999 3.29746 4.11999 3.31746 4.29999C3.31746 4.33999 3.32748 4.37998 3.33748 4.41998C3.34748 4.48998 3.35751 4.56 3.36751 4.62C3.42751 4.92 3.51752 5.19 3.62752 5.44C3.65752 5.5 3.68749 5.56 3.71749 5.63C3.74749 5.69 3.78746 5.75 3.81746 5.81C3.89746 5.93 3.97746 6.04001 4.06746 6.14001C4.06746 6.14001 4.07747 6.14997 4.07747 6.15997C4.10747 6.18997 4.13756 6.23001 4.16756 6.26001C4.20756 6.29001 4.23755 6.32999 4.27755 6.35999C4.30755 6.38999 4.34752 6.41 4.37752 6.44C4.41752 6.47 4.45752 6.50002 4.49752 6.52002C4.49752 6.52002 4.50753 6.52003 4.50753 6.53003C4.60753 6.59003 4.70746 6.63998 4.81746 6.66998C4.66746 6.81998 4.4675 6.91999 4.2275 6.98999C4.1275 7.01999 4.01755 7.03999 3.90755 7.04999C3.30755 7.10999 2.58757 6.94 1.92757 6.56C1.80757 6.49 1.68747 6.41002 1.57747 6.33002C1.00747 5.89002 0.57758 5.33002 0.43758 4.77002ZM3.62752 9.33002C3.50752 9.40002 3.37752 9.47002 3.24752 9.52002C2.57752 9.82002 1.87747 9.91001 1.32747 9.76001C0.977473 9.67001 0.717463 9.47997 0.567463 9.21997C0.417463 8.95997 0.387497 8.63998 0.477497 8.28998C0.627497 7.74998 1.0375 7.20003 1.6075 6.78003C1.6575 6.81003 1.70753 6.83999 1.75753 6.87C2.38753 7.23 3.06757 7.42999 3.67757 7.42999H3.69747C3.84747 7.42999 3.99753 7.42002 4.13753 7.40002C4.20753 7.39002 4.2875 7.36998 4.3575 7.34998C4.5975 7.27998 4.81751 7.17998 4.98751 7.03998C5.05751 6.98998 5.11756 6.94 5.16756 6.87C5.19756 6.96 5.20748 7.06002 5.20748 7.15002C5.20748 7.34002 5.16748 7.53999 5.08748 7.73999C4.87748 8.32999 4.34752 8.91002 3.62752 9.33002ZM6.86751 9.32001C6.86751 9.45001 6.85749 9.58001 6.84749 9.70001C6.73749 10.96 6.05752 11.92 5.24752 11.92C4.44752 11.92 3.77754 10.98 3.64754 9.75C3.70754 9.72 3.76747 9.69002 3.82747 9.65002C4.49747 9.26002 4.99758 8.74997 5.30758 8.21997C5.38758 8.06997 5.45753 7.92002 5.50753 7.77002C5.57753 7.55002 5.6175 7.33 5.6075 7.12C5.6075 7 5.58758 6.88001 5.55758 6.76001C5.85758 6.85001 6.12748 7.07001 6.33748 7.39001C6.65748 7.85001 6.85751 8.52001 6.86751 9.26001V9.32001ZM10.0275 9.22998C9.81755 9.58998 9.39748 9.81003 8.83748 9.84003C8.33748 9.86003 7.77752 9.73998 7.24752 9.47998C7.25752 9.42998 7.25753 9.38002 7.25753 9.33002C7.25753 8.62002 7.08758 7.96 6.80758 7.44C6.72758 7.3 6.64757 7.16999 6.54757 7.04999C6.38757 6.83999 6.19751 6.66999 5.98751 6.54999C5.88751 6.48999 5.78757 6.43997 5.67757 6.40997C5.89757 6.18997 6.21749 6.06002 6.59749 6.02002C7.17749 5.97002 7.89746 6.13002 8.56746 6.52002C8.68746 6.59002 8.80757 6.67 8.92757 6.75C9.37757 7.07 9.72747 7.47001 9.94747 7.89001C10.2075 8.39001 10.2275 8.86998 10.0275 9.22998Z" fill="#1D1D1B"/>
<path d="M8.92761 6.28998C8.87761 6.25998 8.82759 6.22 8.77759 6.19C8.13759 5.82 7.46754 5.64 6.85754 5.63C6.69754 5.63 6.53758 5.63998 6.39758 5.66998C5.97758 5.73998 5.61754 5.91 5.35754 6.19C5.33754 6.1 5.32751 6.00002 5.32751 5.90002C5.32751 5.18002 5.9376 4.30999 6.9176 3.73999C6.9176 3.73999 6.91761 3.73999 6.92761 3.73999C7.04761 3.66999 7.17762 3.59999 7.30762 3.54999C7.77762 3.33999 8.2476 3.23999 8.6676 3.23999C9.2576 3.23999 9.74755 3.43998 9.98755 3.84998C10.3675 4.52998 9.90761 5.55998 8.92761 6.28998Z" fill="#FAF8E2"/>
<path d="M10.0276 9.22996C9.81759 9.58996 9.39752 9.81001 8.83752 9.84001C8.33752 9.86001 7.77756 9.73996 7.24756 9.47996C7.25756 9.42996 7.25757 9.38 7.25757 9.33C7.25757 8.62 7.08762 7.95999 6.80762 7.43999C6.72762 7.29999 6.64761 7.16997 6.54761 7.04997C6.38761 6.83997 6.19755 6.66997 5.98755 6.54997C5.88755 6.48997 5.78761 6.43996 5.67761 6.40996C5.89761 6.18996 6.21753 6.06 6.59753 6.02C7.17753 5.97 7.8975 6.13 8.5675 6.52C8.6875 6.59 8.80761 6.66998 8.92761 6.74998C9.37761 7.06998 9.72751 7.47 9.94751 7.89C10.2075 8.39 10.2276 8.86996 10.0276 9.22996Z" fill="#ACC3AE"/>
<path d="M6.86755 9.27002V9.32001C6.86755 9.45001 6.85753 9.58001 6.84753 9.70001C6.73753 10.96 6.05756 11.92 5.24756 11.92C4.44756 11.92 3.77758 10.98 3.64758 9.75C3.70758 9.72 3.76751 9.69002 3.82751 9.65002C4.49751 9.26002 4.99762 8.74997 5.30762 8.21997C5.38762 8.06997 5.45757 7.92002 5.50757 7.77002C5.57757 7.55002 5.61754 7.33 5.60754 7.12C5.60754 7 5.58762 6.88001 5.55762 6.76001C5.85762 6.85001 6.12752 7.07001 6.33752 7.39001C6.65752 7.86001 6.85755 8.53002 6.86755 9.27002Z" fill="#E5F3FD"/>
<path d="M5.21751 7.16998C5.21751 7.35998 5.17751 7.56001 5.09751 7.76001C4.87751 8.32001 4.34755 8.90001 3.63755 9.32001C3.63755 9.32001 3.63754 9.32001 3.62754 9.32001C3.50754 9.39001 3.37754 9.46001 3.24754 9.51001C2.57754 9.81001 1.87749 9.9 1.32749 9.75C0.977491 9.66 0.717482 9.47002 0.567482 9.21002C0.417482 8.95002 0.387516 8.63003 0.477516 8.28003C0.627516 7.74003 1.03752 7.19002 1.60752 6.77002C1.65752 6.80002 1.70755 6.82999 1.75754 6.85999C2.38754 7.21999 3.06759 7.41998 3.67759 7.41998H3.69749C3.84749 7.41998 3.99755 7.41001 4.13755 7.39001C4.20755 7.38001 4.28752 7.36003 4.35752 7.34003C4.59752 7.27003 4.81753 7.17003 4.98753 7.03003C5.05753 6.98003 5.11758 6.92999 5.16758 6.85999C5.20758 6.97999 5.21751 7.07998 5.21751 7.16998Z" fill="#E3E1FF"/>
<path d="M4.85748 6.66998C4.70748 6.81998 4.50752 6.91999 4.26752 6.98999C4.16752 7.01999 4.05745 7.03999 3.94745 7.04999C3.34745 7.10999 2.62747 6.94 1.96747 6.56C1.84747 6.49 1.72749 6.41002 1.61749 6.33002C1.01749 5.91002 0.587562 5.34003 0.437562 4.78003C0.337562 4.43003 0.367518 4.10998 0.517518 3.84998C0.747518 3.44998 1.23745 3.23999 1.82745 3.23999C2.27745 3.23999 2.78754 3.35998 3.28754 3.59998V3.75C3.28754 3.94 3.29744 4.13 3.31744 4.31C3.31744 4.35 3.32746 4.38999 3.33746 4.42999C3.34746 4.49999 3.35749 4.57 3.36749 4.63C3.42749 4.93 3.5175 5.20001 3.6275 5.45001C3.6575 5.51001 3.68747 5.57001 3.71747 5.64001C3.74747 5.70001 3.78744 5.76001 3.81744 5.82001C3.89744 5.94001 3.97744 6.05002 4.06744 6.15002C4.06744 6.15002 4.07745 6.15998 4.07745 6.16998C4.10745 6.19998 4.13754 6.24002 4.16754 6.27002C4.20754 6.30002 4.23753 6.34 4.27753 6.37C4.30753 6.4 4.3475 6.42001 4.3775 6.45001C4.4175 6.48001 4.4575 6.51003 4.4975 6.53003C4.4975 6.53003 4.50751 6.52998 4.50751 6.53998C4.64751 6.57998 4.75748 6.62998 4.85748 6.66998Z" fill="#DCD1E4"/>
<path d="M6.89758 3.32003C6.83758 3.35003 6.77753 3.38 6.71753 3.42C5.44753 4.15 4.74755 5.37002 4.98755 6.31002C4.94755 6.30002 4.91756 6.29004 4.87756 6.27004C4.83756 6.25004 4.79758 6.24004 4.76758 6.21004C4.76758 6.21004 4.75757 6.21003 4.75757 6.20003C4.72757 6.18003 4.68759 6.16003 4.65759 6.14003C4.64759 6.14003 4.63757 6.13001 4.63757 6.12001C4.62757 6.12001 4.61754 6.10999 4.60754 6.09999C4.56754 6.06999 4.52755 6.03001 4.48755 5.99001C4.48755 5.99001 4.47753 5.99 4.46753 5.98C4.42753 5.95 4.39754 5.91 4.35754 5.86C4.35754 5.86 4.35754 5.85999 4.35754 5.84999C4.34754 5.83999 4.33751 5.83003 4.32751 5.82003C4.29751 5.79003 4.27757 5.77001 4.25757 5.74001L4.24756 5.71999C4.23756 5.70999 4.22754 5.70002 4.22754 5.69002C4.19754 5.64002 4.15756 5.59 4.12756 5.54C4.05756 5.42 3.98762 5.29999 3.93762 5.15999C3.90762 5.08999 3.87754 5.02003 3.85754 4.95003C3.83754 4.89003 3.81762 4.83003 3.80762 4.76003C3.79762 4.74003 3.7876 4.71002 3.7876 4.69002C3.7676 4.63002 3.75756 4.57002 3.74756 4.50002C3.71756 4.35002 3.69762 4.19 3.68762 4.04C3.67762 3.95 3.67761 3.85003 3.67761 3.76003C3.67761 3.67003 3.67761 3.58002 3.67761 3.50002C3.75761 2.19002 4.4676 1.15999 5.2876 1.15999C6.0976 1.14999 6.76758 2.08003 6.89758 3.32003Z" fill="#A39190"/>
</svg>
