<svg width="9" height="7" viewBox="0 0 9 7" fill="none" xmlns="http://www.w3.org/2000/svg">
<path d="M6.54004 1.88C7.03004 1.88 7.43005 1.47999 7.43005 0.98999C7.43005 0.49999 7.03004 0.100006 6.54004 0.100006C6.05004 0.100006 5.65002 0.49999 5.65002 0.98999C5.65002 1.47999 6.05004 1.88 6.54004 1.88Z" fill="black"/>
<path d="M7.62001 2.92999C7.42001 3.04999 7.21002 3.15999 7.01003 3.20999C6.82002 3.25999 6.64003 3.26 6.51003 3.19C6.38002 3.13 6.25004 2.97 6.15004 2.78C6.05004 2.59 5.97 2.33999 5.86 2.07999C5.83 2.00999 5.80002 1.95001 5.76003 1.88001C5.72003 1.81001 5.69004 1.75 5.65004 1.69C5.57004 1.57 5.49003 1.44999 5.39003 1.32999C5.29003 1.20999 5.18005 1.10001 5.04005 1.01001C4.90005 0.910011 4.74007 0.83001 4.56007 0.79001C4.38007 0.74001 4.20004 0.75 4.03004 0.78C3.86004 0.82 3.70996 0.870004 3.56996 0.940004C3.28996 1.08 3.05999 1.26 2.84999 1.44C2.55999 1.71 2.48002 2.03999 2.63002 2.17999C2.78002 2.31999 3.08998 2.21001 3.33998 1.98001C3.68998 1.66001 4.11004 1.41 4.40004 1.5C4.55004 1.53 4.69998 1.64 4.83998 1.81C4.89998 1.88 4.95003 1.96001 5.01003 2.04001C5.00002 2.05001 4.99 2.06 4.98 2.06L1.16005 6.13001C0.94005 6.37001 0.870035 6.67 1.02003 6.81C1.17003 6.95 1.46996 6.86001 1.68996 6.63001L3.76003 4.42001C3.76003 4.42001 3.77004 4.41999 3.77004 4.42999C3.99004 4.53999 4.20003 4.66001 4.39003 4.79001C4.57003 4.92001 4.73004 5.07 4.78004 5.19C4.79004 5.21 4.79006 5.22001 4.80006 5.23001C4.80006 5.24001 4.80007 5.25999 4.81007 5.26999C4.82007 5.29999 4.81007 5.32999 4.81007 5.35999C4.81007 5.38999 4.79004 5.43 4.78004 5.47C4.76004 5.51 4.73999 5.55 4.71999 5.59C4.61999 5.76 4.46005 5.93001 4.29005 6.10001C4.17005 6.21001 4.17006 6.42999 4.30006 6.57999C4.43006 6.72999 4.65005 6.75 4.79005 6.62C4.99005 6.43 5.17999 6.22001 5.34999 5.95001C5.38999 5.88001 5.42998 5.81001 5.45998 5.73001C5.48998 5.64001 5.52004 5.56 5.53004 5.47C5.54004 5.37 5.55004 5.27999 5.53004 5.17999C5.52004 5.12999 5.52002 5.08 5.50002 5.03L5.44997 4.9C5.28997 4.55 5.04007 4.36 4.81007 4.19C4.63007 4.06 4.46004 3.96 4.28004 3.87L5.33998 2.73999C5.38998 2.85999 5.44002 2.99 5.50002 3.12C5.64002 3.39 5.84007 3.67001 6.18007 3.85001C6.52007 4.02001 6.88997 4.01001 7.19997 3.92001C7.49997 3.83001 7.76002 3.7 8.00002 3.56C8.34002 3.35 8.46999 3.03001 8.34999 2.88001C8.22999 2.70001 7.90001 2.75999 7.62001 2.92999Z" fill="black"/>
</svg>
