<svg width="9" height="8" viewBox="0 0 9 8" fill="none" xmlns="http://www.w3.org/2000/svg">
<path d="M1.87998 7.37C1.73998 7.37 1.60997 7.35001 1.48997 7.32001C1.26997 7.26001 1.11001 7.15 1.03001 7C0.940008 6.85 0.919959 6.64999 0.979959 6.42999C1.10996 5.95999 1.52995 5.48001 2.09995 5.14001C2.51995 4.90001 2.96997 4.76999 3.36997 4.76999C3.39997 4.76999 3.43 4.76999 3.46 4.76999C3.48 4.78999 3.48999 4.81001 3.50999 4.82001C3.53999 4.86001 3.58999 4.9 3.63999 4.94C3.67999 4.97 3.70999 5 3.75999 5.03C3.79999 5.06 3.85 5.1 3.9 5.13C3.96 5.17 4.05996 5.22001 4.16996 5.26001L4.30998 5.29999C4.31998 5.34999 4.33 5.40001 4.33 5.45001C4.33 5.57001 4.29998 5.7 4.24998 5.84C4.07998 6.26 3.67996 6.69001 3.16996 6.98001C2.73996 7.24001 2.28998 7.37 1.87998 7.37Z" fill="black"/>
<path d="M7.37 7.37C6.96 7.37 6.50002 7.23999 6.08002 6.98999C5.61002 6.71999 5.21998 6.33 5.03998 5.94C5.11998 5.64 5.12999 5.34001 5.04999 5.07001C5.18999 4.90001 5.41 4.8 5.69 4.78C5.75 4.77 5.79999 4.76999 5.85999 4.76999C6.26999 4.76999 6.73002 4.89999 7.15002 5.14999C7.61002 5.40999 7.95997 5.77 8.15997 6.16C8.32997 6.49 8.34998 6.79001 8.22998 7.01001C8.09998 7.23001 7.83002 7.36 7.46002 7.38L7.37 7.37Z" fill="black"/>
<path d="M4.46997 4.54001C4.28997 4.49001 4.11998 4.36 3.97998 4.16C3.70998 3.78 3.56 3.26001 3.56 2.70001V2.5C3.62 1.59 4.09 0.839996 4.62 0.839996C5.2 0.839996 5.67999 1.69001 5.67999 2.70001C5.67999 3.20001 5.55998 3.68 5.34998 4.03C4.97998 4.12 4.67997 4.30001 4.46997 4.54001Z" fill="black"/>
</svg>
