<svg width="9" height="10" viewBox="0 0 9 10" fill="none" xmlns="http://www.w3.org/2000/svg">
<path d="M7.60999 4.62C7.06999 4.31 6.49995 4.15001 5.94995 4.14001C5.79995 4.14001 5.66003 4.15001 5.53003 4.17001C5.33003 4.20001 5.13998 4.27001 4.97998 4.35001C5.08998 3.91001 5.51006 3.41999 6.06006 3.07999L6.14001 3.03C6.23001 2.98 6.31002 2.93999 6.40002 2.89999C6.74002 2.74999 7.09003 2.67001 7.41003 2.67001C7.82003 2.67001 8.13002 2.80999 8.27002 3.04999C8.50002 3.45999 8.21999 4.11 7.60999 4.62Z" fill="black"/>
<path d="M7.44995 7.54999C7.14995 7.54999 6.82001 7.48001 6.51001 7.35001C6.51001 6.77001 6.37 6.19999 6.12 5.73999C6.05 5.60999 5.97001 5.49001 5.89001 5.39001C5.77001 5.24001 5.62999 5.1 5.48999 5C5.56999 4.97 5.67002 4.95 5.77002 4.94C5.82002 4.94 5.87005 4.92999 5.93005 4.92999C6.34005 4.92999 6.79998 5.07 7.22998 5.31L7.29004 5.34C7.36004 5.39 7.44 5.43001 7.5 5.48001C7.83 5.72001 8.09 6.01001 8.25 6.32001C8.42 6.65001 8.43995 6.95001 8.31995 7.17001C8.18995 7.39001 7.92005 7.52001 7.55005 7.54001L7.44995 7.54999Z" fill="black"/>
<path d="M4.64001 9.23999C4.16001 9.23999 3.72998 8.65001 3.59998 7.85001H3.60999C4.15999 7.53001 4.62001 7.08999 4.89001 6.60999C4.97001 6.47999 5.02995 6.34001 5.06995 6.20001C5.11995 6.05001 5.15003 5.9 5.16003 5.75C5.22003 5.81 5.26995 5.87001 5.31995 5.95001C5.55995 6.30001 5.69996 6.79999 5.70996 7.32999C5.70996 7.46999 5.69994 7.56 5.68994 7.66C5.61994 8.54 5.16001 9.23999 4.64001 9.23999Z" fill="black"/>
<path d="M1.93007 7.54999C1.79007 7.54999 1.66006 7.53 1.54006 7.5C1.32006 7.44 1.15997 7.32999 1.06997 7.17999C0.979965 7.01999 0.960039 6.82999 1.02004 6.60999C1.12004 6.25999 1.36999 5.90999 1.71999 5.60999C2.25999 5.90999 2.85002 6.09 3.38002 6.09C3.54002 6.09 3.67007 6.08 3.80007 6.06C3.87007 6.05 3.93002 6.03999 4.00002 6.01999C4.12002 5.98999 4.23999 5.94001 4.34999 5.89001C4.33999 5.94001 4.32007 5.99001 4.30007 6.04001C4.14007 6.45001 3.76004 6.85999 3.27004 7.14999L3.20998 7.19C3.11998 7.24 3.02007 7.29 2.93007 7.34C2.59007 7.47 2.24007 7.54999 1.93007 7.54999Z" fill="black"/>
<path d="M3.38998 5.29999C3.01998 5.29999 2.60993 5.18999 2.21993 4.98999L2.05001 4.89001C1.98001 4.85001 1.90994 4.8 1.84994 4.75C1.39994 4.43 1.08994 4.03 0.979942 3.63C0.919942 3.41 0.929981 3.21 1.01998 3.06C1.15998 2.82 1.46997 2.69 1.87997 2.69C2.17997 2.69 2.49991 2.76001 2.81991 2.89001C2.81991 3.05001 2.82994 3.2 2.84994 3.34C2.86994 3.49 2.87999 3.56 2.89999 3.62C2.93999 3.85 3.01997 4.09001 3.12997 4.32001L3.26998 4.59L3.29 4.62C3.38 4.76 3.46 4.86001 3.54 4.95001L3.64999 5.07001L3.74996 5.16C3.78996 5.19 3.81994 5.21001 3.84994 5.23001C3.82994 5.24001 3.82001 5.24 3.80001 5.25C3.73001 5.27 3.64991 5.28001 3.56991 5.29001C3.50991 5.29001 3.44998 5.29999 3.38998 5.29999Z" fill="black"/>
<path d="M4.10999 4.42001L4.02002 4.31L3.93005 4.17001C3.88005 4.09001 3.84005 4 3.80005 3.91C3.77005 3.85 3.75999 3.81001 3.73999 3.76001L3.68994 3.59L3.65002 3.42001C3.63002 3.31001 3.60999 3.19001 3.60999 3.07001C3.60999 2.99001 3.59998 2.93001 3.59998 2.85001V2.64999C3.65998 1.72999 4.14004 0.980011 4.67004 0.980011C5.15004 0.980011 5.57996 1.57 5.70996 2.37C4.80996 2.89 4.23003 3.70999 4.16003 4.45999L4.10999 4.42001Z" fill="black"/>
</svg>
