<svg width="9" height="7" viewBox="0 0 9 7" fill="none" xmlns="http://www.w3.org/2000/svg">
<path d="M4.39001 6.17999L2.07001 4.82999V2.12L4.39001 0.76001V6.17999Z" fill="#1D1D1B"/>
<path d="M4.39001 6.42999C4.35001 6.42999 4.30001 6.41999 4.26001 6.39999L1.92999 5.04C1.84999 5 1.81 4.91 1.81 4.82V2.10998C1.81 2.01998 1.85999 1.94001 1.92999 1.89001L4.26001 0.529993C4.34001 0.479993 4.43001 0.479993 4.51001 0.529993C4.59001 0.569993 4.63 0.659994 4.63 0.749994V6.17001C4.63 6.26001 4.58001 6.34001 4.51001 6.39001C4.48001 6.42001 4.43001 6.42999 4.39001 6.42999ZM2.32001 4.69L4.15002 5.74999V1.20001L2.32001 2.26V4.69Z" fill="#ECECEC"/>
<path d="M0.32782 4.82532H2.06781L2.06781 2.11533H0.32782L0.32782 4.82532Z" fill="#1D1D1B"/>
<path d="M2.07001 5.07999H0.330017C0.190017 5.07999 0.0800171 4.96999 0.0800171 4.82999V2.12C0.0800171 1.98 0.190017 1.87 0.330017 1.87H2.07001C2.21001 1.87 2.32001 1.98 2.32001 2.12V4.82999C2.32001 4.96999 2.20001 5.07999 2.07001 5.07999ZM0.570007 4.57999H1.81V2.37H0.570007V4.57999Z" fill="#ECECEC"/>
<path d="M7.13 0.649994C8.07 1.23999 8.69 2.28 8.69 3.47C8.69 4.66 8.07 5.70001 7.13 6.29001" fill="#1D1D1B"/>
<path d="M7.13002 6.54C7.05002 6.54 6.97 6.50001 6.92 6.42001C6.85 6.30001 6.88002 6.14998 7.00002 6.07998C7.91002 5.50998 8.45003 4.53999 8.45003 3.46999C8.45003 2.39999 7.91002 1.42998 7.00002 0.859979C6.88002 0.789979 6.85 0.629982 6.92 0.519982C7 0.399982 7.15002 0.369996 7.26002 0.439996C8.31002 1.1 8.94002 2.22999 8.94002 3.46999C8.94002 4.70999 8.31002 5.83999 7.26002 6.49999C7.22002 6.52999 7.18002 6.54 7.13002 6.54Z" fill="#ECECEC"/>
<path d="M6.03003 5.32999C6.65003 4.93999 7.06 4.26 7.06 3.47C7.06 2.69 6.65003 1.99999 6.03003 1.60999" fill="#1D1D1B"/>
<path d="M6.03004 5.58C5.95004 5.58 5.87002 5.54001 5.82002 5.46001C5.75002 5.34001 5.78004 5.19001 5.90004 5.12001C6.47004 4.76001 6.81001 4.15002 6.81001 3.47002C6.81001 2.80002 6.47004 2.18002 5.90004 1.82002C5.78004 1.75002 5.75002 1.59003 5.82002 1.48003C5.90002 1.36003 6.04999 1.33001 6.15999 1.40001C6.87999 1.85001 7.31001 2.62002 7.31001 3.47002C7.31001 4.31002 6.87999 5.09002 6.15999 5.54002C6.12999 5.57002 6.08004 5.58 6.03004 5.58Z" fill="#ECECEC"/>
<path d="M6.03003 1.62C6.65003 2.01 7.06 2.69001 7.06 3.48001C7.06 4.26001 6.65003 4.95 6.03003 5.34" fill="#1D1D1B"/>
<path d="M6.03004 5.58C5.95004 5.58 5.87002 5.54001 5.82002 5.46001C5.75002 5.34001 5.78004 5.19001 5.90004 5.12001C6.47004 4.76001 6.81001 4.15002 6.81001 3.47002C6.81001 2.80002 6.47004 2.18002 5.90004 1.82002C5.78004 1.75002 5.75002 1.59003 5.82002 1.48003C5.90002 1.36003 6.04999 1.33001 6.15999 1.40001C6.87999 1.85001 7.31001 2.62002 7.31001 3.47002C7.31001 4.31002 6.87999 5.09002 6.15999 5.54002C6.12999 5.57002 6.08004 5.58 6.03004 5.58Z" fill="#ECECEC"/>
</svg>
