<?xml version="1.0" encoding="utf-8"?>
<!-- Generator: Adobe Illustrator 26.0.2, SVG Export Plug-In . SVG Version: 6.00 Build 0)  -->
<svg version="1.1" id="Layer_1" xmlns="http://www.w3.org/2000/svg" xmlns:xlink="http://www.w3.org/1999/xlink" x="0px" y="0px"
	 viewBox="0 0 509.7 166.7" style="enable-background:new 0 0 509.7 166.7;" xml:space="preserve">
<style type="text/css">
	.st0{clip-path:url(#SVGID_00000000945359691127944000000014056530205146465721_);fill:#F9B233;}
	.st1{clip-path:url(#SVGID_00000000945359691127944000000014056530205146465721_);fill:#FFFFFF;}
	.st2{clip-path:url(#SVGID_00000000945359691127944000000014056530205146465721_);fill:#82358C;}
	.st3{clip-path:url(#SVGID_00000000945359691127944000000014056530205146465721_);fill:#2FAC66;}
	.st4{clip-path:url(#SVGID_00000000945359691127944000000014056530205146465721_);fill:#E30613;}
	.st5{clip-path:url(#SVGID_00000000945359691127944000000014056530205146465721_);fill:#E94E1B;}
	.st6{clip-path:url(#SVGID_00000000945359691127944000000014056530205146465721_);fill:#E61873;}
</style>
<g>
	<defs>
		<rect id="SVGID_1_" x="-134.6" y="-64.3" width="742.5" height="309.1"/>
	</defs>
	<clipPath id="SVGID_00000042728195586372055430000008851975829518327449_">
		<use xlink:href="#SVGID_1_"  style="overflow:visible;"/>
	</clipPath>
	<polygon style="clip-path:url(#SVGID_00000042728195586372055430000008851975829518327449_);fill:#F9B233;" points="428.5,82.4 
		374.2,154.5 370.6,159.3 365.1,159.3 368.7,154.5 423,82.4 365.6,5.4 371.2,5.4 	"/>
	<path style="clip-path:url(#SVGID_00000042728195586372055430000008851975829518327449_);fill:#FFFFFF;" d="M33.2,49.6
		c3.2,0,6.5,0.3,9.9,0.8c3.4,0.6,6.4,1.3,9.1,2.3l-2.3,16.5c-2.9-0.7-5.6-1.3-8.3-1.7c-2.7-0.4-5.1-0.6-7.2-0.6
		c-1.5,0-2.6,0.1-3.5,0.2c-0.8,0.1-1.5,0.3-1.9,0.5c-0.5,0.2-0.7,0.5-0.8,0.8C28,68.8,28,69.2,28,69.6c0,1,0.6,1.7,1.9,2.4
		c1.3,0.6,2.9,1.2,4.9,1.9c2,0.6,4.1,1.4,6.4,2.2c2.3,0.9,4.4,2.1,6.4,3.5c2,1.5,3.6,3.4,4.9,5.7c1.3,2.3,1.9,5.2,1.9,8.8
		c0,3.3-0.6,6.2-1.8,8.8c-1.2,2.6-2.9,4.8-5.1,6.6c-2.2,1.8-4.9,3.2-8.1,4.2c-3.2,1-6.7,1.5-10.7,1.5c-3.7,0-7.3-0.4-10.9-1.2
		s-6.8-1.9-9.9-3.4l2.5-16.9c3,1.4,6,2.5,9,3.3c3,0.8,5.9,1.2,9,1.2c2.2,0,3.8-0.2,4.6-0.7c0.8-0.5,1.2-1.2,1.2-2.1
		c0-0.9-0.6-1.6-1.9-2.2c-1.3-0.6-2.9-1.2-4.9-1.8c-2-0.6-4.1-1.4-6.3-2.3c-2.2-0.9-4.4-2.1-6.3-3.6c-2-1.5-3.6-3.4-4.9-5.8
		c-1.3-2.3-1.9-5.3-1.9-8.9c0-2.9,0.5-5.6,1.4-8.1c1-2.6,2.5-4.8,4.5-6.7c2.1-1.9,4.7-3.4,7.9-4.6C24.9,50.2,28.7,49.6,33.2,49.6
		 M33.2,45.6c-4.9,0-9.3,0.6-12.9,1.9c-3.7,1.3-6.8,3.1-9.3,5.4c-2.5,2.3-4.4,5.1-5.5,8.2c-1.1,3-1.7,6.2-1.7,9.5
		c0,4.3,0.8,7.9,2.4,10.8c1.6,2.8,3.6,5.2,5.9,7c2.3,1.7,4.7,3.1,7.3,4.2c0.5,0.2,0.9,0.4,1.4,0.5c-0.1,0-0.3-0.1-0.4-0.1
		c-2.7-0.7-5.5-1.8-8.3-3.1l-4.8-2.2l-0.8,5.3L4,110l-0.4,2.9l2.7,1.3c3.3,1.6,6.9,2.8,10.7,3.7c3.8,0.8,7.8,1.3,11.8,1.3
		c4.3,0,8.3-0.6,11.9-1.7c3.7-1.1,6.8-2.8,9.5-5c2.7-2.2,4.8-4.9,6.2-8c1.5-3.1,2.2-6.6,2.2-10.5c0-4.2-0.8-7.8-2.5-10.7
		c-1.6-2.8-3.6-5.1-6-6.9c-2.3-1.7-4.7-3.1-7.4-4.1c-0.8-0.3-1.6-0.6-2.4-0.9c0.3,0,0.6,0.1,0.8,0.1c2.5,0.4,5.2,0.9,7.9,1.6
		l4.3,1.1l0.6-4.4l2.3-16.5l0.4-3.2l-3.1-1.1c-2.9-1-6.2-1.9-9.8-2.5C40.2,45.9,36.6,45.6,33.2,45.6 M31.4,68.2L31.4,68.2z"/>
	<path style="clip-path:url(#SVGID_00000042728195586372055430000008851975829518327449_);fill:#FFFFFF;" d="M114,50.7V114H99.4
		L81.6,89.7l-3.9-5.6l-0.2,0.1l0.1,6.8V114H58.9V50.7h17.3l19.2,27.5l0.2-0.1l-0.2-6.7V50.7H114z M118,46.7h-4H95.4h-4v4v14.8
		l-12-17.1l-1.2-1.7h-2.1H58.9h-4v4V114v4h4h18.7h4v-4V96.5l14.6,19.9l1.2,1.6h2H114h4v-4V50.7V46.7z"/>
	<path style="clip-path:url(#SVGID_00000042728195586372055430000008851975829518327449_);fill:#FFFFFF;" d="M149.3,49.7
		c10.4,0,18,2.7,22.8,8.1c4.8,5.4,7.2,13.6,7.2,24.6c0,11.3-2.4,19.6-7.1,24.9c-4.8,5.3-12.4,7.9-22.8,7.9
		c-10.3,0-17.9-2.7-22.8-8.1c-4.8-5.4-7.3-13.7-7.3-24.7c0-11,2.4-19.2,7.2-24.6C131.2,52.4,138.8,49.7,149.3,49.7 M149.4,97.6
		c1.5,0,2.8-0.2,3.8-0.6c1-0.4,1.8-1.2,2.4-2.3s1-2.7,1.2-4.7c0.2-2,0.3-4.6,0.3-7.7c0-3.1-0.1-5.7-0.3-7.6
		c-0.2-1.9-0.6-3.5-1.2-4.6s-1.4-1.8-2.4-2.2c-1-0.4-2.3-0.5-3.9-0.5c-1.5,0-2.8,0.2-3.8,0.6c-1,0.4-1.8,1.1-2.4,2.2
		c-0.6,1.1-1,2.6-1.2,4.6c-0.2,1.9-0.3,4.5-0.3,7.5c0,3.2,0.1,5.7,0.4,7.7c0.3,2,0.7,3.6,1.3,4.7c0.6,1.1,1.4,1.9,2.4,2.3
		C146.5,97.4,147.8,97.6,149.4,97.6 M149.3,45.7c-11.6,0-20.3,3.2-25.8,9.4c-5.4,6.1-8.2,15.3-8.2,27.2c0,12,2.8,21.2,8.3,27.3
		c5.6,6.3,14.3,9.5,25.8,9.5c11.6,0,20.3-3.1,25.8-9.3c5.4-6,8.2-15.3,8.2-27.6c0-12-2.8-21.1-8.2-27.2
		C169.5,48.8,160.8,45.7,149.3,45.7 M149.4,93.6c-1.4,0-2.1-0.2-2.3-0.3c-0.2-0.1-0.3-0.3-0.4-0.5c-0.2-0.4-0.6-1.3-0.8-3.3
		c-0.2-1.8-0.3-4.2-0.3-7.2c0-2.9,0.1-5.3,0.3-7.1c0.2-1.9,0.6-2.8,0.8-3.1c0.1-0.2,0.2-0.4,0.3-0.4c0.4-0.1,1.1-0.3,2.3-0.3
		c1.4,0,2.2,0.2,2.6,0.3c0.1,0,0.2,0.2,0.2,0.3c0.2,0.4,0.6,1.2,0.8,3.1c0.2,1.8,0.3,4.2,0.3,7.2c0,3-0.1,5.4-0.3,7.3
		c-0.2,2-0.6,2.9-0.8,3.3c-0.1,0.2-0.2,0.4-0.4,0.5C151.3,93.4,150.6,93.6,149.4,93.6"/>
	<path style="clip-path:url(#SVGID_00000042728195586372055430000008851975829518327449_);fill:#FFFFFF;" d="M269.4,50.7L255,114
		h-25l-4.9-33.2l-0.8-6.8H224l-0.9,6.8l-4.8,33.2h-25l-14.5-63.3h21.9l4.9,35.2l0.8,6.7h0.3l0.9-6.7l5.7-35.2h22.4l5.7,35l1,6.7h0.3
		l0.8-6.7l5.1-35H269.4z M274.4,46.7h-5h-20.8h-3.5l-0.5,3.4L242.3,66l-2.6-16l-0.6-3.4h-3.4h-22.4h-3.4l-0.5,3.4l-2.5,15.6
		l-2.2-15.5l-0.5-3.4h-3.5h-21.9h-5l1.1,4.9l14.5,63.3l0.7,3.1h3.2h25h3.5l0.5-3.4l1.9-13l1.9,13.1l0.5,3.4h3.5h25h3.2l0.7-3.1
		l14.4-63.3L274.4,46.7z"/>
	<path style="clip-path:url(#SVGID_00000042728195586372055430000008851975829518327449_);fill:#FFFFFF;" d="M346.6,50.7v45.6h21.8
		L368,114h-42.7V50.7H346.6z M350.6,46.7h-4h-21.3h-4v4V114v4h4H368h3.9l0.1-3.9l0.4-17.6l0.1-4.1h-4.1h-17.8V50.7V46.7z"/>
	<polygon style="clip-path:url(#SVGID_00000042728195586372055430000008851975829518327449_);fill:#82358C;" points="412.3,82.4 
		409.5,78.7 398.9,64.5 398.9,71.8 406.8,82.4 398.9,92.8 398.9,100.1 409.5,86.1 	"/>
	<polygon style="clip-path:url(#SVGID_00000042728195586372055430000008851975829518327449_);fill:#82358C;" points="352.4,154.5 
		358,154.5 385.5,118 380,118 	"/>
	<polygon style="clip-path:url(#SVGID_00000042728195586372055430000008851975829518327449_);fill:#82358C;" points="358.5,10.2 
		353,10.2 380.2,46.7 385.7,46.7 	"/>
	<path style="clip-path:url(#SVGID_00000042728195586372055430000008851975829518327449_);fill:#FFFFFF;" d="M394.9,46.7h-9.2h-5.5
		h-6.9h-4v4V114v4h4h6.7h5.5h9.4h4v-4v-13.8v-7.3v-21v-7.4V50.7v-4H394.9z M394.9,66.5v31.7v7.3v8.5h-6.4H383h-9.7V50.7h9.8h5.5h6.3
		v8.4V66.5z"/>
	<polygon style="clip-path:url(#SVGID_00000042728195586372055430000008851975829518327449_);fill:#2FAC66;" points="420.3,82.4 
		376.9,140 371.4,140 414.7,82.4 371.8,24.7 377.3,24.7 	"/>
	<polygon style="clip-path:url(#SVGID_00000042728195586372055430000008851975829518327449_);fill:#E30613;" points="445,82.4 
		401.6,140 396.1,140 439.5,82.4 396.6,24.7 402.1,24.7 	"/>
	<polygon style="clip-path:url(#SVGID_00000042728195586372055430000008851975829518327449_);fill:#FFFFFF;" points="461.5,82.4 
		504.8,140 466.2,140 442.3,108.1 414.5,144.9 409,144.9 442.3,100.7 468.4,135.6 495.9,135.6 456,82.4 457,81 496,29.1 468.5,29.1 
		442.2,64 409.5,19.9 415,19.9 442.3,56.7 466.3,24.7 504.8,24.7 	"/>
	<polygon style="clip-path:url(#SVGID_00000042728195586372055430000008851975829518327449_);fill:#E94E1B;" points="436.8,82.4 
		386.1,149.7 380.6,149.7 431.2,82.4 428.1,78.2 381.1,15.1 386.6,15.1 431.6,75.6 	"/>
	<polygon style="clip-path:url(#SVGID_00000042728195586372055430000008851975829518327449_);fill:#E61873;" points="453.3,82.4 
		450.6,86.1 399,154.5 393.5,154.5 447.8,82.4 394.1,10.2 399.6,10.2 450.6,78.7 	"/>
	<path style="clip-path:url(#SVGID_00000042728195586372055430000008851975829518327449_);fill:#FFFFFF;" d="M299.7,76.5v-4.1h21.5
		v0.1h2.8l-0.1-4.1l-0.3-17.7l-0.1-3.9h-3.9h-45.2h-4v4V114v4h4h21.1h4v-4V98.8h18h1l0-4l0.2-18.4H299.7z M313.9,94.8h-18.2V114
		h-21.1V50.7h45.2l0.3,17.7h-24.4v12.4H314L313.9,94.8z"/>
</g>
</svg>
