<svg width="40" height="40" viewBox="0 0 40 40" fill="none" xmlns="http://www.w3.org/2000/svg">
<rect width="40" height="40" rx="4" fill="#00C9EA"/>
<path d="M31.07 16.52V19.1299C31.07 20.2099 30.19 21.09 29.11 21.09H11C9.92 21.09 9.03998 20.2099 9.03998 19.1299V16.5099C9.03998 15.9699 9.25999 15.4799 9.60999 15.1299C9.96999 14.7699 10.46 14.55 10.99 14.55H29.11C29.65 14.55 30.14 14.7699 30.49 15.1299C30.85 15.4799 31.07 15.98 31.07 16.52Z" fill="#989898"/>
<path d="M29.11 14.55H11C10.46 14.55 9.98 14.7699 9.62 15.1299C9.98 14.7799 10.47 14.56 11 14.56L29.11 14.55C29.65 14.56 30.14 14.7799 30.49 15.1299C30.14 14.7699 29.66 14.55 29.11 14.55ZM29.11 14.55H11C10.46 14.55 9.98 14.7699 9.62 15.1299C9.98 14.7799 10.47 14.56 11 14.56L29.11 14.55C29.65 14.56 30.14 14.7799 30.49 15.1299C30.14 14.7699 29.66 14.55 29.11 14.55ZM29.11 14.55H11C10.46 14.55 9.98 14.7699 9.62 15.1299C9.98 14.7799 10.47 14.56 11 14.56L29.11 14.55C29.65 14.56 30.14 14.7799 30.49 15.1299C30.14 14.7699 29.66 14.55 29.11 14.55ZM29.11 14.55H11C10.46 14.55 9.98 14.7699 9.62 15.1299C9.98 14.7799 10.47 14.56 11 14.56L29.11 14.55C29.65 14.56 30.14 14.7799 30.49 15.1299C30.14 14.7699 29.66 14.55 29.11 14.55Z" fill="#989898"/>
<path d="M22.02 27.3799C22.02 27.6899 21.77 27.95 21.45 27.95H18.66C18.35 27.95 18.09 27.6999 18.09 27.3799C18.09 27.0699 18.34 26.81 18.66 26.81H21.45C21.76 26.81 22.02 27.0699 22.02 27.3799Z" fill="#F29E38"/>
<path d="M21.52 28.71H18.61V34.2599H21.52V28.71Z" fill="#FBCD9A"/>
<path d="M21.51 35.03V35.8C21.51 36.05 21.3 36.2599 21.05 36.2599H19.06C18.81 36.2599 18.6 36.05 18.6 35.8V35.03H21.51Z" fill="#F29E38"/>
<path d="M8.27997 16.68V18.97C8.06997 18.84 7.91998 18.6 7.91998 18.34V17.3199C7.91998 17.0499 8.05997 16.81 8.27997 16.68Z" fill="white"/>
<path d="M31.07 11.49V14.6299C31 14.5499 30.93 14.48 30.85 14.42C30.78 14.37 30.71 14.3199 30.64 14.2599C30.5 14.1599 30.35 14.08 30.2 14.02C30.19 14.01 30.18 14.0099 30.18 14.0099C30.02 13.9299 29.85 13.88 29.68 13.85C29.67 13.84 29.66 13.85 29.66 13.85C29.49 13.82 29.31 13.8 29.11 13.8H24.92V13.28C24.93 13.28 24.93 13.28 24.94 13.28C25.15 13.28 25.32 13.11 25.32 12.9C25.32 12.22 25.88 11.65 26.57 11.65C26.9 11.65 27.22 11.7799 27.46 12.0099C27.68 12.2599 27.81 12.57 27.81 12.9C27.81 13.11 27.99 13.28 28.2 13.28C28.41 13.28 28.58 13.11 28.58 12.9V11.49C28.58 10.81 29.15 10.25 29.83 10.25C30.16 10.25 30.48 10.38 30.71 10.6C30.94 10.84 31.07 11.16 31.07 11.49Z" fill="#0000FF"/>
<path d="M15.27 10.39V13.8H12.31V12.08C12.31 11.87 12.14 11.7 11.93 11.7C11.72 11.7 11.54 11.87 11.54 12.08V13.8H11C10.82 13.8 10.63 13.82 10.45 13.85C10.36 13.86 10.27 13.89 10.19 13.92C10.11 13.95 10.02 13.9799 9.95001 14.0099C9.86001 14.0399 9.78001 14.08 9.70001 14.12C9.62001 14.17 9.55998 14.2199 9.47998 14.2599C9.42998 14.2999 9.37996 14.3299 9.32996 14.3799C9.22996 14.4499 9.13998 14.5399 9.03998 14.6299V7.63995C9.03998 6.95995 9.59998 6.39996 10.29 6.39996C10.63 6.39996 10.93 6.51995 11.17 6.75995C11.41 6.99995 11.54 7.30995 11.54 7.63995V10.03C11.54 10.23 11.71 10.41 11.92 10.41C12.13 10.41 12.3 10.23 12.3 10.03C12.3 9.33997 12.87 8.78998 13.55 8.78998C13.88 8.78998 14.19 8.90996 14.43 9.14996C14.67 9.38996 14.79 9.68997 14.79 10.03C14.79 10.23 14.97 10.41 15.18 10.41C15.21 10.41 15.24 10.41 15.27 10.39Z" fill="#FF0000"/>
<path d="M32.06 17.29H31.98V11.49C31.98 10.92 31.76 10.37 31.35 9.94995C30.94 9.54995 30.39 9.32996 29.82 9.32996C28.79 9.32996 27.9 10.07 27.7 11.06C27.37 10.86 26.98 10.7599 26.57 10.7599C26.17 10.7599 25.79 10.86 25.47 11.04V8.71997C25.47 8.14997 25.25 7.61 24.84 7.19C24.42 6.78 23.88 6.56 23.31 6.56C22.11 6.56 21.14 7.52997 21.14 8.71997V10.77C20.82 10.59 20.44 10.49 20.05 10.49C19.66 10.49 19.28 10.5899 18.96 10.7599V5.16998C18.96 4.58998 18.73 4.02996 18.33 3.64996C17.93 3.21996 17.38 3 16.8 3C15.61 3 14.64 3.96998 14.64 5.16998V8.15997C14.31 7.97997 13.94 7.87994 13.55 7.87994C13.15 7.87994 12.77 7.97997 12.45 8.15997V7.63995C12.45 7.05995 12.23 6.50999 11.81 6.10999C11.4 5.69999 10.86 5.47998 10.29 5.47998C9.08998 5.47998 8.12 6.44995 8.12 7.63995V15.75C7.46 15.98 7 16.5999 7 17.3199V18.33C7 19.09 7.50999 19.75 8.23999 19.94C8.58999 21.16 9.71 22.0099 11 22.0099H29.11C30.69 22.0099 31.98 20.72 31.98 19.14V18.36H32.06C32.7 18.36 33.21 18.8799 33.21 19.5099V22.36C33.21 23 32.7 23.5099 32.06 23.5099H21.74C20.52 23.5099 19.52 24.51 19.52 25.73V25.89H18.66C17.84 25.89 17.17 26.5599 17.17 27.3799C17.17 27.8099 17.36 28.22 17.69 28.49V35.8C17.69 36.55 18.31 37.17 19.06 37.17H21.05C21.81 37.17 22.43 36.55 22.43 35.8V28.48C22.75 28.2 22.93 27.8099 22.93 27.3799C22.93 26.5599 22.27 25.89 21.45 25.89H20.59V25.73C20.59 25.1 21.1 24.58 21.74 24.58H32.06C33.28 24.58 34.28 23.59 34.28 22.36V19.5099C34.28 18.2899 33.28 17.29 32.06 17.29ZM31.07 19.14C31.07 20.21 30.19 21.09 29.11 21.09H11C9.92 21.09 9.03998 20.21 9.03998 19.14V16.5099C9.03998 15.9699 9.25999 15.4799 9.60999 15.1299C9.96999 14.7699 10.46 14.55 11 14.55H29.11C29.65 14.55 30.14 14.7699 30.49 15.1299C30.85 15.4799 31.07 15.98 31.07 16.52V19.14ZM31.07 14.62C31 14.55 30.92 14.48 30.85 14.42C30.78 14.36 30.71 14.3099 30.63 14.2599C30.49 14.1699 30.35 14.0799 30.2 14.0099H30.17C30.01 13.9399 29.84 13.88 29.68 13.84C29.67 13.84 29.66 13.84 29.66 13.84C29.48 13.81 29.3 13.79 29.11 13.79H12.3V12.08C12.3 11.86 12.14 11.7 11.92 11.7C11.72 11.7 11.54 11.86 11.54 12.08V13.79H11C10.81 13.79 10.63 13.81 10.45 13.84C10.35 13.86 10.27 13.88 10.19 13.91C10.1 13.94 10.02 13.9699 9.94 14.0099C9.86 14.0399 9.77001 14.07 9.70001 14.12C9.62001 14.17 9.54997 14.2099 9.46997 14.2599C9.42997 14.2999 9.37996 14.33 9.32996 14.37C9.21996 14.44 9.12998 14.53 9.03998 14.62V7.63995C9.03998 6.95995 9.59998 6.39996 10.29 6.39996C10.62 6.39996 10.93 6.51995 11.16 6.75995C11.4 6.98995 11.53 7.30995 11.53 7.63995V10.02C11.53 10.23 11.71 10.4 11.91 10.4C12.13 10.4 12.3 10.23 12.3 10.02C12.3 9.32996 12.86 8.77997 13.54 8.77997C13.88 8.77997 14.18 8.90995 14.42 9.13995C14.67 9.38995 14.79 9.68996 14.79 10.02C14.79 10.23 14.96 10.4 15.17 10.4C15.39 10.4 15.55 10.23 15.55 10.02V5.16998C15.55 4.47998 16.11 3.90997 16.8 3.90997C17.14 3.90997 17.44 4.03998 17.68 4.28998C17.92 4.51998 18.05 4.83998 18.05 5.16998V12.64C18.05 12.84 18.22 13.02 18.43 13.02C18.64 13.02 18.81 12.84 18.81 12.64C18.81 11.95 19.37 11.39 20.05 11.39C20.39 11.39 20.7 11.52 20.93 11.74C21.17 11.99 21.3 12.3 21.3 12.64C21.3 12.84 21.47 13.02 21.68 13.02C21.89 13.02 22.06 12.84 22.06 12.64V8.71997C22.06 8.02997 22.62 7.47998 23.31 7.47998C23.64 7.47998 23.96 7.60996 24.19 7.82996C24.42 8.06996 24.55 8.38997 24.55 8.71997V12.9C24.55 13.11 24.73 13.28 24.94 13.28C25.15 13.28 25.32 13.11 25.32 12.9C25.32 12.22 25.88 11.65 26.56 11.65C26.9 11.65 27.21 11.7799 27.45 12.0099C27.68 12.2499 27.81 12.57 27.81 12.9C27.81 13.11 27.99 13.28 28.19 13.28C28.41 13.28 28.57 13.11 28.57 12.9V11.49C28.57 10.8 29.14 10.24 29.82 10.24C30.16 10.24 30.47 10.37 30.71 10.6C30.94 10.84 31.07 11.15 31.07 11.49V14.62V14.62ZM21.51 35.8C21.51 36.05 21.3 36.25 21.05 36.25H19.06C18.81 36.25 18.6 36.05 18.6 35.8V35.02H21.51V35.8V35.8ZM21.51 34.2599H18.6V28.71H21.51V34.2599ZM21.45 26.81C21.76 26.81 22.01 27.0599 22.01 27.3799C22.01 27.6899 21.76 27.94 21.45 27.94H18.66C18.34 27.94 18.09 27.6899 18.09 27.3799C18.09 27.0599 18.34 26.81 18.66 26.81H21.45Z" fill="black"/>
<path d="M8.26996 16.68V18.97C8.05996 18.84 7.91998 18.6 7.91998 18.33V17.3199C7.91998 17.0499 8.05996 16.81 8.26996 16.68Z" fill="#F29E38"/>
<path d="M15.27 14.55V21.09H11C9.92 21.09 9.03998 20.21 9.03998 19.14V16.5099C9.03998 15.9699 9.25999 15.4799 9.60999 15.1299C9.96999 14.7699 10.46 14.55 11 14.55H15.27V14.55Z" fill="#FF0000"/>
<path d="M31.07 16.52V19.14C31.07 20.21 30.19 21.09 29.11 21.09H24.92V14.55H29.11C29.65 14.55 30.14 14.7699 30.49 15.1299C30.85 15.4799 31.07 15.98 31.07 16.52Z" fill="#0000FF"/>
<path d="M24.92 14.55H15.27V21.09H24.92V14.55Z" fill="#00B000"/>
<path d="M24.92 13.28V13.8H15.27V10.39C15.44 10.36 15.56 10.2 15.56 10.03V5.16998C15.56 4.47998 16.12 3.91998 16.8 3.91998C17.14 3.91998 17.45 4.04998 17.68 4.28998C17.92 4.51998 18.05 4.83998 18.05 5.16998V12.64C18.05 12.85 18.23 13.02 18.43 13.02C18.65 13.02 18.82 12.85 18.82 12.64C18.82 11.95 19.37 11.39 20.05 11.39C20.39 11.39 20.7 11.52 20.93 11.75C21.17 11.99 21.3 12.3 21.3 12.64C21.3 12.85 21.48 13.02 21.68 13.02C21.9 13.02 22.06 12.85 22.06 12.64V8.72998C22.06 8.03998 22.62 7.47998 23.31 7.47998C23.64 7.47998 23.96 7.60996 24.2 7.82996C24.43 8.07996 24.56 8.38998 24.56 8.72998V12.9C24.56 13.1 24.72 13.27 24.92 13.28Z" fill="#00B000"/>
<path d="M24.92 13.8H15.27V14.55H24.92V13.8Z" fill="black"/>
</svg>
