<svg width="17" height="21" viewBox="0 0 17 21" fill="none" xmlns="http://www.w3.org/2000/svg">
<path d="M8.47998 6.72C10.1313 6.72 11.47 5.38134 11.47 3.73001C11.47 2.07868 10.1313 0.73999 8.47998 0.73999C6.82865 0.73999 5.48999 2.07868 5.48999 3.73001C5.48999 5.38134 6.82865 6.72 8.47998 6.72Z" fill="#00C9EA"/>
<path d="M10.99 15.91C10.74 15.87 10.47 16.08 10.44 16.36C10.41 16.63 10.61 16.88 10.89 16.91C14.04 17.24 15.07 18.02 15.07 18.26C15.07 18.7 12.83 19.73 8.47998 19.73C4.12998 19.73 1.89001 18.7 1.89001 18.26C1.89001 18.02 2.92001 17.24 6.07001 16.91C6.34001 16.88 6.54002 16.64 6.52002 16.36C6.49002 16.08 6.23997 15.88 5.96997 15.91C4.44997 16.07 0.900024 16.61 0.900024 18.25C0.900024 19.95 4.83999 20.72 8.48999 20.72C12.14 20.72 16.08 19.95 16.08 18.25C16.07 16.61 12.52 16.07 10.99 15.91Z" fill="#00C9EA"/>
<path d="M4.78005 12.82C4.88005 13.53 5.51 14.07 6.23 14.07C6.47 14.07 6.66002 14.25 6.69002 14.48L6.98 16.95C7.07 17.69 7.69002 18.24 8.50002 18.24C9.24002 18.24 9.87004 17.68 9.96004 16.95L10.25 14.48C10.28 14.25 10.48 14.07 10.71 14.07C11.43 14.07 12.06 13.53 12.16 12.82L12.74 8.89001C12.8 8.47001 12.68 8.04 12.4 7.72C12.12 7.4 11.72 7.20999 11.29 7.20999H5.65999C5.22999 7.20999 4.83001 7.39 4.55001 7.72C4.27001 8.05 4.15004 8.47001 4.21004 8.89001L4.78005 12.82Z" fill="#00C9EA"/>
</svg>
