<svg width="48" height="41" viewBox="0 0 48 41" fill="none" xmlns="http://www.w3.org/2000/svg">
<path d="M45.85 7.42998H25.07L30.43 2.06999C30.72 1.77999 30.72 1.3 30.43 1.01C30.14 0.699996 29.65 0.699996 29.37 1.01L23.77 6.60997L18.16 1.01C17.87 0.699996 17.39 0.699996 17.1 1.01C16.81 1.3 16.81 1.77999 17.1 2.06999L22.46 7.42998H1.66998C0.819983 7.42998 0.119995 8.13 0.119995 8.98V34.5C0.119995 35.36 0.819983 36.05 1.66998 36.05H20.82V38.63H10.4C10 38.63 9.65002 38.96 9.65002 39.38C9.65002 39.8 10 40.13 10.4 40.13H37.12C37.54 40.13 37.89 39.8 37.89 39.38C37.89 38.96 37.54 38.63 37.12 38.63H26.71V36.05H45.84C46.7 36.05 47.4 35.37 47.4 34.5V8.98C47.41 8.12 46.71 7.42998 45.85 7.42998ZM25.21 38.62H22.33V36.04H25.21V38.62Z" fill="#1D1D1B"/>
</svg>
